SplineFontDB: 1.0
FontName: OStayPuft
FullName: OStayPuft
FamilyName: OStayPuft
Weight: Medium
Copyright: Copyright 2003 by Omar Andres Zapata.  Published under the GNU Lesser General Public License (LGPL): http://www.fsf.org/copyleft/lesser.html
Version: 0.1
ItalicAngle: 0
UnderlinePosition: -100
UnderlineWidth: 50
Ascent: 800
Descent: 200
Order2: 1
NeedsXUIDChange: 1
XUID: [1021 132 1314450770 13732686]
FSType: 8
OS2Version: 1
OS2_WeightWidthSlopeOnly: 0
OS2_UseTypoMetrics: 1
CreationTime: 1092224594
ModificationTime: 1181414509
PfmFamily: 17
TTFWeight: 500
TTFWidth: 5
LineGap: 90
VLineGap: 0
Panose: 2 0 8 3 0 0 0 0 0 0
OS2TypoAscent: 0
OS2TypoAOffset: 1
OS2TypoDescent: 0
OS2TypoDOffset: 1
OS2TypoLinegap: 0
OS2WinAscent: 1
OS2WinAOffset: 1
OS2WinDescent: 1
OS2WinDOffset: 1
HheadAscent: 0
HheadAOffset: 1
HheadDescent: 0
HheadDOffset: 1
OS2SubXSize: 650
OS2SubYSize: 699
OS2SubXOff: 0
OS2SubYOff: 140
OS2SupXSize: 650
OS2SupYSize: 699
OS2SupXOff: 0
OS2SupYOff: 479
OS2StrikeYSize: 49
OS2StrikeYPos: 258
OS2Vendor: 'PfEd'
ScriptLang: 1
 1 latn 1 dflt 
TableOrder: GPOS 1
	'kern'
TableOrder: GSUB 1
	'frac'
TtfTable: cvt  4
!$MDh
EndTtf
TtfTable: maxp 32
!!*'"!7Ltm!!WFR!!E9'!!!!"!!*'"!'gN:!!<3'
EndTtf
LangName: 1033 "" "" "" "FontForge 1.0 : OStayPuft : 11-7-2004" "" "" "" "" "" "Omar Zapata" "" "" "http://www.thibault.org/fonts/" "Published under the GNU Lesser General Public License (LGPL): http://www.fsf.org/copyleft/lesser.html" "http://www.fsf.org/copyleft/lesser.html" "" "" "" "" "It's the Stay-Puft Marshmallow Man!+AAoACgAA-Created with fontforge" 
GaspTable: 1 65535 2
Encoding: UnicodeBmp
UnicodeInterp: none
NameList: Adobe Glyph List
DisplaySize: -24
AntiAlias: 1
FitToEm: 1
WinInfo: 38 38 15
BeginChars: 65538 211
StartChar: .notdef
Encoding: 65536 -1 0
Width: 432
Flags: W
Fore
33 0 m 1,0,-1
 33 666 l 1,1,-1
 366 666 l 1,2,-1
 366 0 l 1,3,-1
 33 0 l 1,0,-1
66 33 m 1,4,-1
 333 33 l 1,5,-1
 333 633 l 1,6,-1
 66 633 l 1,7,-1
 66 33 l 1,4,-1
EndSplineSet
EndChar
StartChar: exclam
Encoding: 33 33 4
Width: 250
GlyphClass: 2
Flags: W
Fore
96 760 m 0,0,1
 38 712 38 712 37 621 c 2,2,-1
 43 473 l 1,3,-1
 43 466 l 1,4,-1
 30 302 l 2,5,6
 28 213 28 213 76 166 c 0,7,8
 99 144 99 144 132 154 c 0,9,10
 146 158 146 158 158 169 c 0,11,12
 216 219 216 219 217 311 c 2,13,-1
 211 461 l 2,14,15
 211 465 211 465 211 468 c 2,16,-1
 220 621 l 2,17,18
 220 707 220 707 178 760 c 0,19,20
 159 785 159 785 124 775 c 0,21,22
 108 770 108 770 96 760 c 0,0,1
74 122 m 0,23,24
 99 147 99 147 134 139 c 0,25,26
 150 135 150 135 164 125 c 0,27,28
 200 99 200 99 197 63 c 0,29,30
 195 51 195 51 188 41 c 0,31,32
 164 5 164 5 118 9 c 0,33,34
 90 11 90 11 71 29 c 0,35,36
 45 53 45 53 56 91 c 0,37,38
 61 109 61 109 74 122 c 0,23,24
EndSplineSet
EndChar
StartChar: quotedbl
Encoding: 34 34 5
Width: 250
GlyphClass: 2
Flags: W
Fore
146 753 m 0,0,1
 128 659 128 659 138 585 c 0,2,3
 141 563 141 563 146 546 c 0,4,5
 152 527 152 527 181 528 c 0,6,7
 206 529 206 529 209 546 c 0,8,9
 227 662 227 662 220 733 c 0,10,11
 218 753 l 0,12,13
 215 773 215 773 184 774 c 0,14,15
 153 774 153 774 146 753 c 0,0,1
39 753 m 0,16,17
 21 659 21 659 31 585 c 0,18,19
 34 563 34 563 39 546 c 0,20,21
 45 527 45 527 74 528 c 0,22,23
 99 529 99 529 102 546 c 0,24,25
 120 662 120 662 113 733 c 0,26,27
 111 753 l 0,28,29
 108 773 108 773 77 774 c 0,30,31
 46 774 46 774 39 753 c 0,16,17
EndSplineSet
EndChar
StartChar: numbersign
Encoding: 35 35 6
Width: 670
GlyphClass: 2
Flags: W
Fore
297 468 m 0,0,1
 329 488 329 488 360 480 c 0,2,3
 380 475 380 475 393 459 c 0,4,5
 423 424 423 424 410 379 c 0,6,7
 403 356 403 356 384 339 c 0,8,9
 346 305 346 305 298 315 c 0,10,11
 268 321 268 321 252 345 c 0,12,13
 224 387 224 387 262 436 c 0,14,15
 276 455 276 455 297 468 c 0,0,1
345 765 m 0,16,17
 312 744 312 744 311 684 c 0,18,19
 310 622 310 622 307 609 c 1,20,-1
 298 587 l 2,21,22
 291 575 291 575 279 567 c 0,23,24
 248 545 248 545 191 563 c 0,25,26
 135 582 135 582 117 581 c 0,27,28
 95 580 95 580 78 567 c 0,29,30
 40 537 40 537 45 498 c 0,31,32
 46 485 46 485 54 474 c 0,33,34
 69 452 69 452 114 463 c 0,35,36
 160 474 160 474 173 469 c 0,37,38
 183 465 183 465 189 456 c 0,39,40
 211 421 211 421 184 381 c 0,41,42
 174 366 174 366 159 354 c 0,43,44
 142 341 142 341 105 353 c 0,45,46
 67 364 67 364 51 351 c 0,47,48
 15 321 15 321 20 284 c 0,49,50
 22 273 22 273 30 261 c 0,51,52
 43 245 43 245 82 259 c 0,53,54
 120 273 120 273 132 265 c 0,55,56
 135 262 135 262 138 258 c 0,57,58
 160 223 160 223 113 176 c 2,59,-1
 59 123 l 2,60,61
 23 84 23 84 42 51 c 0,62,63
 59 21 59 21 102 30 c 0,64,65
 118 34 118 34 132 42 c 0,66,67
 166 62 166 62 172 122 c 0,68,69
 178 183 178 183 182 196 c 0,70,71
 191 223 191 223 213 237 c 0,72,73
 279 280 279 280 332 261 c 0,74,75
 354 253 354 253 369 234 c 0,76,77
 390 206 390 206 356 158 c 256,78,79
 322 110 322 110 319 105 c 0,80,81
 303 73 303 73 321 51 c 0,82,83
 347 20 347 20 392 36 c 0,84,85
 411 43 411 43 426 57 c 0,86,87
 450 80 450 80 439 132 c 256,88,89
 428 184 428 184 432 201 c 0,90,91
 435 217 435 217 447 228 c 0,92,93
 466 247 466 247 512 236 c 0,94,95
 557 226 557 226 574 235 c 0,96,97
 580 238 580 238 585 243 c 0,98,99
 620 278 620 278 612 317 c 0,100,101
 609 333 609 333 597 345 c 0,102,103
 578 364 578 364 535 342 c 256,104,105
 492 320 492 320 478 320 c 1,106,-1
 464 324 l 1,107,-1
 456 330 l 1,108,109
 425 361 425 361 445 407 c 0,110,111
 453 426 453 426 468 441 c 0,112,113
 491 463 491 463 541 450 c 256,114,115
 591 437 591 437 609 441 c 0,116,117
 621 445 621 445 630 453 c 0,118,119
 667 486 667 486 660 524 c 0,120,121
 657 538 657 538 648 549 c 0,122,123
 629 571 629 571 581 551 c 0,124,125
 534 532 534 532 520 533 c 0,126,127
 505 533 505 533 495 546 c 0,128,129
 472 576 472 576 508 626 c 2,130,-1
 547 678 l 2,131,132
 571 717 571 717 552 744 c 0,133,134
 535 769 535 769 500 762 c 0,135,136
 486 759 486 759 474 750 c 0,137,138
 444 729 444 729 447 671 c 0,139,140
 450 612 450 612 446 596 c 1,141,-1
 438 577 l 1,142,-1
 425 563 l 2,143,144
 423 561 l 0,145,146
 395 540 395 540 368 549 c 0,147,148
 358 552 358 552 351 561 c 0,149,150
 327 590 327 590 360 642 c 0,151,152
 395 695 395 695 395 694 c 1,153,154
 415 733 415 733 396 759 c 0,155,156
 384 776 384 776 362 772 c 0,157,158
 353 770 353 770 345 765 c 0,16,17
EndSplineSet
EndChar
StartChar: dollar
Encoding: 36 36 7
Width: 563
GlyphClass: 2
Flags: W
Fore
222 762 m 0,0,1
 207 747 207 747 215 710 c 2,2,-1
 220 680 l 1,3,-1
 216 662 l 2,4,5
 215 659 215 659 213 657 c 2,6,7
 196 628 196 628 146 610 c 0,8,9
 96 593 96 593 79 576 c 0,10,11
 72 569 72 569 66 561 c 0,12,13
 9 471 9 471 31 413 c 0,14,15
 35 401 35 401 42 390 c 0,16,17
 69 349 69 349 132 344 c 2,18,-1
 214 338 l 2,19,20
 231 335 231 335 246 330 c 0,21,22
 264 324 264 324 335 319 c 0,23,24
 393 314 393 314 404 289 c 0,25,26
 408 281 408 281 408 270 c 0,27,28
 410 221 410 221 345 205 c 2,29,-1
 286 197 l 2,30,31
 246 193 246 193 237 192 c 0,32,33
 202 187 202 187 140 220 c 0,34,35
 86 249 86 249 63 246 c 0,36,37
 45 244 45 244 30 228 c 0,38,39
 9 204 9 204 25 170 c 0,40,41
 35 148 35 148 54 141 c 0,42,43
 72 135 72 135 138 122 c 0,44,45
 188 113 188 113 216 84 c 0,46,47
 225 75 225 75 226 46 c 0,48,49
 226 26 226 26 237 18 c 0,50,51
 269 -5 269 -5 299 4 c 0,52,53
 312 8 312 8 321 18 c 0,54,55
 332 29 332 29 322 57 c 0,56,57
 313 81 313 81 321 93 c 0,58,59
 341 121 341 121 397 121 c 0,60,61
 452 121 452 121 469 129 c 0,62,63
 483 136 483 136 492 150 c 0,64,65
 541 224 541 224 514 306 c 0,66,67
 501 344 501 344 471 378 c 0,68,69
 435 420 435 420 364 421 c 2,70,-1
 276 421 l 2,71,72
 230 425 230 425 195 444 c 0,73,74
 169 459 169 459 173 498 c 0,75,76
 176 532 176 532 201 543 c 0,77,78
 259 568 259 568 337 534 c 2,79,-1
 412 501 l 2,80,81
 431 494 431 494 447 492 c 0,82,83
 479 488 479 488 497 517 c 0,84,85
 507 532 507 532 504 549 c 0,86,87
 499 585 499 585 453 597 c 2,88,-1
 381 612 l 2,89,90
 352 622 352 622 336 642 c 0,91,92
 322 661 322 661 325 708 c 0,93,94
 329 751 329 751 311 767 c 2,95,-1
 306 771 l 2,96,97
 280 790 280 790 250 779 c 0,98,99
 240 776 240 776 231 769 c 0,100,101
 226 766 226 766 222 762 c 0,0,1
EndSplineSet
EndChar
StartChar: percent
Encoding: 37 37 8
Width: 500
GlyphClass: 2
Flags: W
Fore
353 178 m 0,0,1
 329 157 329 157 337 127 c 0,2,3
 340 115 340 115 348 107 c 0,4,5
 366 88 366 88 391 94 c 0,6,7
 405 98 405 98 415 108 c 0,8,9
 432 126 432 126 424 152 c 0,10,11
 420 164 420 164 411 173 c 0,12,13
 392 192 392 192 368 186 c 0,14,15
 360 184 360 184 353 178 c 0,0,1
324 213 m 0,16,17
 358 243 358 243 403 228 c 0,18,19
 425 221 425 221 441 204 c 0,20,21
 481 163 481 163 469 112 c 0,22,23
 463 90 463 90 448 74 c 0,24,25
 413 36 413 36 361 46 c 0,26,27
 345 49 345 49 331 58 c 0,28,29
 322 64 322 64 315 71 c 0,30,31
 277 111 277 111 293 165 c 0,32,33
 302 194 302 194 324 213 c 0,16,17
108 701 m 0,34,35
 85 681 85 681 92 651 c 0,36,37
 95 639 95 639 104 630 c 0,38,39
 121 612 121 612 147 618 c 0,40,41
 161 621 161 621 170 631 c 0,42,43
 187 650 187 650 179 675 c 0,44,45
 176 687 176 687 167 697 c 0,46,47
 148 716 148 716 124 709 c 0,48,49
 115 707 115 707 108 701 c 0,34,35
80 736 m 0,50,51
 114 766 114 766 159 751 c 0,52,53
 180 744 180 744 197 728 c 0,54,55
 236 687 236 687 224 636 c 0,56,57
 220 618 220 618 209 604 c 2,58,-1
 203 597 l 2,59,60
 168 559 168 559 117 569 c 0,61,62
 90 575 90 575 71 595 c 0,63,64
 33 634 33 634 49 689 c 0,65,66
 57 717 57 717 80 736 c 0,50,51
319 759 m 0,67,68
 333 784 333 784 376 787 c 0,69,70
 416 789 416 789 421 767 c 1,71,-1
 421 759 l 2,72,73
 398 581 398 581 325 368 c 0,74,75
 324 365 324 365 323 363 c 0,76,77
 269 205 269 205 264 194 c 0,78,79
 231 111 231 111 178 39 c 0,80,81
 160 13 160 13 114 19 c 0,82,83
 72 25 72 25 67 50 c 0,84,85
 66 55 66 55 67 60 c 0,86,87
 80 136 80 136 135 272 c 0,88,89
 164 344 164 344 178 384 c 2,90,-1
 266 641 l 2,91,92
 292 708 292 708 319 759 c 0,67,68
EndSplineSet
EndChar
StartChar: ampersand
Encoding: 38 38 9
Width: 752
GlyphClass: 2
Flags: W
Fore
320 208 m 0,0,1
 318 151 318 151 270 116 c 0,2,3
 230 88 230 88 186 98 c 0,4,5
 136 109 136 109 128 170 c 0,6,7
 125 194 125 194 130 219 c 0,8,9
 143 278 143 278 190 296 c 0,10,11
 206 302 206 302 224 302 c 0,12,13
 277 301 277 301 305 259 c 0,14,15
 321 236 321 236 320 208 c 0,0,1
482 578 m 0,16,17
 535 578 535 578 562 612 c 0,18,19
 577 631 577 631 576 654 c 0,20,21
 569 740 569 740 472 777 c 0,22,23
 412 800 412 800 341 795 c 0,24,25
 167 782 167 782 89 584 c 0,26,27
 76 550 76 550 94 498 c 0,28,29
 114 443 114 443 110 412 c 0,30,31
 104 371 104 371 65 313 c 2,32,-1
 39 270 l 2,33,34
 21 235 21 235 24 198 c 0,35,36
 33 61 33 61 114 19 c 0,37,38
 122 15 122 15 130 12 c 0,39,40
 182 -8 182 -8 245 32 c 2,41,-1
 317 79 l 2,42,43
 362 104 362 104 403 102 c 0,44,45
 454 98 454 98 519 50 c 0,46,47
 577 8 577 8 602 -1 c 0,48,49
 611 -4 611 -4 620 -5 c 0,50,51
 660 -13 660 -13 698 12 c 0,52,53
 731 34 731 34 717 60 c 0,54,55
 693 106 693 106 626 131 c 0,56,57
 559 157 559 157 550 161 c 0,58,59
 512 182 512 182 496 219 c 0,60,61
 484 247 484 247 524 269 c 2,62,-1
 581 299 l 2,63,64
 610 318 610 318 610 343 c 0,65,66
 611 390 611 390 576 418 c 0,67,68
 556 433 556 433 531 436 c 0,69,70
 500 440 500 440 472 401 c 0,71,72
 445 361 445 361 435 353 c 2,73,-1
 419 343 l 1,74,75
 411 340 411 340 403 340 c 0,76,77
 335 333 335 333 278 384 c 0,78,79
 262 398 262 398 244 419 c 0,80,81
 183 490 183 490 182 542 c 0,82,83
 182 563 182 563 189 584 c 0,84,85
 216 664 216 664 295 683 c 0,86,87
 318 689 318 689 344 688 c 0,88,89
 377 687 377 687 406 643 c 0,90,91
 434 601 434 601 444 592 c 0,92,93
 461 578 461 578 482 578 c 0,16,17
EndSplineSet
EndChar
StartChar: quotesingle
Encoding: 39 39 10
Width: 140
GlyphClass: 2
Flags: W
Fore
37 753 m 0,0,1
 19 659 19 659 29 585 c 0,2,3
 32 563 32 563 37 546 c 0,4,5
 43 527 43 527 72 528 c 0,6,7
 97 529 97 529 100 546 c 0,8,9
 118 662 118 662 111 733 c 0,10,11
 109 753 l 0,12,13
 106 773 106 773 75 774 c 0,14,15
 44 774 44 774 37 753 c 0,0,1
EndSplineSet
EndChar
StartChar: parenleft
Encoding: 40 40 11
Width: 340
GlyphClass: 2
Flags: W
Fore
212 756 m 0,0,1
 65 654 65 654 32 478 c 0,2,3
 25 442 25 442 23 405 c 0,4,5
 17 247 17 247 112 116 c 0,6,7
 143 72 143 72 185 33 c 0,8,9
 215 5 215 5 265 10 c 0,10,11
 312 15 312 15 317 47 c 0,12,13
 317 50 317 50 317 54 c 0,14,15
 317 107 317 107 262 179 c 0,16,17
 204 255 204 255 197 266 c 0,18,19
 160 325 160 325 155 381 c 0,20,21
 153 458 153 458 214 545 c 2,22,-1
 274 632 l 2,23,24
 312 692 312 692 314 747 c 0,25,26
 315 777 315 777 271 775 c 0,27,28
 237 773 237 773 212 756 c 0,0,1
EndSplineSet
EndChar
StartChar: asterisk
Encoding: 42 42 13
Width: 700
GlyphClass: 2
Flags: W
Fore
355 694 m 0,0,1
 324 673 324 673 319 618 c 2,2,-1
 312 565 l 2,3,4
 305 534 305 534 283 517 c 0,5,6
 250 492 250 492 184 503 c 0,7,8
 122 515 122 515 102 511 c 0,9,10
 78 507 78 507 61 490 c 0,11,12
 15 446 15 446 26 394 c 0,13,14
 30 378 30 378 40 364 c 0,15,16
 59 338 59 338 114 349 c 0,17,18
 168 360 168 360 183 358 c 0,19,20
 202 354 202 354 211 337 c 0,21,22
 231 300 231 300 185 251 c 2,23,-1
 131 197 l 2,24,25
 96 155 96 155 115 121 c 0,26,27
 138 79 138 79 196 88 c 0,28,29
 218 92 218 92 238 103 c 0,30,31
 273 123 273 123 275 196 c 0,32,33
 277 264 277 264 281 277 c 0,34,35
 290 308 290 308 322 310 c 0,36,37
 362 312 362 312 375 263 c 2,38,-1
 391 166 l 2,39,40
 403 121 403 121 433 106 c 0,41,42
 474 85 474 85 507 96 c 0,43,44
 524 102 524 102 535 118 c 0,45,46
 557 152 557 152 519 205 c 2,47,-1
 479 259 l 2,48,49
 453 300 453 300 472 331 c 0,50,51
 490 362 490 362 546 355 c 0,52,53
 605 347 605 347 616 348 c 0,54,55
 643 350 643 350 658 370 c 0,56,57
 685 406 685 406 672 449 c 0,58,59
 665 470 665 470 649 487 c 0,60,61
 621 516 621 516 531 497 c 0,62,63
 463 482 463 482 450 485 c 0,64,65
 432 490 432 490 439 514 c 2,66,-1
 477 614 l 2,67,68
 490 662 490 662 463 694 c 0,69,70
 435 725 435 725 388 710 c 0,71,72
 371 705 371 705 355 694 c 0,0,1
EndSplineSet
EndChar
StartChar: plus
Encoding: 43 43 14
Width: 450
GlyphClass: 2
Flags: W
Fore
191 617 m 0,0,1
 169 596 169 596 181 547 c 2,2,-1
 191 504 l 1,3,4
 193 477 193 477 176 461 c 0,5,6
 157 442 157 442 112 455 c 0,7,8
 68 468 68 468 51 461 c 0,9,10
 44 458 44 458 38 452 c 0,11,12
 6 419 6 419 17 376 c 0,13,14
 21 356 21 356 35 341 c 0,15,16
 54 320 54 320 101 334 c 256,17,18
 148 348 148 348 164 343 c 0,19,20
 174 340 174 340 182 332 c 0,21,22
 203 310 203 310 185 261 c 0,23,24
 167 213 167 213 170 197 c 0,25,26
 172 183 172 183 182 173 c 0,27,28
 217 139 217 139 265 150 c 0,29,30
 291 156 291 156 308 176 c 0,31,32
 328 199 328 199 302 244 c 0,33,34
 278 288 278 288 276 302 c 0,35,36
 274 319 274 319 284 332 c 0,37,38
 301 353 301 353 346 340 c 256,39,40
 391 327 391 327 405 332 c 0,41,42
 415 335 415 335 422 344 c 0,43,44
 448 378 448 378 426 421 c 0,45,46
 417 438 417 438 401 452 c 0,47,48
 386 466 386 466 347 454 c 0,49,50
 310 443 310 443 296 455 c 0,51,52
 295 456 295 456 293 458 c 0,53,54
 273 481 273 481 298 531 c 0,55,56
 321 578 321 578 322 592 c 0,57,58
 322 609 322 609 308 620 c 0,59,60
 257 662 257 662 214 635 c 0,61,62
 204 629 204 629 191 617 c 0,0,1
EndSplineSet
EndChar
StartChar: comma
Encoding: 44 44 15
Width: 250
GlyphClass: 2
Flags: W
Fore
93 123 m 0,0,1
 118 148 118 148 154 136 c 0,2,3
 171 131 171 131 183 117 c 0,4,5
 234 59 234 59 191 -40 c 0,6,7
 183 -58 183 -58 171 -81 c 0,8,9
 109 -198 109 -198 63 -177 c 0,10,11
 59 -175 59 -175 54 -171 c 0,12,13
 32 -154 32 -154 59 -121 c 2,14,-1
 94 -79 l 2,15,16
 106 -63 106 -63 108 -48 c 0,17,18
 113 -20 113 -20 90 36 c 0,19,20
 71 85 71 85 82 108 c 0,21,22
 86 116 86 116 93 123 c 0,0,1
EndSplineSet
EndChar
StartChar: hyphen
Encoding: 45 45 16
Width: 450
GlyphClass: 2
Flags: W
Fore
225 459 m 0,0,1
 207 459 207 459 137 473 c 0,2,3
 76 484 76 484 45 458 c 0,4,5
 41 455 41 455 38 452 c 0,6,7
 7 420 7 420 16 377 c 0,8,9
 21 357 21 357 35 341 c 0,10,11
 66 307 66 307 126 315 c 2,12,-1
 203 327 l 1,13,14
 210 327 210 327 216 327 c 0,15,16
 235 327 235 327 310 314 c 0,17,18
 378 303 378 303 409 330 c 0,19,20
 416 336 416 336 422 344 c 0,21,22
 448 378 448 378 426 420 c 0,23,24
 417 438 417 438 401 452 c 0,25,26
 368 481 368 481 308 471 c 0,27,28
 241 459 241 459 225 459 c 0,0,1
EndSplineSet
EndChar
StartChar: period
Encoding: 46 46 17
Width: 250
GlyphClass: 2
Flags: W
Fore
87 45 m 0,0,1
 70 75 70 75 78 101 c 0,2,3
 82 114 82 114 93 123 c 0,4,5
 120 146 120 146 153 138 c 0,6,7
 172 133 172 133 183 117 c 0,8,9
 207 82 207 82 184 43 c 0,10,11
 174 25 174 25 158 16 c 0,12,13
 150 12 l 0,14,15
 125 1 125 1 101 26 c 0,16,17
 93 34 93 34 87 45 c 0,0,1
EndSplineSet
EndChar
StartChar: slash
Encoding: 47 47 18
Width: 400
GlyphClass: 2
Flags: W
Fore
273 759 m 0,0,1
 287 784 287 784 330 787 c 0,2,3
 370 789 370 789 375 767 c 0,4,5
 376 763 376 763 375 759 c 0,6,7
 352 581 352 581 279 368 c 0,8,9
 278 365 278 365 277 363 c 0,10,11
 223 205 223 205 218 194 c 0,12,13
 185 111 185 111 132 39 c 0,14,15
 113 13 113 13 68 19 c 0,16,17
 26 25 26 25 21 50 c 0,18,19
 20 55 20 55 21 60 c 0,20,21
 33 136 33 136 88 272 c 0,22,23
 118 344 118 344 132 384 c 2,24,-1
 220 641 l 2,25,26
 245 708 245 708 273 759 c 0,0,1
EndSplineSet
EndChar
StartChar: zero
Encoding: 48 48 19
Width: 350
GlyphClass: 2
Flags: W
Fore
132 608 m 0,0,1
 149 635 149 635 187 631 c 0,2,3
 215 629 215 629 227 608 c 0,4,5
 262 548 262 548 257 438 c 1,6,7
 258 461 258 461 253 358 c 0,8,9
 248 266 248 266 246 257 c 0,10,11
 239 214 239 214 215 178 c 0,12,13
 198 152 198 152 164 155 c 0,14,15
 143 157 143 157 132 172 c 0,16,17
 102 215 102 215 101 302 c 2,18,-1
 101 367 l 1,19,-1
 98 490 l 2,20,21
 100 557 100 557 132 608 c 0,0,1
102 753 m 0,22,23
 45 662 45 662 45 535 c 2,24,-1
 51 351 l 1,25,-1
 52 192 l 2,26,27
 58 89 58 89 102 27 c 0,28,29
 127 -9 127 -9 178 -1 c 0,30,31
 219 5 219 5 240 36 c 0,32,33
 290 111 290 111 298 217 c 2,34,-1
 303 336 l 2,35,36
 312 512 312 512 312 545 c 0,37,38
 309 670 309 670 261 753 c 0,39,40
 238 793 238 793 183 793 c 256,41,42
 128 793 128 793 102 753 c 0,22,23
EndSplineSet
EndChar
StartChar: one
Encoding: 49 49 20
Width: 350
GlyphClass: 2
Flags: W
Fore
38 633 m 0,0,1
 49 609 49 609 104 626 c 0,2,3
 155 643 155 643 166 641 c 0,4,5
 178 639 178 639 179 624 c 0,6,7
 183 559 183 559 177 433 c 0,8,9
 177 415 177 415 176 399 c 0,10,11
 175 380 175 380 182 286 c 0,12,13
 187 211 187 211 164 156 c 0,14,15
 153 129 153 129 102 102 c 0,16,17
 58 78 58 78 50 64 c 0,18,19
 43 50 43 50 50 33 c 0,20,21
 62 3 62 3 110 11 c 2,22,-1
 171 21 l 2,23,24
 179 21 l 0,25,26
 186 21 186 21 242 11 c 0,27,28
 289 3 289 3 308 30 c 0,29,30
 325 54 325 54 304 92 c 0,31,32
 280 136 280 136 278 153 c 0,33,34
 268 229 268 229 271 364 c 0,35,36
 272 400 272 400 272 426 c 0,37,38
 272 453 272 453 282 640 c 0,39,40
 286 721 286 721 281 768 c 0,41,42
 275 833 275 833 137 751 c 0,43,44
 128 745 128 745 116 738 c 0,45,46
 58 702 58 702 44 682 c 0,47,48
 26 658 26 658 38 633 c 0,0,1
EndSplineSet
EndChar
StartChar: two
Encoding: 50 50 21
Width: 350
GlyphClass: 2
Flags: W
Fore
50 477 m 0,0,1
 107 475 107 475 98 472 c 1,2,3
 95 470 95 470 91 471 c 0,4,5
 88 472 88 472 94 474 c 2,6,7
 97 476 97 476 101 477 c 0,8,9
 135 487 135 487 124 539 c 2,10,-1
 106 610 l 2,11,12
 100 650 100 650 122 669 c 0,13,14
 147 690 147 690 176 683 c 0,15,16
 192 679 192 679 201 666 c 0,17,18
 251 601 251 601 214 510 c 2,19,-1
 185 449 l 1,20,-1
 138 360 l 2,21,22
 129 339 129 339 122 321 c 0,23,24
 109 282 109 282 59 219 c 0,25,26
 14 162 14 162 7 124 c 0,27,28
 3 103 3 103 6 81 c 0,29,30
 10 54 10 54 41 40 c 0,31,32
 181 -24 181 -24 260 10 c 0,33,34
 286 21 286 21 308 43 c 0,35,36
 341 75 341 75 344 90 c 0,37,38
 350 115 350 115 311 135 c 0,39,40
 284 149 284 149 200 134 c 0,41,42
 146 124 146 124 142 135 c 0,43,44
 140 140 140 140 146 151 c 2,45,-1
 208 257 l 2,46,47
 218 277 218 277 227 300 c 0,48,49
 238 326 238 326 290 430 c 0,50,51
 339 526 339 526 335 590 c 0,52,53
 333 623 333 623 320 657 c 0,54,55
 284 750 284 750 178 753 c 0,56,57
 175 753 175 753 173 753 c 0,58,59
 119 754 119 754 85 726 c 0,60,61
 63 707 63 707 53 678 c 2,62,-1
 20 576 l 2,63,64
 -6 479 -6 479 50 477 c 0,0,1
EndSplineSet
EndChar
StartChar: three
Encoding: 51 51 22
Width: 350
GlyphClass: 2
Flags: W
Fore
110 351 m 0,0,1
 84 382 84 382 92 418 c 0,2,3
 94 428 94 428 98 438 c 0,4,5
 107 457 107 457 139 468 c 0,6,7
 168 478 168 478 179 489 c 2,8,-1
 224 529 l 2,9,10
 244 551 244 551 245 579 c 0,11,12
 247 621 247 621 227 647 c 0,13,14
 212 666 212 666 188 672 c 0,15,16
 166 677 166 677 142 651 c 0,17,18
 117 624 117 624 98 618 c 0,19,20
 61 609 61 609 53 610 c 0,21,22
 44 612 44 612 38 621 c 0,23,24
 8 669 8 669 60 726 c 0,25,26
 75 742 75 742 95 756 c 0,27,28
 172 809 172 809 240 786 c 0,29,30
 262 778 262 778 281 762 c 0,31,32
 335 716 335 716 327 626 c 1,33,34
 327 627 327 627 311 525 c 0,35,36
 308 503 308 503 282 467 c 0,37,38
 262 438 262 438 260 414 c 0,39,40
 259 384 259 384 283 339 c 0,41,42
 303 302 303 302 305 276 c 2,43,-1
 320 157 l 2,44,45
 324 80 324 80 275 39 c 0,46,47
 221 -8 221 -8 146 17 c 0,48,49
 117 26 117 26 89 45 c 0,50,51
 26 88 26 88 22 138 c 0,52,53
 20 161 20 161 32 180 c 0,54,55
 43 197 43 197 79 187 c 0,56,57
 90 184 90 184 92 183 c 2,58,59
 110 179 110 179 136 150 c 0,60,61
 160 124 160 124 182 129 c 0,62,63
 231 141 231 141 239 222 c 0,64,65
 244 264 244 264 228 293 c 0,66,67
 219 309 219 309 203 324 c 0,68,69
 190 337 190 337 154 337 c 0,70,71
 123 336 123 336 110 351 c 0,0,1
EndSplineSet
EndChar
StartChar: four
Encoding: 52 52 23
Width: 350
GlyphClass: 2
Flags: W
Fore
116 440 m 0,0,1
 75 488 75 488 115 555 c 0,2,3
 129 579 129 579 152 599 c 0,4,5
 171 615 171 615 188 608 c 1,6,7
 193 607 193 607 197 602 c 0,8,9
 238 558 238 558 208 493 c 0,10,11
 195 465 195 465 172 444 c 0,12,13
 150 424 150 424 128 432 c 0,14,15
 121 434 121 434 116 440 c 0,0,1
175 33 m 0,16,17
 198 12 198 12 229 22 c 0,18,19
 244 27 244 27 256 39 c 0,20,21
 288 73 288 73 269 140 c 2,22,-1
 249 212 l 2,23,24
 239 261 239 261 265 291 c 0,25,26
 273 301 273 301 302 298 c 0,27,28
 325 295 325 295 334 306 c 0,29,30
 356 334 356 334 349 367 c 0,31,32
 344 385 344 385 331 399 c 0,33,34
 322 408 322 408 290 397 c 0,35,36
 267 389 267 389 265 402 c 0,37,38
 257 448 257 448 266 569 c 0,39,40
 276 696 276 696 256 762 c 0,41,42
 246 793 246 793 194 766 c 0,43,44
 182 760 182 760 172 753 c 0,45,46
 96 698 96 698 64 598 c 1,47,48
 63 592 63 592 32 468 c 0,49,50
 27 447 27 447 22 429 c 2,51,-1
 1 369 l 2,52,53
 -4 345 -4 345 10 327 c 0,54,55
 28 302 28 302 77 310 c 0,56,57
 128 317 128 317 143 312 c 0,58,59
 157 308 157 308 166 297 c 0,60,61
 197 261 197 261 175 189 c 2,62,-1
 153 115 l 2,63,64
 142 62 142 62 175 33 c 0,16,17
EndSplineSet
EndChar
StartChar: five
Encoding: 53 53 24
Width: 350
GlyphClass: 2
Flags: W
Fore
322 762 m 0,0,1
 202 788 202 788 188 790 c 0,2,3
 68 806 68 806 42 734 c 2,4,-1
 40 726 l 2,5,6
 2 594 2 594 15 490 c 0,7,8
 21 444 21 444 37 387 c 0,9,10
 44 360 44 360 78 383 c 2,11,-1
 132 419 l 2,12,13
 164 436 164 436 184 426 c 0,14,15
 251 392 251 392 253 288 c 0,16,17
 254 270 254 270 253 246 c 0,18,19
 248 150 248 150 205 115 c 2,20,-1
 182 100 l 1,21,-1
 181 99 l 1,22,23
 156 87 156 87 113 115 c 0,24,25
 74 141 74 141 58 140 c 0,26,27
 47 140 47 140 37 132 c 0,28,29
 6 108 6 108 18 64 c 0,30,31
 24 45 24 45 37 30 c 0,32,33
 71 -9 71 -9 126 -1 c 0,34,35
 147 3 147 3 169 12 c 0,36,37
 263 53 263 53 300 158 c 0,38,39
 310 186 310 186 318 222 c 0,40,41
 348 364 348 364 316 438 c 0,42,43
 298 479 298 479 262 510 c 0,44,45
 239 530 239 530 187 513 c 0,46,47
 138 497 138 497 122 500 c 0,48,49
 109 504 109 504 100 516 c 0,50,51
 67 561 67 561 78 648 c 0,52,53
 80 667 80 667 85 687 c 0,54,55
 94 727 94 727 148 712 c 2,56,-1
 243 680 l 2,57,58
 297 667 297 667 322 693 c 0,59,60
 342 714 342 714 338 741 c 0,61,62
 336 759 336 759 322 762 c 0,0,1
EndSplineSet
EndChar
StartChar: six
Encoding: 54 54 25
Width: 350
GlyphClass: 2
Flags: W
Fore
117 312 m 0,0,1
 166 350 166 350 224 322 c 0,2,3
 254 308 254 308 273 280 c 0,4,5
 299 243 299 243 287 201 c 0,6,7
 282 184 282 184 270 170 c 2,8,-1
 261 162 l 2,9,10
 213 124 213 124 155 149 c 0,11,12
 125 163 125 163 105 190 c 0,13,14
 78 228 78 228 90 272 c 0,15,16
 97 297 97 297 117 312 c 0,0,1
260 519 m 0,17,18
 269 500 269 500 295 514 c 0,19,20
 306 520 306 520 312 528 c 0,21,22
 360 595 360 595 333 672 c 0,23,24
 318 716 318 716 281 746 c 0,25,26
 228 790 228 790 165 776 c 0,27,28
 125 768 125 768 101 737 c 0,29,30
 23 637 23 637 11 512 c 2,31,-1
 8 426 l 1,32,33
 8 483 8 483 9 330 c 2,34,-1
 9 212 l 2,35,36
 15 120 15 120 72 66 c 0,37,38
 144 -4 144 -4 215 13 c 0,39,40
 235 18 235 18 252 30 c 0,41,42
 343 91 343 91 335 216 c 0,43,44
 330 300 330 300 282 378 c 0,45,46
 263 409 263 409 203 411 c 0,47,48
 144 414 144 414 129 421 c 0,49,50
 109 430 109 430 102 451 c 0,51,52
 81 508 81 508 90 541 c 0,53,54
 94 553 94 553 102 571 c 0,55,56
 132 637 132 637 164 647 c 0,57,58
 175 650 175 650 188 648 c 0,59,60
 226 641 226 641 242 581 c 0,61,62
 258 522 258 522 260 519 c 0,17,18
EndSplineSet
EndChar
StartChar: seven
Encoding: 55 55 26
Width: 350
GlyphClass: 2
Flags: W
Fore
39 744 m 0,0,1
 3 705 3 705 15 658 c 0,2,3
 20 640 20 640 33 624 c 0,4,5
 56 596 56 596 130 612 c 0,6,7
 192 625 192 625 205 622 c 0,8,9
 225 618 225 618 225 594 c 0,10,11
 223 514 223 514 183 419 c 0,12,13
 149 339 149 339 144 324 c 0,14,15
 127 281 127 281 74 191 c 0,16,17
 26 110 26 110 18 48 c 0,18,19
 13 11 13 11 62 -1 c 0,20,21
 115 -13 115 -13 161 11 c 0,22,23
 180 21 180 21 189 36 c 0,24,25
 229 101 229 101 251 219 c 0,26,27
 269 322 269 322 270 324 c 2,28,29
 276 357 276 357 313 480 c 0,30,31
 346 590 346 590 334 672 c 0,32,33
 329 700 329 700 321 729 c 0,34,35
 309 767 309 767 252 766 c 2,36,-1
 174 762 l 1,37,-1
 95 768 l 2,38,39
 60 767 60 767 39 744 c 0,0,1
EndSplineSet
EndChar
StartChar: eight
Encoding: 56 56 27
Width: 350
GlyphClass: 2
Flags: W
Fore
225 262 m 0,0,1
 203 280 203 280 172 274 c 0,2,3
 156 272 156 272 144 262 c 0,4,5
 97 224 97 224 117 171 c 0,6,7
 127 144 127 144 154 123 c 0,8,9
 175 107 175 107 202 112 c 0,10,11
 213 114 213 114 222 121 c 0,12,13
 271 156 271 156 261 207 c 0,14,15
 255 239 255 239 225 262 c 0,0,1
111 406 m 0,16,17
 109 445 109 445 68 495 c 0,18,19
 30 542 30 542 22 567 c 0,20,21
 17 582 17 582 17 598 c 0,22,23
 17 690 17 690 50 734 c 0,24,25
 70 761 70 761 107 781 c 0,26,27
 154 807 154 807 202 798 c 0,28,29
 222 794 222 794 239 784 c 0,30,31
 307 747 307 747 316 671 c 2,32,-1
 318 610 l 1,33,34
 318 655 318 655 317 592 c 0,35,36
 317 554 317 554 280 503 c 0,37,38
 244 454 244 454 238 428 c 0,39,40
 235 416 235 416 235 403 c 0,41,42
 237 363 237 363 278 312 c 0,43,44
 318 265 318 265 326 242 c 0,45,46
 333 224 333 224 333 205 c 0,47,48
 333 129 333 129 313 90 c 256,49,50
 293 51 293 51 248 25 c 2,51,52
 246 23 246 23 243 22 c 0,53,54
 196 -4 196 -4 148 5 c 0,55,56
 128 9 128 9 111 19 c 0,57,58
 45 55 45 55 35 130 c 0,59,60
 33 149 33 149 33 211 c 0,61,62
 33 250 33 250 69 303 c 0,63,64
 104 354 104 354 109 383 c 0,65,66
 111 394 111 394 111 406 c 0,16,17
140 544 m 0,67,68
 163 526 163 526 194 532 c 0,69,70
 210 534 210 534 221 544 c 0,71,72
 268 582 268 582 249 635 c 0,73,74
 239 662 239 662 212 683 c 0,75,76
 191 699 191 699 164 694 c 0,77,78
 152 692 152 692 143 685 c 0,79,80
 95 650 95 650 105 599 c 0,81,82
 111 567 111 567 140 544 c 0,67,68
EndSplineSet
EndChar
StartChar: nine
Encoding: 57 57 28
Width: 350
GlyphClass: 2
Flags: W
Fore
192 376 m 0,0,1
 67 407 67 407 28 530 c 0,2,3
 21 555 21 555 17 583 c 0,4,5
 7 661 7 661 52 718 c 0,6,7
 74 745 74 745 107 766 c 0,8,9
 156 797 156 797 203 785 c 0,10,11
 221 781 221 781 239 769 c 0,12,13
 290 735 290 735 305 661 c 2,14,-1
 317 577 l 2,15,16
 327 520 327 520 313 437 c 0,17,18
 308 407 308 407 306 394 c 0,19,20
 289 280 289 280 270 224 c 0,21,22
 260 198 l 2,23,-1
 225 99 l 2,24,25
 204 54 204 54 165 30 c 0,26,27
 84 -18 84 -18 46 11 c 0,28,29
 37 17 37 17 32 27 c 0,30,31
 8 71 8 71 55 115 c 2,32,-1
 132 180 l 2,33,34
 162 208 162 208 173 237 c 0,35,36
 205 321 205 321 207 343 c 0,37,38
 210 372 210 372 192 376 c 0,0,1
140 529 m 0,39,40
 163 511 163 511 194 517 c 0,41,42
 210 519 210 519 221 529 c 0,43,44
 268 567 268 567 249 620 c 0,45,46
 239 647 239 647 212 668 c 0,47,48
 191 684 191 684 164 679 c 0,49,50
 152 677 152 677 143 670 c 0,51,52
 95 635 95 635 105 584 c 0,53,54
 111 552 111 552 140 529 c 0,39,40
EndSplineSet
EndChar
StartChar: colon
Encoding: 58 58 29
Width: 250
GlyphClass: 2
Flags: W
Fore
77 295 m 0,0,1
 60 325 60 325 68 351 c 0,2,3
 72 364 72 364 83 373 c 0,4,5
 110 396 110 396 143 388 c 0,6,7
 162 383 162 383 173 367 c 0,8,9
 197 332 197 332 174 293 c 0,10,11
 162 271 162 271 140 262 c 0,12,13
 115 251 115 251 91 276 c 0,14,15
 83 284 83 284 77 295 c 0,0,1
77 45 m 0,16,17
 60 75 60 75 68 101 c 0,18,19
 72 114 72 114 83 123 c 0,20,21
 110 146 110 146 143 138 c 0,22,23
 162 133 162 133 173 117 c 0,24,25
 197 82 197 82 174 43 c 0,26,27
 162 21 162 21 140 12 c 0,28,29
 115 1 115 1 91 26 c 0,30,31
 83 34 83 34 77 45 c 0,16,17
EndSplineSet
EndChar
StartChar: semicolon
Encoding: 59 59 30
Width: 250
GlyphClass: 2
Flags: W
Fore
91 123 m 0,0,1
 115 148 115 148 152 136 c 0,2,3
 169 131 169 131 181 117 c 0,4,5
 232 59 232 59 189 -40 c 0,6,7
 181 -58 181 -58 169 -81 c 0,8,9
 107 -198 107 -198 61 -177 c 0,10,11
 56 -175 56 -175 52 -171 c 0,12,13
 30 -154 30 -154 56 -121 c 2,14,-1
 92 -79 l 2,15,16
 103 -63 103 -63 106 -48 c 0,17,18
 111 -20 111 -20 88 36 c 0,19,20
 69 85 69 85 80 108 c 0,21,22
 84 116 84 116 91 123 c 0,0,1
77 295 m 0,23,24
 60 325 60 325 68 351 c 0,25,26
 72 364 72 364 83 373 c 0,27,28
 110 396 110 396 143 388 c 0,29,30
 162 383 162 383 173 367 c 0,31,32
 197 332 197 332 174 293 c 0,33,34
 162 271 162 271 140 262 c 0,35,36
 115 251 115 251 91 276 c 0,37,38
 83 284 83 284 77 295 c 0,23,24
EndSplineSet
EndChar
StartChar: less
Encoding: 60 60 31
Width: 340
GlyphClass: 2
Flags: W
Fore
313 648 m 0,0,1
 331 687 331 687 282 648 c 0,2,3
 254 626 254 626 136 512 c 2,4,-1
 60 447 l 2,5,6
 34 420 34 420 29 390 c 2,7,-1
 28 381 l 2,8,9
 24 320 24 320 81 264 c 0,10,11
 95 251 95 251 136 216 c 0,12,13
 238 129 238 129 281 120 c 0,14,15
 301 115 301 115 298 138 c 0,16,17
 290 180 290 180 251 226 c 0,18,19
 222 260 222 260 211 276 c 0,20,21
 203 288 203 288 169 322 c 0,22,23
 140 350 140 350 139 378 c 0,24,25
 138 414 138 414 173 453 c 0,26,27
 208 491 208 491 217 505 c 0,28,29
 229 523 229 523 251 544 c 0,30,31
 275 566 275 566 313 648 c 0,0,1
EndSplineSet
EndChar
StartChar: question
Encoding: 63 63 34
Width: 350
GlyphClass: 2
Flags: W
Fore
127 45 m 0,0,1
 110 75 110 75 118 101 c 0,2,3
 122 114 122 114 133 123 c 0,4,5
 160 146 160 146 193 138 c 0,6,7
 212 133 212 133 223 117 c 0,8,9
 247 82 247 82 224 43 c 0,10,11
 212 21 212 21 190 12 c 0,12,13
 165 1 165 1 141 26 c 0,14,15
 133 34 133 34 127 45 c 0,0,1
18 549 m 0,16,17
 37 523 37 523 71 524 c 0,18,19
 96 525 96 525 105 543 c 0,20,21
 113 557 113 557 116 608 c 0,22,23
 119 656 119 656 144 672 c 0,24,25
 177 693 177 693 211 680 c 0,26,27
 230 673 230 673 243 657 c 0,28,29
 287 604 287 604 265 520 c 2,30,-1
 228 405 l 2,31,32
 216 362 216 362 173 301 c 0,33,34
 132 245 132 245 120 201 c 0,35,36
 115 180 115 180 144 177 c 0,37,38
 182 174 182 174 216 195 c 0,39,40
 259 223 259 223 270 287 c 2,41,-1
 283 373 l 2,42,43
 284 379 284 379 285 384 c 2,44,-1
 331 538 l 2,45,46
 348 609 348 609 338 678 c 0,47,48
 330 744 330 744 256 768 c 0,49,50
 222 779 222 779 183 777 c 0,51,52
 128 774 128 774 85 717 c 2,53,-1
 54 672 l 2,54,55
 20 620 20 620 16 612 c 0,56,57
 0 576 0 576 18 549 c 0,16,17
EndSplineSet
EndChar
StartChar: at
Encoding: 64 64 35
Width: 706
GlyphClass: 2
Flags: W
Fore
415 483 m 0,0,1
 465 491 465 491 503 453 c 2,2,-1
 517 435 l 2,3,4
 531 412 531 412 529 387 c 0,5,6
 525 345 525 345 470 335 c 0,7,8
 453 332 453 332 436 333 c 0,9,10
 379 337 379 337 363 382 c 1,11,12
 362 387 362 387 361 393 c 0,13,14
 353 433 353 433 377 461 c 0,15,16
 392 479 392 479 415 483 c 0,0,1
376 585 m 0,17,18
 307 563 307 563 284 527 c 1,19,-1
 274 504 l 2,20,21
 241 410 241 410 267 338 c 0,22,23
 278 306 278 306 301 282 c 0,24,25
 315 267 315 267 334 255 c 0,26,27
 420 202 420 202 516 238 c 0,28,29
 580 263 580 263 622 321 c 0,30,31
 696 427 696 427 675 549 c 0,32,33
 656 653 656 653 574 720 c 0,34,35
 466 807 466 807 328 778 c 0,36,37
 226 757 226 757 148 678 c 0,38,39
 25 555 25 555 27 391 c 0,40,41
 28 272 28 272 100 165 c 0,42,43
 198 18 198 18 374 6 c 0,44,45
 454 1 454 1 541 27 c 0,46,47
 607 47 607 47 630 91 c 0,48,49
 642 115 642 115 634 141 c 0,50,51
 613 205 613 205 530 207 c 2,52,-1
 466 203 l 2,53,54
 365 193 365 193 329 198 c 0,55,56
 276 207 276 207 247 243 c 0,57,58
 160 351 160 351 181 469 c 0,59,60
 192 530 192 530 232 582 c 0,61,62
 293 662 293 662 387 666 c 0,63,64
 446 669 446 669 499 639 c 0,65,66
 526 623 526 623 526 596 c 1,67,-1
 523 582 l 2,68,69
 522 579 522 579 520 576 c 0,70,71
 501 552 501 552 460 568 c 0,72,73
 412 586 412 586 400 587 c 0,74,75
 387 589 387 589 376 585 c 0,17,18
EndSplineSet
EndChar
StartChar: A
Encoding: 65 65 36
Width: 793
GlyphClass: 2
Flags: W
Fore
399 387 m 24,0,1
 384.781 441.274 384.781 441.274 414 462 c 4,2,3
 479.783 507.514 479.783 507.514 492 492 c 0,4,5
 518.706 458.088 518.706 458.088 519 453 c 0,6,7
 524.542 402.01 524.542 402.01 502 376 c 2,8,-1
 489 361 l 1,9,10
 410.276 343.349 410.276 343.349 399 387 c 24,0,1
426 243 m 0,11,12
 485 243 485 243 526 179 c 2,13,-1
 581 83 l 2,14,15
 617 29 617 29 666 18 c 0,16,17
 710 8 710 8 739 17 c 0,18,19
 765 25 765 25 765 48 c 0,20,21
 765 199 765 199 692 356 c 0,22,23
 667 409 667 409 603 525 c 0,24,25
 544 633 544 633 525 658 c 0,26,27
 481 720 481 720 412 762 c 0,28,29
 340 806 340 806 269 795 c 0,30,31
 212 786 212 786 190 738 c 0,32,33
 178 711 178 711 212 684 c 0,34,35
 253 653 253 653 254 652 c 0,36,37
 271 636 271 636 274 618 c 0,38,39
 306 471 306 471 257 332 c 0,40,41
 241 287 241 287 213 229 c 0,42,43
 204 211 204 211 193 189 c 0,44,45
 178 158 178 158 116 125 c 0,46,47
 64 97 64 97 53 81 c 0,48,49
 38 62 38 62 49 36 c 0,50,51
 71 -14 71 -14 164 19 c 0,52,53
 175 23 175 23 208 36 c 0,54,55
 256 55 256 55 295 122 c 256,56,57
 334 189 334 189 339 195 c 0,58,59
 374 243 374 243 426 243 c 0,11,12
EndSplineSet
EndChar
StartChar: B
Encoding: 66 66 37
Width: 796
GlyphClass: 2
Flags: W
Fore
402 357 m 0,0,1
 450 385 450 385 498 373 c 0,2,3
 522 367 522 367 546 351 c 0,4,5
 596 317 596 317 587 269 c 0,6,7
 585 261 l 0,8,9
 568 206 568 206 489 190 c 0,10,11
 478 188 478 188 465 186 c 0,12,13
 379 173 379 173 349 197 c 0,14,15
 337 207 337 207 330 222 c 0,16,17
 306 276 306 276 362 328 c 0,18,19
 379 344 379 344 402 357 c 0,0,1
594 636 m 1,20,21
 612 563 612 563 570 528 c 0,22,23
 551 511 551 511 516 498 c 1,24,25
 411 498 411 498 374 522 c 0,26,27
 348 540 348 540 342 573 c 0,28,29
 331 636 331 636 404 674 c 0,30,31
 436 691 436 691 474 696 c 0,32,33
 523 703 523 703 573 657 c 0,34,35
 580 650 580 650 594 636 c 1,20,21
42 757 m 0,36,37
 29 718 29 718 76 696 c 2,38,-1
 165 662 l 2,39,40
 203 643 203 643 216 615 c 0,41,42
 286 455 286 455 249 311 c 0,43,44
 231 242 231 242 189 168 c 0,45,46
 173 140 173 140 108 124 c 0,47,48
 52 110 52 110 41 98 c 256,49,50
 30 86 30 86 36 66 c 0,51,52
 60 -10 60 -10 145 1 c 0,53,54
 178 5 178 5 289 42 c 0,55,56
 411 83 411 83 477 75 c 0,57,58
 514 71 514 71 580 34 c 0,59,60
 639 1 639 1 674 5 c 0,61,62
 691 7 691 7 708 15 c 0,63,64
 766 43 766 43 773 132 c 0,65,66
 774 145 774 145 774 162 c 0,67,68
 775 221 775 221 718 306 c 0,69,70
 673 374 673 374 666 394 c 0,71,72
 658 417 658 417 663 435 c 0,73,74
 675 473 675 473 721 540 c 0,75,76
 761 598 761 598 761 635 c 0,77,78
 762 656 762 656 753 678 c 0,79,80
 711 781 711 781 591 799 c 0,81,82
 550 805 550 805 504 799 c 2,83,-1
 324 770 l 2,84,85
 306 768 l 0,86,87
 268 764 268 764 179 788 c 0,88,89
 101 808 101 808 72 795 c 0,90,91
 51 785 51 785 42 757 c 0,36,37
EndSplineSet
EndChar
StartChar: C
Encoding: 67 67 38
Width: 768
GlyphClass: 2
Flags: W
Fore
195 465 m 0,0,1
 193 547 193 547 271 611 c 0,2,3
 351 676 351 676 453 672 c 0,4,5
 495 670 495 670 525 610 c 2,6,-1
 560 536 l 2,7,8
 587 492 587 492 626 502 c 0,9,10
 679 516 679 516 693 579 c 0,11,12
 704 633 704 633 678 681 c 0,13,14
 614 797 614 797 439 783 c 0,15,16
 401 780 401 780 356 771 c 0,17,18
 178 735 178 735 97 601 c 2,19,-1
 71 551 l 1,20,-1
 65 537 l 2,21,22
 1 381 1 381 44 244 c 0,23,24
 65 176 65 176 113 108 c 0,25,26
 182 9 182 9 305 1 c 0,27,28
 318 0 318 0 332 0 c 2,29,-1
 475 0 l 2,30,31
 591 6 591 6 677 69 c 0,32,33
 730 108 730 108 740 191 c 0,34,35
 751 274 751 274 709 318 c 1,36,-1
 691 332 l 2,37,38
 679 339 679 339 665 342 c 0,39,40
 628 350 628 350 618 303 c 2,41,-1
 605 206 l 2,42,43
 595 161 595 161 567 147 c 0,44,45
 470 97 470 97 372 137 c 0,46,47
 328 154 328 154 288 189 c 0,48,49
 257 215 257 215 216 363 c 0,50,51
 196 437 196 437 195 465 c 0,0,1
EndSplineSet
EndChar
StartChar: D
Encoding: 68 68 39
Width: 922
GlyphClass: 2
Flags: W
Fore
565 432.5 m 5,1,2
 575 440 l 1,24,-1
 585 440 l 2,23,-1
 605.574 440 605.574 440 630 437.5 c 0,21,22
 662.692 434.154 662.692 434.154 687.5 402.5 c 0,19,20
 700.825 385.424 700.825 385.424 709.891 374.153 c 128,-1,18
 718.958 362.882 718.958 362.882 723.448 346.754 c 128,-1,17
 727.938 330.626 727.938 330.626 727.5 305 c 0,15,16
 726.997 275.578 726.997 275.578 718.859 254.49 c 128,-1,14
 710.721 233.401 710.721 233.401 698.008 223.404 c 128,-1,13
 685.294 213.407 685.294 213.407 673.54 209.204 c 128,-1,12
 661.786 205 661.786 205 650 205 c 0,10,11
 623 205 623 205 608 206 c 128,-1,9
 593 207 593 207 568.5 214 c 128,-1,8
 544 221 544 221 530.5 235 c 128,-1,7
 517 249 517 249 506 277 c 128,-1,6
 495 305 495 305 495 345 c 0,4,5
 495 356.508 495 356.508 511.714 385.862 c 0,6,7
 539.663 434.946 539.663 434.946 565 432.5 c 5,1,2
40 707.5 m 0,20,21
 147.275 585.896 147.275 585.896 156 585 c 0,25,26
 199 452 199 452 193 362 c 0,27,28
 190 317 190 317 177 264 c 0,29,30
 166 221 166 221 103 168 c 0,31,32
 50 124 50 124 39 109 c 0,33,34
 11 73 11 73 35 36 c 0,35,36
 64.3797 -9.40506 64.3797 -9.40506 138 9 c 0,37,38
 146 11 146 11 227 48 c 0,39,40
 293 78 293 78 336 78 c 0,41,42
 401 78 401 78 505 37 c 0,43,44
 598 0 598 0 641 -3 c 0,45,46
 695 -6 695 -6 743 24 c 0,47,48
 913 128 913 128 896 380 c 0,49,50
 894 408 894 408 890 438 c 0,51,52
 860.205 659.92 860.205 659.92 711 746 c 0,53,54
 685 761 685 761 656 774 c 0,55,56
 599.62 798.728 599.62 798.728 523 772 c 2,57,-1
 437 742 l 2,58,59
 411.99 733.276 411.99 733.276 375 732 c 0,60,61
 326 730 326 730 229 768 c 0,62,63
 132.545 806.35 132.545 806.35 112 798 c 0,64,65
 0 757.5 0 757.5 40 707.5 c 0,20,21
EndSplineSet
EndChar
StartChar: E
Encoding: 69 69 40
Width: 755
GlyphClass: 2
Flags: W
Fore
47 730 m 0,0,1
 8 702 8 702 44 652 c 2,2,-1
 113 567 l 2,3,4
 134 536 134 536 140 510 c 0,5,6
 169 369 169 369 159 275 c 0,7,8
 154 234 154 234 143 186 c 0,9,10
 137 160 137 160 96 120 c 0,11,12
 61 85 61 85 60 66 c 0,13,14
 60 54 60 54 68 42 c 0,15,16
 105 -13 105 -13 182 9 c 0,17,18
 192 12 192 12 280 47 c 0,19,20
 358 79 358 79 408 75 c 0,21,22
 449 72 449 72 517 36 c 0,23,24
 579 4 579 4 615 6 c 0,25,26
 634 7 634 7 653 15 c 0,27,28
 700 35 700 35 710 75 c 0,29,30
 714 93 714 93 708 111 c 0,31,32
 674 208 674 208 529 208 c 0,33,34
 502 208 502 208 474 204 c 0,35,36
 463 202 463 202 402 185 c 0,37,38
 347 169 347 169 315 195 c 0,39,40
 271 232 271 232 275 288 c 0,41,42
 277 321 277 321 299 345 c 0,43,44
 328 377 328 377 390 355 c 2,45,-1
 459 329 l 2,46,47
 504 317 504 317 533 339 c 0,48,49
 575 372 575 372 576 418 c 0,50,51
 576 443 576 443 560 462 c 0,52,53
 530 498 530 498 466 474 c 2,54,-1
 388 442 l 2,55,56
 336 426 336 426 305 450 c 0,57,58
 253 490 253 490 248 548 c 0,59,60
 245 587 245 587 269 616 c 0,61,62
 314 670 314 670 405 640 c 2,63,-1
 544 585 l 2,64,65
 634 556 634 556 683 603 c 0,66,67
 725 643 725 643 729 704 c 0,68,69
 732 766 732 766 686 787 c 0,70,71
 672 793 672 793 574 774 c 0,72,73
 457 751 457 751 386 748 c 0,74,75
 351 747 351 747 257 764 c 0,76,77
 160 782 160 782 102 760 c 0,78,79
 74 749 74 749 47 730 c 0,0,1
EndSplineSet
EndChar
StartChar: F
Encoding: 70 70 41
Width: 755
GlyphClass: 2
Flags: W
Fore
306 111 m 0,0,1
 304 128 304 128 285 212 c 0,2,3
 268 288 268 288 292 337 c 0,4,5
 300 351 l 0,6,7
 323 388 323 388 384 376 c 2,8,-1
 462 360 l 2,9,10
 507 355 507 355 533 378 c 0,11,12
 579 420 579 420 575 466 c 0,13,14
 573 486 573 486 560 501 c 0,15,16
 530 537 530 537 466 513 c 2,17,-1
 388 481 l 2,18,19
 337 465 337 465 305 489 c 0,20,21
 260 522 260 522 249 571 c 0,22,23
 239 614 239 614 269 636 c 0,24,25
 323 677 323 677 417 640 c 2,26,-1
 538 588 l 2,27,28
 630 555 630 555 683 603 c 0,29,30
 725 641 725 641 729 702 c 0,31,32
 733 766 733 766 686 787 c 0,33,34
 672 793 672 793 574 774 c 0,35,36
 457 751 457 751 386 748 c 0,37,38
 351 747 351 747 257 764 c 0,39,40
 160 782 160 782 102 760 c 0,41,42
 74 749 74 749 47 730 c 0,43,44
 8 702 8 702 44 652 c 2,45,-1
 113 567 l 2,46,47
 134 536 134 536 140 510 c 0,48,49
 155 439 155 439 146 329 c 0,50,51
 139 240 139 240 143 186 c 0,52,53
 144 168 144 168 134 94 c 0,54,55
 125 28 125 28 150 16 c 0,56,57
 157 12 157 12 168 12 c 0,58,59
 302 8 302 8 314 45 c 0,60,61
 318 55 318 55 309 95 c 0,62,63
 307 104 307 104 306 111 c 0,0,1
EndSplineSet
KernsSLIFO: 93 -150 0 0 92 -150 0 0 91 -150 0 0 90 -150 0 0 89 -150 0 0 88 -150 0 0 87 -150 0 0 86 -170 0 0 85 -150 0 0 84 -150 0 0 83 -150 0 0 82 -150 0 0 81 -150 0 0 80 -150 0 0 77 -130 0 0 76 -130 0 0 74 -150 0 0 72 -150 0 0 71 -150 0 0 70 -150 0 0 68 -150 0 0 32 -100 0 0 30 -150 0 0 29 -150 0 0 18 -150 0 0 17 -250 0 0 16 -150 0 0 15 -250 0 0
EndChar
StartChar: G
Encoding: 71 71 42
Width: 768
GlyphClass: 2
Flags: W
Fore
201 468 m 0,0,1
 209 552 209 552 287 614 c 0,2,3
 366 676 366 676 461 670 c 0,4,5
 502 667 502 667 531 606 c 2,6,-1
 563 536 l 2,7,8
 588 492 588 492 626 502 c 0,9,10
 680 517 680 517 693 582 c 0,11,12
 706 642 706 642 675 693 c 0,13,14
 609 803 609 803 439 785 c 0,15,16
 402 781 402 781 356 771 c 0,17,18
 182 732 182 732 103 610 c 0,19,20
 81 577 81 577 65 537 c 0,21,22
 1 381 1 381 44 244 c 0,23,24
 65 176 65 176 113 108 c 0,25,26
 182 9 182 9 305 1 c 0,27,28
 318 0 318 0 332 0 c 2,29,-1
 475 0 l 2,30,31
 591 6 591 6 677 69 c 0,32,33
 709 92 709 92 720 166 c 0,34,35
 729 226 729 226 714 273 c 256,36,37
 699 320 699 320 634 352 c 0,38,39
 630 354 l 0,40,41
 589 373 589 373 509 382 c 0,42,43
 428 391 428 391 426 366 c 2,44,-1
 422 327 l 1,45,-1
 426 310 l 1,46,-1
 433 300 l 2,47,48
 435 298 435 298 438 297 c 0,49,50
 458 287 458 287 542 270 c 0,51,52
 605 257 605 257 604 238 c 0,53,54
 604 236 604 236 603 234 c 0,55,56
 591 197 591 197 566 183 c 0,57,58
 475 133 475 133 386 152 c 0,59,60
 344 161 344 161 300 186 c 0,61,62
 253 212 253 212 219 337 c 0,63,64
 197 421 197 421 201 468 c 0,0,1
EndSplineSet
EndChar
StartChar: H
Encoding: 72 72 43
Width: 720
GlyphClass: 2
Flags: W
Fore
185 429 m 0,0,1
 180 536 180 536 146 607 c 0,2,3
 137 626 137 626 125 647 c 0,4,5
 114 666 114 666 68 689 c 0,6,7
 30 708 30 708 27 724 c 0,8,9
 25 733 25 733 29 743 c 0,10,11
 54 804 54 804 139 791 c 0,12,13
 199 782 199 782 248 743 c 0,14,15
 285 714 285 714 279 644 c 0,16,17
 274 570 274 570 274 569 c 0,18,19
 275 519 275 519 308 495 c 0,20,21
 340 472 340 472 378 485 c 0,22,23
 395 491 395 491 410 504 c 0,24,25
 444 535 444 535 436 603 c 0,26,27
 429 672 429 672 429 683 c 0,28,29
 431 723 431 723 458 746 c 0,30,31
 512 792 512 792 573 794 c 0,32,33
 625 795 625 795 647 755 c 0,34,35
 660 732 660 732 629 707 c 0,36,37
 591 678 591 678 589 675 c 2,38,39
 579 666 579 666 575 656 c 0,40,41
 529 557 529 557 523 476 c 0,42,43
 521 456 521 456 521 432 c 0,44,45
 520 318 520 318 540 249 c 0,46,47
 555 201 555 201 584 147 c 0,48,49
 595 127 595 127 640 104 c 0,50,51
 678 86 678 86 682 71 c 0,52,53
 685 62 685 62 680 51 c 0,54,55
 655 -9 655 -9 571 3 c 0,56,57
 510 12 510 12 461 51 c 0,58,59
 423 81 423 81 429 154 c 2,60,-1
 436 231 l 2,61,62
 436 284 436 284 401 309 c 0,63,64
 369 332 369 332 331 319 c 0,65,66
 314 313 314 313 299 300 c 0,67,68
 264 268 264 268 272 198 c 0,69,70
 281 126 281 126 281 119 c 0,71,72
 280 73 280 73 251 48 c 0,73,74
 198 2 198 2 137 0 c 0,75,76
 84 -2 84 -2 62 39 c 0,77,78
 49 62 49 62 81 87 c 0,79,80
 118 115 118 115 123 121 c 0,81,82
 130 129 130 129 134 138 c 0,83,84
 183 254 183 254 186 361 c 0,85,86
 187 391 187 391 185 429 c 0,0,1
EndSplineSet
EndChar
StartChar: I
Encoding: 73 73 44
Width: 591
GlyphClass: 2
Flags: W
Fore
236 759 m 1,0,-1
 128 758 l 2,1,2
 48 752 48 752 38 696 c 0,3,4
 31 657 31 657 80 638 c 2,5,-1
 164 610 l 2,6,7
 205 592 205 592 215 561 c 0,8,9
 254 438 254 438 237 332 c 2,10,-1
 219 246 l 1,11,12
 258 401 258 401 200 171 c 0,13,14
 193 143 193 143 139 148 c 0,15,16
 83 152 83 152 72 149 c 0,17,18
 57 145 57 145 54 131 c 2,19,-1
 53 126 l 1,20,21
 50 56 50 56 143 36 c 0,22,23
 175 30 175 30 292 24 c 0,24,25
 296 24 296 24 299 24 c 0,26,27
 407 18 407 18 428 20 c 0,28,29
 520 27 520 27 530 93 c 0,30,31
 535 124 535 124 492 136 c 2,32,-1
 425 153 l 2,33,34
 392 164 392 164 386 189 c 0,35,36
 357 310 357 310 357 415 c 0,37,38
 357 462 357 462 362 564 c 0,39,40
 364 601 364 601 425 615 c 2,41,-1
 504 631 l 2,42,43
 547 644 547 644 542 678 c 0,44,45
 530 758 530 758 424 766 c 0,46,47
 394 768 394 768 273 761 c 2,48,-1
 236 759 l 1,0,-1
EndSplineSet
EndChar
StartChar: J
Encoding: 74 74 45
Width: 591
GlyphClass: 2
Flags: W
Fore
325 105 m 0,0,1
 369 241 369 241 384 497 c 0,2,3
 386 526 386 526 387 564 c 0,4,5
 389 601 389 601 450 615 c 2,6,-1
 529 631 l 2,7,8
 573 644 573 644 567 678 c 0,9,10
 555 755 555 755 455 764 c 2,11,-1
 391 765 l 1,12,-1
 261 759 l 1,13,-1
 129 764 l 2,14,15
 40 761 40 761 26 703 c 0,16,17
 25 700 25 700 24 696 c 0,18,19
 17 655 17 655 69 637 c 2,20,-1
 166 612 l 2,21,22
 215 595 215 595 225 561 c 0,23,24
 270 420 270 420 250 287 c 0,25,26
 243 235 243 235 220 144 c 0,27,28
 213 114 213 114 122 203 c 2,29,-1
 73 252 l 2,30,31
 49 275 49 275 32 233 c 0,32,33
 17 195 17 195 25 168 c 0,34,35
 68 27 68 27 159 5 c 0,36,37
 225 -11 225 -11 281 39 c 0,38,39
 313 67 313 67 325 105 c 0,0,1
EndSplineSet
EndChar
StartChar: K
Encoding: 75 75 46
Width: 692
GlyphClass: 2
Flags: W
Fore
635 18 m 0,0,1
 687 61 687 61 637 127 c 0,2,3
 623 145 623 145 555 213 c 0,4,5
 501 268 501 268 481 304 c 0,6,7
 473 318 473 318 438 352 c 0,8,9
 406 384 406 384 415 407 c 0,10,11
 416 411 416 411 418 414 c 0,12,13
 440 451 440 451 518 535 c 0,14,15
 611 633 611 633 644 699 c 0,16,17
 653 717 653 717 660 736 c 0,18,19
 666 753 666 753 657 768 c 0,20,21
 653 773 653 773 648 777 c 1,22,-1
 641 780 l 2,23,24
 573 800 573 800 522 719 c 2,25,-1
 492 662 l 2,26,27
 447 568 447 568 433 547 c 0,28,29
 386 478 386 478 324 495 c 0,30,31
 279 507 279 507 279 569 c 2,32,-1
 282 667 l 2,33,34
 279 720 279 720 248 743 c 0,35,36
 183 791 183 791 114 792 c 0,37,38
 50 793 50 793 29 743 c 0,39,40
 18 717 18 717 54 697 c 2,41,-1
 102 670 l 2,42,43
 116 661 116 661 125 647 c 0,44,45
 173 565 173 565 182 473 c 0,46,47
 184 454 184 454 185 429 c 0,48,49
 190 314 190 314 167 230 c 0,50,51
 156 189 156 189 134 138 c 0,52,53
 126 120 126 120 90 93 c 0,54,55
 58 70 58 70 58 54 c 0,56,57
 58 47 58 47 62 39 c 0,58,59
 91 -15 91 -15 168 5 c 0,60,61
 214 16 214 16 251 48 c 0,62,63
 286 78 286 78 273 156 c 0,64,65
 262 230 262 230 261 237 c 0,66,67
 260 286 260 286 299 300 c 0,68,69
 366 324 366 324 429 227 c 2,70,-1
 467 160 l 2,71,72
 519 61 519 61 539 36 c 0,73,74
 586 -22 586 -22 635 18 c 0,0,1
EndSplineSet
EndChar
StartChar: L
Encoding: 76 76 47
Width: 640
GlyphClass: 2
Flags: W
Fore
26 748 m 0,0,1
 -7 706 -7 706 23 644 c 2,2,-1
 67 558 l 2,3,4
 79 531 79 531 82 507 c 2,5,-1
 106 344 l 2,6,7
 114 264 114 264 96 186 c 0,8,9
 90 158 90 158 46 117 c 0,10,11
 10 82 10 82 7 64 c 0,12,13
 5 50 5 50 15 36 c 0,14,15
 50 -13 50 -13 118 12 c 2,16,-1
 240 66 l 2,17,18
 282 82 282 82 315 81 c 0,19,20
 360 80 360 80 436 39 c 0,21,22
 503 3 503 3 534 3 c 0,23,24
 563 3 563 3 589 24 c 0,25,26
 635 62 635 62 620 127 c 0,27,28
 611 162 611 162 586 189 c 0,29,30
 547 231 547 231 477 219 c 2,31,-1
 383 200 l 2,32,33
 325 193 325 193 282 216 c 0,34,35
 210 254 210 254 205 345 c 0,36,37
 204 363 204 363 210 466 c 0,38,39
 212 506 212 506 210 534 c 0,40,41
 208 569 208 569 236 635 c 0,42,43
 260 695 260 695 251 724 c 0,44,45
 246 738 246 738 234 751 c 0,46,47
 189 801 189 801 119 796 c 0,48,49
 60 791 60 791 26 748 c 0,0,1
EndSplineSet
EndChar
StartChar: M
Encoding: 77 77 48
Width: 842
GlyphClass: 2
Flags: W
Fore
410 121 m 0,0,1
 356 123 356 123 339 228 c 2,2,-1
 322 361 l 2,3,4
 311 414 311 414 282 399 c 0,5,6
 277 397 277 397 272 393 c 0,7,8
 258 383 258 383 271 307 c 0,9,10
 290 188 290 188 283 137 c 0,11,12
 275 80 275 80 242 50 c 0,13,14
 189 2 189 2 122 3 c 0,15,16
 60 3 60 3 32 50 c 0,17,18
 11 85 11 85 48 125 c 2,19,-1
 98 176 l 2,20,21
 119 201 119 201 124 225 c 0,22,23
 152 348 152 348 130 473 c 0,24,25
 124 510 124 510 110 570 c 0,26,27
 102 600 102 600 60 648 c 0,28,29
 22 690 22 690 21 713 c 0,30,31
 21 729 21 729 32 744 c 0,32,33
 69 798 69 798 171 750 c 0,34,35
 183 744 183 744 200 735 c 0,36,37
 263 701 263 701 320 577 c 2,38,-1
 367 477 l 2,39,40
 396 424 396 424 422 435 c 1,41,42
 451 424 451 424 481 484 c 2,43,-1
 543 618 l 2,44,45
 588 706 588 706 642 735 c 0,46,47
 753 795 753 795 797 759 c 2,48,-1
 810 745 l 1,49,-1
 810 744 l 1,50,51
 833 711 833 711 799 668 c 2,52,-1
 753 613 l 2,53,54
 737 591 737 591 732 570 c 0,55,56
 698 423 698 423 702 338 c 0,57,58
 704 285 704 285 718 225 c 0,59,60
 725 193 725 193 772 147 c 0,61,62
 811 109 811 109 817 90 c 0,63,64
 823 70 823 70 810 50 c 0,65,66
 777 -6 777 -6 700 4 c 0,67,68
 643 11 643 11 600 50 c 0,69,70
 542 103 542 103 563 251 c 2,71,-1
 578 358 l 2,72,73
 580 386 580 386 570 393 c 0,74,75
 532 422 532 422 515 364 c 2,76,-1
 502 301 l 2,77,78
 485 194 485 194 467 161 c 0,79,80
 446 120 446 120 410 121 c 0,0,1
EndSplineSet
EndChar
StartChar: N
Encoding: 78 78 49
Width: 788
GlyphClass: 2
Flags: W
Fore
49 744 m 0,0,1
 26 711 26 711 61 668 c 2,2,-1
 106 613 l 2,3,4
 122 591 122 591 127 570 c 0,5,6
 162 423 162 423 158 338 c 0,7,8
 156 285 156 285 142 225 c 0,9,10
 135 193 135 193 88 147 c 0,11,12
 49 109 49 109 43 90 c 0,13,14
 37 70 37 70 49 50 c 0,15,16
 83 -6 83 -6 160 4 c 0,17,18
 217 11 217 11 259 50 c 0,19,20
 317 103 317 103 297 251 c 2,21,-1
 281 358 l 2,22,23
 280 386 280 386 289 393 c 0,24,25
 372 455 372 455 461 345 c 0,26,27
 530 260 530 260 564 134 c 0,28,29
 565 127 565 127 567 121 c 0,30,31
 570 107 570 107 549 80 c 0,32,33
 531 57 531 57 541 44 c 0,34,35
 574 3 574 3 644 1 c 0,36,37
 711 0 711 0 738 38 c 0,38,39
 747 51 747 51 748 68 c 0,40,41
 763 278 763 278 753 492 c 0,42,43
 747 618 747 618 733 741 c 0,44,45
 729 774 729 774 681 783 c 0,46,47
 632 792 632 792 601 768 c 0,48,49
 589 758 589 758 586 744 c 0,50,51
 577 697 577 697 595 575 c 0,52,53
 609 475 609 475 596 450 c 0,54,55
 590 439 590 439 580 435 c 0,56,57
 551 424 551 424 489 491 c 2,58,-1
 379 614 l 2,59,60
 291 706 291 706 217 735 c 0,61,62
 142 764 142 764 134 766 c 0,63,64
 75 782 75 782 49 744 c 0,0,1
EndSplineSet
EndChar
StartChar: O
Encoding: 79 79 50
Width: 814
GlyphClass: 2
Flags: W
Fore
495 171 m 24,0,1
 466.205 208.451 466.205 208.451 489 243 c 0,2,3
 509.027 272.084 509.027 272.084 534 267 c 0,4,5
 577.606 258.123 577.606 258.123 579 240 c 2,6,-1
 582 201 l 0,7,8
 584.744 144.681 584.744 144.681 543 147 c 0,9,10
 510.518 148.673 510.518 148.673 495 171 c 24,0,1
429 789 m 0,11,12
 279 795 279 795 162 702 c 0,13,14
 47 611 47 611 29 471 c 0,15,16
 26 451 26 451 26 429 c 0,17,18
 24 272 24 272 133 152 c 0,19,20
 236 39 236 39 386 17 c 0,21,22
 428 11 428 11 471 14 c 0,23,24
 616 23 616 23 709 139 c 0,25,26
 799 250 799 250 795 401 c 0,27,28
 795 403 795 403 795 406 c 0,29,30
 789 565 789 565 684 675 c 0,31,32
 580 783 580 783 429 789 c 0,11,12
EndSplineSet
EndChar
StartChar: P
Encoding: 80 80 51
Width: 615
GlyphClass: 2
Flags: W
Fore
438 504 m 0,0,-1
 474 498 l 1,1,2
 478 493 478 493 484 490.5 c 128,-1,3
 490 488 490 488 492.5 484 c 128,-1,4
 495 480 495 480 495 468 c 0,5,6
 495 406 495 406 435 411 c 0,7,8
 399 414 399 414 384 423 c 128,-1,9
 369 432 369 432 369 459 c 0,10,11
 369 485 369 485 379 496 c 128,-1,12
 389 507 389 507 411 507 c 0,13,14
 438.021 507 438.021 507 438 504 c 0,0,-1
39 675 m 0,16,17
 44 652 44 652 73 577 c 0,18,19
 87 540 87 540 93 507 c 0,20,21
 110 406 110 406 104 329 c 2,22,-1
 99 288 l 2,23,24
 94 252 94 252 56 191 c 0,25,26
 21 136 21 136 22 105 c 0,27,28
 23 87 23 87 33 69 c 0,29,30
 61 18 61 18 121 14 c 0,31,32
 153 12 153 12 182 27 c 0,33,34
 233 53 233 53 239 128 c 2,35,-1
 244 230 l 2,36,37
 251 287 251 287 284 318 c 0,38,39
 318 351 318 351 393 351 c 0,40,41
 464 352 464 352 484 357 c 0,42,43
 517 367 517 367 536 396 c 0,44,45
 594 486 594 486 559 582 c 0,46,47
 541 631 541 631 500 669 c 0,48,49
 405 756 405 756 318 777 c 0,50,51
 280 786 280 786 230 787 c 0,52,53
 206 787 206 787 176 786 c 0,54,55
 116 783 116 783 71 749 c 0,56,57
 59 739 59 739 51 729 c 1,58,-1
 41 710 l 1,59,60
 35 693 35 693 39 675 c 0,16,17
EndSplineSet
KernsSLIFO: 82 -70 0 0 74 -70 0 0 72 -70 0 0 70 -70 0 0 68 -70 0 0 30 -150 0 0 29 -150 0 0 18 -150 0 0 17 -250 0 0 15 -250 0 0
EndChar
StartChar: Q
Encoding: 81 81 52
Width: 847
GlyphClass: 2
Flags: W
Fore
462 528 m 0,0,1
 534.267 532.114 534.267 532.114 564 513 c 2,2,-1
 606 486 l 2,3,4
 649.695 457.91 649.695 457.91 651 450 c 0,5,6
 667.699 348.748 667.699 348.748 659 327 c 0,7,8
 651 307 651 307 643 298 c 0,9,10
 639 294 639 294 635 292 c 0,11,12
 619 285 619 285 591 315 c 0,13,14
 562.735 345.088 562.735 345.088 545 351 c 0,15,16
 539 353 539 353 533 352 c 0,17,18
 506.088 347.36 506.088 347.36 485 321 c 0,19,20
 473 306 473 306 478 294 c 0,21,22
 485 278 485 278 525 250 c 0,23,24
 567 221 567 221 573 200 c 0,25,26
 574 197 574 197 574 195 c 0,27,28
 575.832 183.55 575.832 183.55 516 142 c 0,29,30
 484.08 119.833 484.08 119.833 423 129 c 0,31,32
 346.636 140.387 346.636 140.387 324 180 c 0,33,34
 289.826 236.957 289.826 236.957 282 276 c 0,35,36
 276.856 301.66 276.856 301.66 276 372 c 0,37,38
 275.08 413.754 275.08 413.754 339 483 c 4,39,40
 375 522 375 522 462 528 c 0,0,1
424 789 m 0,41,42
 274 795 274 795 158 702 c 0,43,44
 124 675 124 675 97 642 c 0,45,46
 22 548 22 548 21 429 c 0,47,48
 19 272 19 272 128 152 c 0,49,50
 232 39 232 39 381 17 c 0,51,52
 424 11 424 11 467 14 c 0,53,54
 584 21 584 21 670 102 c 0,55,56
 673 105 673 105 740 34 c 0,57,58
 761 13 761 13 763 12 c 0,59,60
 800 2 800 2 819 42 c 0,61,62
 831 69 831 69 823 93 c 0,63,64
 816 117 816 117 767 156 c 0,65,66
 733 183 733 183 736 192 c 1,67,68
 793 305 793 305 790 406 c 0,69,70
 784 565 784 565 679 675 c 2,71,-1
 645 706 l 2,72,73
 549 784 549 784 424 789 c 0,41,42
EndSplineSet
EndChar
StartChar: R
Encoding: 82 82 53
Width: 643
GlyphClass: 2
Flags: W
Fore
420 564 m 1,0,-1
 456 558 l 1,1,2
 475 546 475 546 482 537 c 128,-1,3
 489 528 489 528 488.5 519.5 c 128,-1,4
 488 511 488 511 489 498 c 0,5,6
 491.092 470.801 491.092 470.801 475 459 c 0,7,8
 460 448 460 448 435 453 c 1,9,10
 410 454 410 454 391 459.5 c 128,-1,11
 372 465 372 465 372 489 c 0,12,13
 372 509 372 509 383.5 530 c 0,14,15
 405.978 568.683 405.978 568.683 420 564 c 1,0,-1
39 675 m 0,16,17
 45 647 45 647 75 580 c 2,18,-1
 93 533 l 2,19,20
 97 520 97 520 99 507 c 0,21,22
 117 409 117 409 110 333 c 2,23,-1
 105 288 l 2,24,25
 100 251 100 251 59 191 c 0,26,27
 22 137 22 137 22 107 c 0,28,29
 22 88 22 88 33 69 c 0,30,31
 65 11 65 11 136 10 c 0,32,33
 175 8 175 8 210 27 c 0,34,35
 253 49 253 49 256 126 c 2,36,-1
 258 211 l 2,37,38
 265 269 265 269 309 279 c 0,39,40
 341 287 341 287 441 147 c 2,41,-1
 526 26 l 1,42,-1
 528 24 l 1,43,44
 553 7 553 7 587 29 c 0,45,46
 622 50 622 50 614 81 c 0,47,48
 612 87 612 87 609 93 c 0,49,50
 592 122 592 122 513 187 c 0,51,52
 434 253 434 253 417 282 c 0,53,54
 404 307 404 307 414 324 c 0,55,56
 425 342 425 342 516 375 c 0,57,58
 560 390 560 390 564 396 c 0,59,60
 622 486 622 486 587 582 c 0,61,62
 569 631 569 631 528 669 c 0,63,64
 433 756 433 756 346 777 c 0,65,66
 308 786 308 786 258 787 c 0,67,68
 234 787 234 787 204 786 c 0,69,70
 143 783 143 783 87 751 c 0,71,72
 29 718 29 718 39 675 c 0,16,17
EndSplineSet
EndChar
StartChar: S
Encoding: 83 83 54
Width: 674
GlyphClass: 2
Flags: W
Fore
124 237 m 0,0,1
 71 250 71 250 59 250 c 0,2,3
 37 249 37 249 25 231 c 0,4,5
 -8 180 -8 180 39 120 c 0,6,7
 57 98 57 98 82 82 c 0,8,9
 250 -26 250 -26 424 17 c 0,10,11
 524 41 524 41 607 114 c 0,12,13
 639 142 639 142 634 191 c 0,14,15
 633 205 633 205 628 222 c 0,16,17
 597 334 597 334 506 377 c 0,18,19
 494 383 494 383 481 388 c 0,20,21
 453 398 453 398 362 443 c 0,22,23
 317 464 317 464 271 481 c 0,24,25
 222 499 222 499 200 544 c 0,26,27
 181 583 181 583 202 615 c 0,28,29
 251 693 251 693 401 624 c 0,30,31
 418 617 418 617 439 606 c 0,32,33
 614 516 614 516 650 584 c 0,34,35
 653 590 653 590 655 597 c 0,36,37
 683 692 683 692 539 737 c 2,38,-1
 465 756 l 1,39,40
 466 756 466 756 355 777 c 0,41,42
 258 795 258 795 198 780 c 0,43,44
 150 768 150 768 106 734 c 0,45,46
 9 660 9 660 23 569 c 0,47,48
 25 559 l 0,49,50
 55 421 55 421 215 364 c 0,51,52
 241 355 241 355 271 348 c 0,53,54
 402 318 402 318 446 277 c 0,55,56
 483 242 483 242 481 192 c 0,57,58
 478 127 478 127 389 110 c 0,59,60
 365 105 365 105 337 105 c 0,61,62
 287 105 287 105 238 153 c 0,63,64
 190 201 190 201 187 203 c 0,65,66
 157 229 157 229 124 237 c 0,0,1
EndSplineSet
EndChar
StartChar: T
Encoding: 84 84 55
Width: 769
GlyphClass: 2
Flags: W
Fore
78 759 m 0,0,1
 31 745 31 745 14 691 c 0,2,3
 -2 637 -2 637 27 594 c 0,4,5
 51 558 51 558 114 573 c 2,6,-1
 191 592 l 2,7,8
 238 599 238 599 264 573 c 0,9,10
 327 508 327 508 317 403 c 0,11,12
 315 389 315 389 295 273 c 0,13,14
 288 236 288 236 285 207 c 0,15,16
 283 185 283 185 256 139 c 0,17,18
 231 97 231 97 244 73 c 0,19,20
 246 70 246 70 249 66 c 0,21,22
 294 7 294 7 374 3 c 0,23,24
 456 -2 456 -2 504 54 c 0,25,26
 507 57 507 57 509 60 c 0,27,28
 528 85 528 85 504 124 c 0,29,30
 476 167 476 167 473 176 c 0,31,32
 468 187 468 187 467 198 c 2,33,-1
 439 381 l 2,34,35
 428 493 428 493 487 559 c 0,36,37
 492 565 492 565 497 570 c 0,38,39
 525 598 525 598 586 582 c 0,40,41
 646 567 646 567 659 567 c 0,42,43
 690 567 690 567 708 588 c 0,44,45
 747 634 747 634 744 696 c 0,46,47
 740 758 740 758 693 774 c 0,48,49
 614 801 614 801 480 798 c 2,50,-1
 390 795 l 2,51,52
 246 792 246 792 218 789 c 0,53,54
 156 782 156 782 78 759 c 0,0,1
EndSplineSet
EndChar
StartChar: U
Encoding: 85 85 56
Width: 845
GlyphClass: 2
Flags: W
Fore
68 753 m 0,0,1
 -7 664 -7 664 31 538 c 0,2,3
 43 498 43 498 72 438 c 0,4,5
 136 301 136 301 139 293 c 0,6,7
 150 267 150 267 158 243 c 2,8,-1
 190 132 l 2,9,10
 210 80 210 80 254 54 c 0,11,12
 387 -25 387 -25 513 5 c 0,13,14
 579 21 579 21 638 66 c 0,15,16
 674 93 674 93 679 153 c 0,17,18
 687 224 687 224 689 234 c 0,19,20
 703 296 703 296 763 427 c 0,21,22
 818 546 818 546 823 606 c 0,23,24
 828 686 828 686 770 747 c 0,25,26
 721 798 721 798 642 769 c 0,27,28
 603 754 603 754 572 723 c 0,29,30
 504 655 504 655 508 542 c 2,31,-1
 516 454 l 2,32,33
 531 335 531 335 521 273 c 0,34,35
 513 221 513 221 452 209 c 0,36,37
 440 207 l 0,38,39
 396 202 396 202 368 219 c 0,40,41
 345 233 345 233 338 258 c 0,42,43
 318 326 318 326 330 455 c 0,44,45
 342 574 342 574 335 622 c 0,46,47
 323 702 323 702 263 753 c 0,48,49
 207 801 207 801 140 792 c 0,50,51
 96 786 96 786 68 753 c 0,0,1
EndSplineSet
EndChar
StartChar: V
Encoding: 86 86 57
Width: 845
GlyphClass: 2
Flags: W
Fore
450 186 m 1,0,1
 436 232 436 232 411 384 c 0,2,3
 383 553 383 553 330 653 c 0,4,5
 302 706 302 706 263 753 c 0,6,7
 224 801 224 801 157 797 c 0,8,9
 100 795 100 795 68 753 c 0,10,11
 -11 651 -11 651 48 510 c 0,12,13
 70 456 70 456 152 326 c 0,14,15
 179 283 179 283 195 255 c 0,16,17
 301 72 301 72 396 18 c 0,18,19
 428 0 428 0 456 0 c 0,20,21
 529 0 529 0 652 186 c 0,22,23
 695 252 695 252 704 273 c 2,24,-1
 794 468 l 2,25,26
 848 601 848 601 813 684 c 0,27,28
 798 717 798 717 770 747 c 0,29,30
 728 791 728 791 661 780 c 0,31,32
 600 771 600 771 572 723 c 0,33,34
 494 592 494 592 473 408 c 2,35,-1
 453 207 l 2,36,37
 452 196 452 196 450 186 c 1,0,1
EndSplineSet
EndChar
StartChar: W
Encoding: 87 87 58
Width: 1031
GlyphClass: 2
Flags: W
Fore
493 738 m 0,0,1
 433 633 433 633 374 336 c 0,2,3
 356 244 356 244 348 186 c 1,4,5
 340 227 340 227 318 396 c 0,6,7
 293 585 293 585 238 698 c 0,8,9
 224 726 224 726 208 753 c 0,10,11
 184 793 184 793 129 787 c 0,12,13
 87 783 87 783 62 753 c 0,14,15
 -16 658 -16 658 29 522 c 0,16,17
 44 478 44 478 77 413 c 2,18,-1
 152 267 l 2,19,20
 155 261 155 261 157 255 c 0,21,22
 212 134 212 134 284 51 c 0,23,24
 327 1 327 1 353 0 c 0,25,26
 416 0 416 0 506 203 c 0,27,28
 536 273 536 273 539 273 c 1,29,30
 559 264 559 264 610 173 c 0,31,32
 674 60 674 60 705 31 c 0,33,34
 726 10 726 10 744 10 c 0,35,36
 801 9 801 9 895 205 c 0,37,38
 924 265 924 265 930 283 c 2,39,-1
 999 485 l 2,40,41
 1043 631 1043 631 1001 719 c 0,42,43
 992 739 992 739 979 757 c 0,44,45
 953 793 953 793 899 783 c 0,46,47
 849 773 849 773 831 733 c 0,48,49
 770 597 770 597 755 400 c 2,50,-1
 740 207 l 2,51,52
 740 201 740 201 739 196 c 1,53,54
 733 225 733 225 712 411 c 0,55,56
 684 654 684 654 634 729 c 0,57,58
 630 736 630 736 625 741 c 0,59,60
 592 782 592 782 542 772 c 1,61,-1
 520 764 l 1,62,63
 503 754 503 754 493 738 c 0,0,1
EndSplineSet
EndChar
StartChar: X
Encoding: 88 88 59
Width: 862
GlyphClass: 2
Flags: W
Fore
40 732 m 0,0,1
 21 676 21 676 79 627 c 2,2,-1
 174 556 l 2,3,4
 226 512 226 512 233 463 c 0,5,6
 243 389 243 389 174 296 c 2,7,-1
 99 199 l 2,8,9
 44 119 44 119 71 58 c 0,10,11
 76 48 76 48 83 38 c 0,12,13
 119 -17 119 -17 203 9 c 0,14,15
 227 16 227 16 251 29 c 0,16,17
 300 55 300 55 319 143 c 2,18,-1
 339 235 l 2,19,20
 357 300 357 300 406 306 c 0,21,22
 411 307 411 307 416 307 c 0,23,24
 474 309 474 309 500 243 c 2,25,-1
 518 183 l 2,26,27
 540 95 540 95 564 63 c 0,28,29
 582 40 582 40 606 29 c 0,30,31
 703 -18 703 -18 753 14 c 0,32,33
 768 23 768 23 777 41 c 0,34,35
 814 110 814 110 747 180 c 0,36,37
 730 197 730 197 653 260 c 0,38,39
 569 328 569 328 548 380 c 0,40,41
 536 412 536 412 539 445 c 0,42,43
 545 509 545 509 629 560 c 2,44,-1
 740 623 l 2,45,46
 810 668 810 668 800 724 c 0,47,48
 798 731 798 731 796 739 c 0,49,50
 771 811 771 811 659 793 c 0,51,52
 631 788 631 788 603 778 c 0,53,54
 551 761 551 761 519 685 c 2,55,-1
 483 596 l 1,56,-1
 465 568 l 2,57,58
 438 533 438 533 395 533 c 0,59,60
 339 534 339 534 311 599 c 2,61,-1
 270 711 l 2,62,63
 243 770 243 770 196 784 c 0,64,65
 135 803 135 803 88 783 c 0,66,67
 54 769 54 769 41 737 c 1,68,69
 41 735 41 735 40 732 c 0,0,1
EndSplineSet
EndChar
StartChar: Y
Encoding: 89 89 60
Width: 757
GlyphClass: 2
Flags: W
Fore
18 738 m 0,0,1
 -6 680 -6 680 52 633 c 0,2,3
 60 626 60 626 133 579 c 0,4,5
 211 528 211 528 231 477 c 0,6,7
 259 405 259 405 244 288 c 0,8,9
 229 184 229 184 230 154 c 0,10,11
 233 96 233 96 261 54 c 0,12,13
 292 8 292 8 358 5 c 0,14,15
 423 2 423 2 455 46 c 0,16,17
 459 51 459 51 462 57 c 0,18,19
 498 127 498 127 485 230 c 2,20,-1
 471 334 l 2,21,22
 466 407 466 407 492 465 c 0,23,24
 515 516 515 516 600 560 c 0,25,26
 681 602 681 602 684 604 c 0,27,28
 748 643 748 643 737 700 c 0,29,30
 735 708 l 0,31,32
 717 772 717 772 631 772 c 0,33,34
 589 772 589 772 546 756 c 0,35,36
 498 738 498 738 475 659 c 2,37,-1
 450 569 l 1,38,-1
 436 541 l 2,39,40
 415 508 415 508 375 510 c 0,41,42
 326 512 326 512 309 571 c 2,43,-1
 287 685 l 2,44,45
 271 740 271 740 234 759 c 0,46,47
 146 805 146 805 80 789 c 0,48,49
 35 779 35 779 18 738 c 0,0,1
EndSplineSet
EndChar
StartChar: Z
Encoding: 90 90 61
Width: 883
GlyphClass: 2
Flags: W
Fore
112 756 m 0,0,1
 65 741 65 741 45 691 c 0,2,3
 27 642 27 642 52 603 c 0,4,5
 111 509 111 509 373 562 c 2,6,-1
 582 608 l 2,7,8
 624 615 624 615 624 602 c 0,9,10
 624 592 624 592 598 567 c 0,11,12
 524 496 524 496 396 435 c 0,13,14
 238 359 238 359 231 355 c 0,15,16
 151 313 151 313 79 264 c 0,17,18
 36 235 36 235 34 172 c 0,19,20
 33 110 33 110 74 84 c 0,21,22
 79 80 79 80 85 78 c 0,23,24
 293 -11 293 -11 481 10 c 0,25,26
 601 23 601 23 751 81 c 0,27,28
 803 101 803 101 807 130 c 0,29,30
 811 165 811 165 760 228 c 0,31,32
 705 295 705 295 503 216 c 2,33,-1
 360 157 l 2,34,35
 332 147 332 147 329 156 c 0,36,37
 326 163 326 163 343 186 c 0,38,39
 390 251 390 251 485 306 c 2,40,-1
 612 378 l 2,41,42
 643 397 643 397 670 417 c 2,43,-1
 782 497 l 2,44,45
 815 525 815 525 828 569 c 0,46,47
 834 591 834 591 844 642 c 0,48,49
 866 760 866 760 702 784 c 0,50,51
 659 791 659 791 600 792 c 0,52,53
 583 792 583 792 562 792 c 2,54,-1
 349 794 l 2,55,56
 223 791 223 791 112 756 c 0,0,1
EndSplineSet
EndChar
StartChar: bracketleft
Encoding: 91 91 62
Width: 340
GlyphClass: 2
Flags: W
Fore
280 654 m 0,0,1
 309 687 309 687 298 729 c 0,2,3
 293 751 293 751 277 768 c 0,4,5
 257 789 257 789 214 782 c 2,6,-1
 172 777 l 1,7,-1
 99 785 l 1,8,9
 75 784 75 784 64 765 c 0,10,11
 17 689 17 689 25 568 c 2,12,-1
 39 397 l 2,13,14
 40 376 40 376 40 357 c 2,15,-1
 29 159 l 2,16,17
 29 87 29 87 52 39 c 0,18,19
 69 2 69 2 114 8 c 2,20,-1
 175 18 l 2,21,22
 181 18 l 2,23,-1
 246 14 l 1,24,25
 270 16 270 16 286 33 c 0,26,27
 326 76 326 76 314 126 c 0,28,29
 309 146 309 146 295 162 c 0,30,31
 275 183 275 183 221 163 c 0,32,33
 173 145 173 145 160 148 c 256,34,35
 147 151 147 151 142 165 c 0,36,37
 121 220 121 220 125 318 c 0,38,39
 128 382 128 382 127 411 c 2,40,-1
 117 546 l 2,41,42
 117 587 117 587 127 636 c 0,43,44
 133 664 133 664 176 654 c 2,45,-1
 235 641 l 2,46,47
 265 637 265 637 280 654 c 0,0,1
EndSplineSet
EndChar
StartChar: asciicircum
Encoding: 94 94 65
Width: 350
GlyphClass: 2
Flags: W
Fore
18 591 m 0,0,1
 16 557 16 557 85 585 c 0,2,3
 95 589 95 589 105 594 c 0,4,5
 124 603 124 603 139 643 c 0,6,7
 153 678 153 678 169 683 c 0,8,9
 174 684 174 684 180 684 c 0,10,11
 203 683 203 683 213 650 c 0,12,13
 225 608 225 608 229 601 c 0,14,15
 236 590 236 590 246 585 c 0,16,17
 292 561 292 561 315 576 c 0,18,19
 320 579 320 579 324 585 c 0,20,21
 346 615 346 615 312 670 c 1,22,23
 328 644 328 644 291 702 c 0,24,25
 256 757 256 757 243 770 c 0,26,27
 217 795 217 795 183 795 c 0,28,29
 147 795 147 795 118 754 c 2,30,-1
 87 711 l 2,31,32
 42 656 42 656 35 644 c 0,33,34
 20 618 20 618 18 591 c 0,0,1
EndSplineSet
EndChar
StartChar: underscore
Encoding: 95 95 66
Width: 675
GlyphClass: 2
Flags: W
Fore
337 147 m 0,0,1
 310 147 310 147 206 160 c 0,2,3
 115 172 115 172 68 147 c 0,4,5
 63 144 63 144 57 140 c 0,6,7
 11 109 11 109 24 66 c 0,8,9
 31 45 31 45 53 29 c 0,10,11
 99 -5 99 -5 190 3 c 2,12,-1
 305 15 l 2,13,14
 315 15 315 15 324 15 c 0,15,16
 352 15 352 15 466 2 c 0,17,18
 567 -9 567 -9 614 18 c 0,19,20
 624 24 624 24 633 32 c 0,21,22
 672 66 672 66 640 108 c 0,23,24
 626 126 626 126 602 140 c 0,25,26
 552 169 552 169 463 159 c 0,27,28
 361 147 361 147 337 147 c 0,0,1
EndSplineSet
EndChar
StartChar: grave
Encoding: 96 96 67
Width: 250
GlyphClass: 2
Flags: W
Fore
21 747 m 0,0,1
 20 780 20 780 68 778 c 0,2,3
 111 776 111 776 141 753 c 0,4,5
 183 721 183 721 215 614 c 0,6,7
 242 525 242 525 227 504 c 0,8,9
 217 491 217 491 189 525 c 0,10,11
 168 551 168 551 103 609 c 0,12,13
 43 662 43 662 28 705 c 0,14,15
 22 725 22 725 21 747 c 0,0,1
EndSplineSet
EndChar
StartChar: a
Encoding: 97 97 68
Width: 483
GlyphClass: 2
Flags: W
Fore
130 201 m 0,0,1
 163 238 163 238 208 231 c 0,2,3
 229 227 229 227 244 213 c 0,4,5
 272 187 272 187 261 148 c 0,6,7
 256 128 256 128 241 114 c 0,8,9
 209 85 209 85 167 97 c 0,10,11
 146 104 146 104 130 120 c 0,12,13
 109 142 109 142 115 173 c 0,14,15
 119 188 119 188 130 201 c 0,0,1
49 456 m 256,16,17
 29 431 29 431 36 404 c 0,18,19
 40 391 40 391 49 381 c 0,20,21
 73 355 73 355 128 369 c 0,22,23
 183 384 183 384 199 383 c 0,24,25
 220 381 220 381 235 366 c 0,26,27
 249 352 249 352 245 332 c 0,28,29
 244 323 244 323 238 315 c 0,30,31
 219 287 219 287 167 286 c 0,32,33
 114 285 114 285 97 277 c 0,34,35
 85 271 85 271 76 261 c 0,36,37
 7 182 7 182 18 105 c 0,38,39
 21 77 21 77 37 54 c 0,40,41
 81 -13 81 -13 155 5 c 0,42,43
 161 6 161 6 230 31 c 0,44,45
 280 49 280 49 310 42 c 2,46,-1
 391 14 l 2,47,48
 415 9 415 9 439 18 c 0,49,50
 475 32 475 32 472 60 c 0,51,52
 467 83 467 83 431 90 c 0,53,54
 390 97 390 97 379 107 c 1,55,56
 373 111 373 111 370 117 c 0,57,58
 339 170 339 170 366 259 c 2,59,-1
 393 348 l 2,60,61
 410 420 410 420 370 465 c 0,62,63
 336 503 336 503 269 496 c 2,64,-1
 184 486 l 1,65,-1
 103 485 l 2,66,67
 69 481 69 481 49 456 c 256,16,17
EndSplineSet
EndChar
StartChar: b
Encoding: 98 98 69
Width: 526
GlyphClass: 2
Flags: HW
Fore
345 156 m 4,0,1
 359.784 147.428 359.784 147.428 401 183 c 4,2,3
 470.569 247.423 470.569 247.423 392 295 c 24,4,5
 346.756 322.397 346.756 322.397 306 252 c 0,6,7
 273 195 273 195 345 156 c 4,0,1
169 454 m 0,8,9
 172 431 172 431 202 449 c 2,10,-1
 249 478 l 1,11,12
 261 483 261 483 269 484 c 2,13,-1
 356 500 l 2,14,15
 394 504 394 504 419 480 c 0,16,17
 529 378 529 378 492 209 c 0,18,19
 481 156 481 156 455 98 c 0,20,21
 428 36 428 36 349 18 c 0,22,23
 314 10 314 10 263 36 c 0,24,25
 211 61 211 61 180 59 c 1,26,27
 177 58 177 58 173 58 c 0,28,29
 157 56 157 56 133 34 c 0,30,31
 113 16 113 16 95 16 c 256,32,33
 77 16 77 16 65 25 c 0,34,35
 58 30 58 30 53 38 c 0,36,37
 23 88 23 88 36 162 c 0,38,39
 50 248 50 248 50 254 c 0,40,41
 51 265 51 265 51 276 c 0,42,43
 52 391 52 391 46 490 c 0,44,45
 42 548 42 548 35 600 c 2,46,-1
 25 682 l 2,47,48
 22 746 22 746 75 786 c 0,49,50
 95 801 95 801 118 794 c 0,51,52
 130 791 130 791 139 782 c 0,53,54
 179 746 179 746 176 676 c 2,55,-1
 171 585 l 1,56,-1
 171 570 l 2,57,58
 172 561 172 561 169 493 c 0,59,60
 168 473 168 473 169 454 c 0,8,9
EndSplineSet
EndChar
StartChar: c
Encoding: 99 99 70
Width: 365
GlyphClass: 2
Flags: W
Fore
320 434 m 0,0,1
 347 406 347 406 339 368 c 0,2,3
 334 348 334 348 320 333 c 0,4,5
 300 313 300 313 255 328 c 0,6,7
 209 344 209 344 193 341 c 0,8,9
 182 339 182 339 173 331 c 0,10,11
 130 292 130 292 138 239 c 0,12,13
 141 215 141 215 156 196 c 0,14,15
 175 173 175 173 222 185 c 0,16,17
 271 197 271 197 286 194 c 0,18,19
 299 191 299 191 308 182 c 0,20,21
 346 144 346 144 336 98 c 0,22,23
 332 80 332 80 320 67 c 0,24,25
 263 2 263 2 173 17 c 0,26,27
 121 26 121 26 77 59 c 0,28,29
 25 100 25 100 25 184 c 0,30,31
 25 186 25 186 29 273 c 0,32,33
 33 353 33 353 40 376 c 0,34,35
 52 413 52 413 84 436 c 0,36,37
 168 496 168 496 250 474 c 0,38,39
 290 464 290 464 320 434 c 0,0,1
EndSplineSet
EndChar
StartChar: e
Encoding: 101 101 72
Width: 365
GlyphClass: 2
Flags: W
Fore
264 369 m 0,0,1
 236 401 236 401 190 390 c 0,2,3
 163 383 163 383 146 362 c 0,4,5
 139 352 139 352 146 338 c 0,6,7
 149 333 149 333 154 328 c 0,8,9
 190 295 190 295 231 307 c 0,10,11
 243 310 243 310 254 319 c 0,12,13
 276 335 276 335 270 358 c 0,14,15
 268 364 268 364 264 369 c 0,0,1
300 125 m 0,16,17
 333 93 333 93 322 71 c 0,18,19
 320 67 l 0,20,21
 274 2 274 2 184 14 c 0,22,23
 126 22 126 22 77 59 c 0,24,25
 25 100 25 100 25 184 c 0,26,27
 25 186 25 186 29 273 c 0,28,29
 33 353 33 353 40 376 c 0,30,31
 52 413 52 413 84 436 c 0,32,33
 166 494 166 494 245 478 c 0,34,35
 289 468 289 468 320 434 c 0,36,37
 373 373 373 373 342 290 c 0,38,39
 327 251 327 251 296 219 c 0,40,41
 295 218 295 218 250 231 c 0,42,43
 158 257 158 257 129 222 c 0,44,45
 110 199 110 199 129 167 c 0,46,47
 136 156 136 156 146 147 c 0,48,49
 178 117 178 117 279 125 c 0,50,51
 299 126 299 126 300 125 c 0,16,17
EndSplineSet
EndChar
StartChar: f
Encoding: 102 102 73
Width: 450
GlyphClass: 2
Flags: W
Fore
134 30 m 0,0,1
 150 3 150 3 192 5 c 0,2,3
 232 7 232 7 242 39 c 0,4,5
 253 95 253 95 239 195 c 0,6,7
 227 283 227 283 233 333 c 0,8,9
 236 357 236 357 272 348 c 0,10,11
 322 337 322 337 327 337 c 0,12,13
 349 336 349 336 359 348 c 0,14,15
 378 370 378 370 371 397 c 0,16,17
 367 412 367 412 356 423 c 0,18,19
 338 440 338 440 288 420 c 0,20,21
 245 403 245 403 234 410 c 0,22,23
 227 414 227 414 224 423 c 0,24,25
 195 513 195 513 194 539 c 0,26,27
 192 576 192 576 215 618 c 0,28,29
 253 687 253 687 324 682 c 1,30,31
 326 681 326 681 329 681 c 0,32,33
 346 679 346 679 362 654 c 0,34,35
 377 629 377 629 392 624 c 0,36,37
 455 601 455 601 475 609 c 0,38,39
 488 613 488 613 494 627 c 0,40,41
 523 695 523 695 416 748 c 0,42,43
 392 759 392 759 365 768 c 0,44,45
 279 796 279 796 214 775 c 0,46,47
 170 760 170 760 137 723 c 0,48,49
 88 667 88 667 98 571 c 2,50,-1
 116 444 l 2,51,52
 116 438 l 0,53,54
 117 424 117 424 102 428 c 2,55,-1
 50 448 l 1,56,57
 32 452 32 452 23 444 c 0,58,59
 -1 422 -1 422 8 389 c 0,60,61
 12 373 12 373 23 360 c 0,62,63
 35 347 35 347 77 359 c 0,64,65
 110 368 110 368 115 357 c 1,66,-1
 116 351 l 2,67,68
 120 307 120 307 111 196 c 0,69,70
 102 97 102 97 126 45 c 0,71,72
 130 37 130 37 134 30 c 0,0,1
EndSplineSet
EndChar
StartChar: g
Encoding: 103 103 74
Width: 430
GlyphClass: 2
Flags: W
Fore
273 200 m 0,0,1
 234 162 234 162 185 173 c 0,2,3
 161 178 161 178 144 196 c 0,4,5
 98 243 98 243 122 311 c 0,6,7
 133 341 133 341 156 366 c 0,8,9
 196 409 196 409 251 395 c 0,10,11
 268 391 268 391 285 382 c 0,12,13
 334 357 334 357 320 288 c 0,14,15
 310 237 310 237 273 200 c 0,0,1
69 -30 m 0,16,17
 32 -64 32 -64 40 -111 c 0,18,19
 44 -134 44 -134 60 -150 c 0,20,21
 123 -216 123 -216 221 -193 c 0,22,23
 275 -180 275 -180 321 -141 c 0,24,25
 385 -86 385 -86 389 12 c 2,26,-1
 386 181 l 2,27,28
 386 192 386 192 387 202 c 0,29,30
 388 220 388 220 406 306 c 0,31,32
 422 384 422 384 396 424 c 0,33,34
 389 435 389 435 378 445 c 0,35,36
 307 510 307 510 211 495 c 0,37,38
 142 484 142 484 92 433 c 0,39,40
 8 347 8 347 18 229 c 0,41,42
 25 143 25 143 83 73 c 0,43,44
 106 45 106 45 164 55 c 0,45,46
 220 64 220 64 236 62 c 0,47,48
 258 59 258 59 273 43 c 0,49,50
 299 15 299 15 289 -16 c 0,51,52
 286 -26 286 -26 279 -33 c 0,53,54
 252 -62 252 -62 194 -40 c 2,55,-1
 134 -18 l 2,56,57
 93 -8 93 -8 69 -30 c 0,16,17
EndSplineSet
EndChar
StartChar: h
Encoding: 104 104 75
Width: 509
GlyphClass: 2
Flags: W
Fore
30 33 m 0,0,1
 23 107 23 107 34 268 c 0,2,3
 39 353 39 353 39 411 c 0,4,5
 40 436 40 436 32 622 c 0,6,7
 29 704 29 704 33 768 c 0,8,9
 35 794 35 794 74 794 c 0,10,11
 114 794 114 794 133 771 c 0,12,13
 137 765 137 765 138 759 c 0,14,15
 161 672 161 672 149 546 c 0,16,17
 140 436 140 436 138 402 c 0,18,19
 138 374 138 374 148 374 c 256,20,21
 158 374 158 374 199 416 c 0,22,23
 260 477 260 477 292 477 c 0,24,25
 370 473 370 473 409 405 c 0,26,27
 523 207 523 207 460 79 c 0,28,29
 445 48 445 48 418 21 c 0,30,31
 395 -3 395 -3 362 4 c 0,32,33
 344 8 344 8 331 21 c 0,34,35
 300 52 300 52 317 113 c 2,36,-1
 336 183 l 2,37,38
 344 223 344 223 328 252 c 0,39,40
 294 317 294 317 237 315 c 0,41,42
 191 313 191 313 160 255 c 0,43,44
 157 250 157 250 153 243 c 0,45,46
 137 209 137 209 153 145 c 0,47,48
 167 87 167 87 161 64 c 0,49,50
 156 47 156 47 141 33 c 0,51,52
 113 6 113 6 71 5 c 0,53,54
 33 5 33 5 30 33 c 0,0,1
EndSplineSet
EndChar
StartChar: i
Encoding: 105 105 76
Width: 207
GlyphClass: 2
Flags: W
Fore
52 479 m 0,0,1
 79 441 79 441 121 449 c 0,2,3
 147 453 147 453 163 475 c 0,4,5
 190 510 190 510 173 560 c 0,6,7
 166 581 166 581 151 598 c 0,8,9
 123 630 123 630 88 619 c 0,10,11
 75 615 75 615 64 605 c 0,12,13
 30 570 30 570 37 519 c 0,14,15
 40 496 40 496 52 479 c 0,0,1
46 40 m 0,16,17
 74 8 74 8 111 18 c 0,18,19
 130 23 130 23 145 40 c 0,20,21
 174 71 174 71 166 136 c 0,22,23
 157 210 157 210 157 227 c 0,24,25
 158 242 158 242 171 311 c 0,26,27
 183 371 183 371 157 403 c 0,28,29
 125 445 125 445 79 434 c 0,30,31
 57 429 57 429 40 410 c 0,32,33
 13 379 13 379 25 318 c 2,34,-1
 39 246 l 2,35,36
 40 236 40 236 40 227 c 0,37,38
 41 208 41 208 29 136 c 0,39,40
 19 73 19 73 46 40 c 0,16,17
EndSplineSet
EndChar
StartChar: j
Encoding: 106 106 77
Width: 207
GlyphClass: 2
Flags: W
Fore
33 367 m 0,0,1
 5 337 5 337 20 282 c 0,2,3
 37 218 37 218 37 212 c 2,4,5
 39 201 39 201 39 191 c 2,6,-1
 44 82 l 2,7,8
 43 53 43 53 33 24 c 0,9,10
 22 -7 22 -7 -22 -42 c 0,11,12
 -62 -74 -62 -74 -72 -92 c 256,13,14
 -82 -110 -82 -110 -79 -132 c 0,15,16
 -74 -175 -74 -175 -38 -192 c 0,17,18
 -22 -200 -22 -200 -4 -198 c 0,19,20
 62 -191 62 -191 96 -116 c 0,21,22
 100 -107 100 -107 133 -14 c 0,23,24
 135 -7 135 -7 138 0 c 0,25,26
 157 51 157 51 156 133 c 0,27,28
 155 188 155 188 159 220 c 0,29,30
 161 239 161 239 184 293 c 0,31,32
 204 342 204 342 185 369 c 0,33,34
 183 372 183 372 180 374 c 1,35,36
 143 414 143 414 86 399 c 0,37,38
 55 391 55 391 33 367 c 0,0,1
52 479 m 0,39,40
 79 441 79 441 121 449 c 0,41,42
 147 453 147 453 163 475 c 0,43,44
 190 510 190 510 173 560 c 0,45,46
 166 581 166 581 151 598 c 0,47,48
 123 630 123 630 88 619 c 0,49,50
 75 615 75 615 64 605 c 0,51,52
 30 570 30 570 37 519 c 0,53,54
 40 496 40 496 52 479 c 0,39,40
EndSplineSet
EndChar
StartChar: k
Encoding: 107 107 78
Width: 454
GlyphClass: 2
Flags: W
Fore
45 698 m 0,0,1
 2 664 2 664 10 594 c 2,2,-1
 24 494 l 2,3,4
 25 479 25 479 24 465 c 0,5,6
 13 265 13 265 13 236 c 0,7,8
 13 181 13 181 18 120 c 0,9,10
 26 12 26 12 59 11 c 0,11,12
 68 10 68 10 104 28 c 0,13,14
 110 31 110 31 114 33 c 0,15,16
 135 42 135 42 125 77 c 0,17,18
 114 117 114 117 114 128 c 0,19,20
 115 149 115 149 99 224 c 0,21,22
 86 289 86 289 108 308 c 0,23,24
 116 314 116 314 129 317 c 0,25,26
 173 327 173 327 192 273 c 2,27,-1
 223 166 l 2,28,29
 228 151 228 151 235 140 c 0,30,31
 242 128 242 128 259 75 c 0,32,33
 273 33 273 33 303 18 c 0,34,35
 354 -7 354 -7 393 7 c 0,36,37
 415 15 415 15 426 36 c 0,38,39
 445 74 445 74 407 117 c 2,40,-1
 355 172 l 2,41,42
 344 187 344 187 337 200 c 0,43,44
 326 221 326 221 280 272 c 0,45,46
 238 319 238 319 242 349 c 0,47,48
 244 362 244 362 252 375 c 0,49,50
 286 428 286 428 305 438 c 0,51,52
 317 444 317 444 327 456 c 0,53,54
 335 465 335 465 373 493 c 0,55,56
 408 519 408 519 402 549 c 0,57,58
 395 580 395 580 351 577 c 0,59,60
 346 577 346 577 342 576 c 0,61,62
 312 571 312 571 287 536 c 0,63,64
 260 499 260 499 243 487 c 2,65,-1
 157 418 l 2,66,67
 120 393 120 393 120 424 c 0,68,69
 120 470 120 470 131 574 c 0,70,71
 136 627 136 627 135 686 c 0,72,73
 134 713 134 713 96 714 c 0,74,75
 65 714 65 714 45 698 c 0,0,1
EndSplineSet
EndChar
StartChar: l
Encoding: 108 108 79
Width: 200
GlyphClass: 2
Flags: W
Fore
50 762 m 0,0,1
 37 688 37 688 50 569 c 0,2,3
 59 483 59 483 59 435 c 0,4,5
 60 386 60 386 45 248 c 0,6,7
 32 126 32 126 53 48 c 0,8,9
 61 22 61 22 101 18 c 0,10,11
 142 14 142 14 153 36 c 0,12,13
 155 40 155 40 155 45 c 0,14,15
 165 138 165 138 155 287 c 0,16,17
 150 368 150 368 149 423 c 2,18,-1
 157 677 l 2,19,20
 156 718 156 718 152 756 c 0,21,22
 150 782 150 782 111 788 c 0,23,24
 71 794 71 794 55 773 c 0,25,26
 51 768 51 768 50 762 c 0,0,1
EndSplineSet
EndChar
StartChar: m
Encoding: 109 109 80
Width: 562
GlyphClass: 2
Flags: W
Fore
103 26 m 0,0,1
 80 3 80 3 54 6 c 0,2,3
 40 8 40 8 34 20 c 0,4,5
 13 67 13 67 22 138 c 0,6,7
 31 198 31 198 31 221 c 0,8,9
 32 249 32 249 18 337 c 0,10,11
 6 415 6 415 32 465 c 0,12,13
 37 475 37 475 43 485 c 0,14,15
 57 505 57 505 85 497 c 0,16,17
 97 493 97 493 106 485 c 0,18,19
 117 476 117 476 109 445 c 0,20,21
 102 418 102 418 115 412 c 0,22,23
 133 405 133 405 150 431 c 0,24,25
 170 460 170 460 184 467 c 0,26,27
 246 490 246 490 279 480 c 0,28,29
 290 476 290 476 301 470 c 0,30,31
 310 465 310 465 314 439 c 1,32,-1
 319 425 l 1,33,34
 322 421 322 421 328 419 c 0,35,36
 344 415 344 415 363 436 c 0,37,38
 379 454 379 454 391 458 c 2,39,-1
 448 476 l 2,40,41
 481 483 481 483 502 464 c 0,42,43
 541 431 541 431 534 365 c 2,44,-1
 523 276 l 2,45,46
 522 261 522 261 523 248 c 0,47,48
 525 226 525 226 541 155 c 0,49,50
 555 93 555 93 538 17 c 0,51,52
 533 -5 533 -5 501 2 c 0,53,54
 490 4 490 4 481 10 c 2,55,-1
 475 14 l 1,56,57
 435 50 435 50 444 118 c 2,58,-1
 458 211 l 2,59,60
 459 233 459 233 457 251 c 0,61,62
 457 257 457 257 461 299 c 0,63,64
 464 329 464 329 445 341 c 0,65,66
 414 361 414 361 375 334 c 0,67,68
 363 326 363 326 352 314 c 0,69,70
 339 300 339 300 338 265 c 2,71,-1
 337 245 l 2,72,73
 333 212 333 212 348 132 c 0,74,75
 361 63 361 63 343 34 c 0,76,77
 338 26 338 26 331 20 c 0,78,79
 308 -2 308 -2 275 17 c 0,80,81
 258 27 258 27 250 44 c 0,82,83
 236 78 236 78 252 139 c 0,84,85
 269 203 269 203 267 235 c 0,86,87
 264 285 264 285 259 299 c 0,88,89
 255 307 255 307 249 316 c 0,90,91
 234 340 234 340 214 341 c 0,92,93
 182 343 182 343 157 321 c 2,94,-1
 139 302 l 2,95,96
 125 284 125 284 124 243 c 0,97,98
 123 228 123 228 121 218 c 0,99,100
 117 192 117 192 127 125 c 0,101,102
 135 65 135 65 111 35 c 0,103,104
 108 30 108 30 103 26 c 0,0,1
EndSplineSet
EndChar
StartChar: n
Encoding: 110 110 81
Width: 373
GlyphClass: 2
Flags: W
Fore
342 321 m 2,0,1
 342 319 342 319 339 250 c 0,2,3
 339 247 339 247 339 245 c 0,4,5
 338 218 338 218 352 135 c 0,6,7
 365 61 365 61 342 30 c 0,8,9
 338 25 338 25 333 20 c 0,10,11
 310 -2 310 -2 277 17 c 0,12,13
 259 27 259 27 252 44 c 0,14,15
 237 78 237 78 254 139 c 0,16,17
 271 203 271 203 269 235 c 0,18,19
 266 285 266 285 260 299 c 0,20,21
 257 307 257 307 251 316 c 0,22,23
 235 340 235 340 216 341 c 0,24,25
 183 343 183 343 158 321 c 2,26,-1
 141 302 l 2,27,28
 127 284 127 284 125 243 c 0,29,30
 124 228 124 228 123 218 c 0,31,32
 119 192 119 192 128 125 c 0,33,34
 137 65 137 65 113 35 c 0,35,36
 109 30 109 30 105 26 c 0,37,38
 82 3 82 3 56 6 c 0,39,40
 41 8 41 8 36 20 c 0,41,42
 14 67 14 67 24 138 c 0,43,44
 33 198 33 198 33 221 c 0,45,46
 33 249 33 249 20 337 c 0,47,48
 8 415 8 415 33 465 c 0,49,50
 38 475 38 475 45 485 c 0,51,52
 58 505 58 505 86 497 c 0,53,54
 99 493 99 493 108 485 c 0,55,56
 118 476 118 476 110 445 c 0,57,58
 103 418 103 418 117 412 c 0,59,60
 134 405 134 405 152 431 c 0,61,62
 171 460 171 460 186 467 c 0,63,64
 248 490 248 490 281 480 c 0,65,66
 292 476 292 476 303 470 c 0,67,68
 318 461 318 461 326 431 c 0,69,70
 329 423 329 423 330 419 c 0,71,72
 339 389 339 389 342 326 c 2,73,-1
 342 321 l 2,0,1
EndSplineSet
EndChar
StartChar: o
Encoding: 111 111 82
Width: 522
GlyphClass: 2
Flags: W
Fore
244 174 m 5,0,-1
 299.641 190.373 l 1,1,-1
 341.641 150.373 l 1,2,-1
 328 94 l 1,3,-1
 272.359 77.6269 l 1,4,-1
 230.359 117.627 l 1,5,-1
 244 174 l 5,0,-1
261 492 m 0,6,7
 153 488 153 488 83 408 c 0,8,9
 21 337 21 337 23 244 c 0,10,11
 26 140 26 140 104 70 c 0,12,13
 176 5 176 5 271 10 c 0,14,15
 377 16 377 16 444 101 c 0,16,17
 505 178 505 178 498 277 c 0,18,19
 492 380 492 380 411 443 c 0,20,21
 345 495 345 495 261 492 c 0,6,7
EndSplineSet
EndChar
StartChar: p
Encoding: 112 112 83
Width: 522
GlyphClass: 2
Flags: W
Fore
344 248 m 1,1,2
 318 250 318 250 297.998 238 c 0,3,4
 286.517 229.933 286.517 229.933 285.499 224.5 c 0,16,17
 283.461 213.621 283.461 213.621 280.499 207 c 0,18,19
 279.309 204.34 279.309 204.34 277.999 186 c 0,13,14
 275.999 167 275.999 167 283.999 157.5 c 128,-1,12
 291.999 148 291.999 148 319.999 138 c 0,10,11
 346.999 129 346.999 129 372.499 143 c 128,-1,9
 397.999 157 397.999 157 397.999 192 c 0,7,8
 397.999 209 397.999 209 396.999 214.5 c 0,5,6
 394.198 225.937 394.198 225.937 380.672 231.996 c 0,3,4
 346.475 244.326 346.475 244.326 344 248 c 1,1,2
172 -162 m 0,16,17
 147.098 -194.155 147.098 -194.155 104 -195 c 0,18,19
 53 -196 53 -196 33 -158 c 0,20,21
 3.15243 -99.3341 3.15243 -99.3341 18 -2 c 2,22,-1
 36 116 l 2,23,24
 38 129.111 38 129.111 38 156 c 0,25,26
 39 185 39 185 25 290 c 0,27,28
 11 392 11 392 38 445 c 0,29,30
 49 467 49 467 68 486 c 0,31,32
 95 512 95 512 132 503 c 0,33,34
 150 499 150 499 164 486 c 0,35,36
 178.995 472.88 178.995 472.88 168 430 c 0,37,38
 158 391 158 391 169 380 c 0,39,40
 172 377 172 377 176 375 c 0,41,42
 211.163 357.951 211.163 357.951 244 402 c 2,43,-1
 285 457 l 2,44,45
 309.522 489.896 309.522 489.896 344 483 c 0,46,47
 442.815 464.411 442.815 464.411 487 366 c 0,48,49
 509 317 509 317 509 258 c 0,50,51
 510 145 510 145 445 76 c 0,52,53
 403 32 403 32 341 21 c 0,54,55
 309 15 309 15 275 62 c 0,56,57
 243 106 243 106 237 112 c 0,58,59
 215 132 215 132 191 120 c 0,60,61
 150.593 99.2784 150.593 99.2784 163 40 c 2,62,-1
 181 -46 l 2,63,64
 180.661 -61.3504 180.661 -61.3504 182 -63 c 0,65,66
 193.792 -77.529 193.792 -77.529 196 -111 c 0,67,68
 196.969 -129.486 196.969 -129.486 172 -162 c 0,16,17
EndSplineSet
EndChar
StartChar: q
Encoding: 113 113 84
Width: 522
GlyphClass: 2
Flags: W
Fore
277 255 m 0,0,1
 273 204 273 204 232 179 c 0,2,3
 209 165 209 165 183 168 c 0,4,5
 140 174 140 174 123 218 c 0,6,7
 115 242 115 242 119 267 c 0,8,9
 126 314 126 314 168 332 c 0,10,11
 188 341 188 341 210 339 c 0,12,13
 253 334 253 334 271 293 c 0,14,15
 278 275 278 275 277 255 c 0,0,1
330 -155 m 0,16,17
 364 -194 364 -194 418 -195 c 0,18,19
 469 -196 469 -196 489 -158 c 0,20,21
 518 -101 518 -101 504 -2 c 2,22,-1
 486 116 l 2,23,24
 484 137 484 137 484 156 c 0,25,26
 483 185 483 185 497 290 c 0,27,28
 511 392 511 392 484 445 c 0,29,30
 473 467 473 467 454 486 c 0,31,32
 427 512 427 512 390 503 c 0,33,34
 372 499 372 499 358 486 c 0,35,36
 342 472 342 472 354 430 c 0,37,38
 364 391 364 391 353 380 c 0,39,40
 350 377 350 377 346 375 c 0,41,42
 313 359 313 359 278 402 c 2,43,-1
 237 457 l 2,44,45
 208 489 208 489 178 483 c 0,46,47
 77 464 77 464 35 366 c 0,48,49
 13 317 13 317 13 258 c 0,50,51
 12 145 12 145 77 76 c 0,52,53
 119 32 119 32 181 21 c 0,54,55
 213 15 213 15 247 62 c 0,56,57
 279 106 279 106 285 112 c 0,58,59
 307 132 307 132 331 120 c 0,60,61
 370 100 370 100 359 40 c 2,62,-1
 341 -46 l 2,63,64
 340 -55 340 -55 340 -63 c 0,65,66
 339 -74 339 -74 326 -111 c 0,67,68
 316 -139 316 -139 330 -155 c 0,16,17
EndSplineSet
EndChar
StartChar: r
Encoding: 114 114 85
Width: 461
GlyphClass: 2
Flags: W
Fore
189 32 m 0,0,1
 149 -7 149 -7 94 5 c 0,2,3
 66 11 66 11 45 32 c 0,4,5
 13 64 13 64 26 124 c 2,6,-1
 43 199 l 2,7,8
 45 211 45 211 45 222 c 0,9,10
 46 254 46 254 28 340 c 0,11,12
 13 418 13 418 34 457 c 0,13,14
 43 473 43 473 57 486 c 0,15,16
 87 515 87 515 132 501 c 0,17,18
 149 496 149 496 165 486 c 0,19,20
 177 478 177 478 180 447 c 0,21,22
 183 419 183 419 198 414 c 0,23,24
 216 409 216 409 236 432 c 0,25,26
 258 456 258 456 273 459 c 0,27,28
 310 466 310 466 334 459 c 0,29,30
 352 455 352 455 369 441 c 0,31,32
 469 360 469 360 443 290 c 0,33,34
 441 285 441 285 438 279 c 0,35,36
 419 243 419 243 375 244 c 0,37,38
 351 245 351 245 333 258 c 0,39,40
 318 268 318 268 327 306 c 0,41,42
 335 340 335 340 323 348 c 2,43,-1
 318 351 l 1,44,45
 258 373 258 373 205 270 c 2,46,-1
 192 243 l 2,47,48
 185 229 185 229 190 196 c 0,49,50
 192 185 192 185 192 177 c 0,51,52
 192 163 192 163 204 106 c 0,53,54
 214 57 214 57 189 32 c 0,0,1
EndSplineSet
EndChar
StartChar: s
Encoding: 115 115 86
Width: 475
GlyphClass: 2
Flags: W
Fore
33 146 m 0,0,1
 10 126 10 126 22 91 c 0,2,3
 27 78 27 78 36 67 c 0,4,5
 84 8 84 8 180 9 c 0,6,7
 204 9 204 9 252 13 c 0,8,9
 345 22 345 22 379 39 c 0,10,11
 416 58 416 58 434 97 c 0,12,13
 464 164 464 164 422 229 c 0,14,15
 405 255 405 255 379 277 c 0,16,17
 348 303 348 303 290 298 c 0,18,19
 232 294 232 294 209 298 c 1,20,-1
 150 298 l 1,21,22
 137 301 137 301 133 315 c 0,23,24
 124 351 124 351 185 375 c 0,25,26
 192 377 192 377 217 386 c 0,27,28
 255 399 255 399 319 377 c 0,29,30
 378 357 378 357 404 361 c 0,31,32
 422 365 422 365 438 377 c 0,33,34
 461 394 461 394 456 421 c 1,35,36
 454 426 454 426 452 432 c 0,37,38
 432 476 432 476 361 482 c 0,39,40
 357 483 357 483 352 483 c 0,41,42
 228 491 228 491 160 465 c 256,43,44
 92 439 92 439 52 375 c 0,45,46
 22 325 22 325 40 274 c 0,47,48
 49 247 49 247 71 226 c 0,49,50
 111 186 111 186 188 195 c 2,51,-1
 274 205 l 2,52,53
 308 207 308 207 333 198 c 0,54,55
 365 188 365 188 336 144 c 0,56,57
 318 117 318 117 294 102 c 2,58,-1
 287 98 l 2,59,60
 261 84 261 84 220 101 c 2,61,-1
 179 116 l 1,62,63
 177 116 177 116 174 117 c 0,64,65
 157 120 157 120 107 145 c 0,66,67
 62 167 62 167 33 146 c 0,0,1
EndSplineSet
EndChar
StartChar: t
Encoding: 116 116 87
Width: 355
GlyphClass: 2
Flags: W
Fore
38 504 m 0,0,1
 49 517 49 517 77 504 c 0,2,3
 106 492 106 492 119 504 c 0,4,5
 129 515 129 515 123 548 c 0,6,7
 117 576 117 576 128 587 c 0,8,9
 164 625 164 625 207 612 c 0,10,11
 228 605 228 605 245 587 c 0,12,13
 255 575 255 575 245 539 c 0,14,15
 239 518 239 518 242 508 c 1,16,-1
 248 497 l 1,17,18
 259 485 259 485 285 500 c 256,19,20
 311 515 311 515 323 504 c 0,21,22
 354 471 354 471 343 398 c 0,23,24
 338 364 338 364 329 355 c 0,25,26
 317 344 317 344 293 363 c 2,27,-1
 273 376 l 1,28,29
 262 381 262 381 254 373 c 0,30,31
 224 346 224 346 223 327 c 2,32,-1
 224 274 l 1,33,-1
 219 197 l 1,34,35
 221 171 221 171 239 145 c 0,36,37
 249 130 249 130 280 138 c 0,38,39
 310 146 310 146 323 131 c 1,40,41
 339 106 339 106 332 76 c 0,42,43
 327 59 327 59 317 48 c 0,44,45
 260 -12 260 -12 186 5 c 0,46,47
 138 17 138 17 104 59 c 0,48,49
 72 97 72 97 83 168 c 2,50,-1
 97 256 l 1,51,52
 97 261 97 261 98 266 c 2,53,54
 98 277 98 277 112 317 c 0,55,56
 121 345 121 345 110 362 c 0,57,58
 100 377 100 377 71 367 c 0,59,60
 42 356 42 356 32 366 c 0,61,62
 30 368 30 368 29 370 c 0,63,64
 0 409 0 409 14 460 c 0,65,66
 21 485 21 485 38 504 c 0,0,1
EndSplineSet
EndChar
StartChar: u
Encoding: 117 117 88
Width: 462
GlyphClass: 2
Flags: W
Fore
41 462 m 0,0,1
 5 428 5 428 18 365 c 2,2,-1
 36 282 l 2,3,4
 38 267 38 267 38 253 c 0,5,6
 38 231 38 231 24 162 c 0,7,8
 11 100 11 100 35 62 c 1,9,10
 37 60 37 60 38 58 c 0,11,12
 72 10 72 10 150 7 c 0,13,14
 163 7 163 7 182 7 c 0,15,16
 202 8 202 8 233 32 c 0,17,18
 262 53 262 53 284 49 c 0,19,20
 292 48 292 48 300 33 c 0,21,22
 305 25 305 25 311 22 c 0,23,24
 352 5 352 5 372 18 c 0,25,26
 375 20 375 20 377 22 c 0,27,28
 425 64 425 64 421 143 c 2,29,-1
 411 257 l 2,30,31
 411 276 411 276 412 292 c 0,32,33
 414 308 414 308 432 369 c 0,34,35
 449 424 449 424 425 453 c 1,36,37
 424 455 424 455 422 457 c 0,38,39
 391 492 391 492 345 481 c 0,40,41
 324 477 324 477 308 463 c 0,42,43
 279 438 279 438 286 384 c 2,44,-1
 293 323 l 2,45,46
 293 306 293 306 290 292 c 2,47,-1
 277 194 l 2,48,49
 268 158 268 158 239 139 c 0,50,51
 213 122 213 122 186 130 c 0,52,53
 170 135 170 135 158 148 c 0,54,55
 130 179 130 179 144 235 c 0,56,57
 160 299 160 299 161 310 c 0,58,59
 161 328 l 0,60,61
 161 336 161 336 167 391 c 0,62,63
 172 434 172 434 149 456 c 0,64,65
 113 491 113 491 70 478 c 0,66,67
 54 474 54 474 41 462 c 0,0,1
EndSplineSet
EndChar
StartChar: v
Encoding: 118 118 89
Width: 425
GlyphClass: 2
Flags: W
Fore
3 395 m 0,0,1
 1 454 1 454 77 413 c 0,2,3
 96 403 96 403 115 389 c 0,4,5
 140 371 140 371 158 299 c 0,6,7
 175 235 175 235 190 222 c 0,8,9
 199 214 199 214 212 215 c 0,10,11
 241 217 241 217 253 276 c 2,12,-1
 269 357 l 2,13,14
 279 392 279 392 297 406 c 0,15,16
 356 454 356 454 386 423 c 0,17,18
 393 417 393 417 398 406 c 0,19,20
 425 349 425 349 385 250 c 1,21,22
 392 266 392 266 355 180 c 0,23,24
 312 79 312 79 299 57 c 0,25,26
 263 0 263 0 216 0 c 0,27,28
 173 0 173 0 141 62 c 2,29,-1
 92 163 l 2,30,31
 38 262 38 262 31 278 c 0,32,33
 6 336 6 336 3 395 c 0,0,1
EndSplineSet
EndChar
StartChar: w
Encoding: 119 119 90
Width: 702
GlyphClass: 2
Flags: W
Fore
375 406 m 0,0,1
 344 424 344 424 318 416 c 0,2,3
 307 413 307 413 297 406 c 0,4,5
 267 385 267 385 269 316 c 0,6,7
 271 254 271 254 266 240 c 0,8,9
 260 223 260 223 244 217 c 1,10,-1
 232 215 l 2,11,12
 196 212 196 212 185 257 c 2,13,-1
 169 339 l 2,14,15
 158 375 158 375 135 389 c 0,16,17
 87 419 87 419 49 418 c 0,18,19
 22 418 22 418 23 395 c 0,20,21
 26 318 26 318 74 231 c 1,22,23
 60 256 60 256 112 163 c 0,24,25
 119 150 119 150 148 77 c 0,26,27
 173 14 173 14 205 3 c 0,28,29
 219 -2 219 -2 236 0 c 0,30,31
 285 5 285 5 302 81 c 2,32,-1
 319 176 l 2,33,34
 323 190 323 190 328 198 c 0,35,36
 349 232 349 232 370 189 c 2,37,-1
 417 71 l 2,38,39
 451 -1 451 -1 493 0 c 0,40,41
 553 1 553 1 587 70 c 0,42,43
 589 74 589 74 623 159 c 0,44,45
 628 170 628 170 632 180 c 0,46,47
 676 277 676 277 683 312 c 0,48,49
 695 365 695 365 675 406 c 0,50,51
 658 441 658 441 604 421 c 0,52,53
 588 415 588 415 574 406 c 0,54,55
 543 386 543 386 538 317 c 2,56,-1
 533 259 l 1,57,-1
 525 236 l 1,58,59
 514 216 514 216 489 215 c 0,60,61
 449 212 449 212 435 261 c 2,62,-1
 415 351 l 2,63,64
 402 391 402 391 375 406 c 0,0,1
EndSplineSet
EndChar
StartChar: x
Encoding: 120 120 91
Width: 505
GlyphClass: 2
Flags: W
Fore
18 432 m 0,0,1
 33 481 33 481 92 489 c 0,2,3
 123 493 123 493 153 483 c 0,4,5
 187 471 187 471 199 414 c 0,6,7
 211 355 211 355 216 345 c 0,8,9
 228 319 228 319 255 315 c 0,10,11
 296 310 296 310 325 363 c 2,12,-1
 361 435 l 2,13,14
 387 476 387 476 423 474 c 0,15,16
 466 472 466 472 483 429 c 0,17,18
 489 414 489 414 489 396 c 0,19,20
 489 361 489 361 445 333 c 0,21,22
 400 304 400 304 394 299 c 0,23,24
 372 280 372 280 369 255 c 0,25,26
 365 212 365 212 417 163 c 0,27,28
 463 120 463 120 468 114 c 0,29,30
 498 78 498 78 480 42 c 0,31,32
 462 5 462 5 408 14 c 0,33,34
 392 17 392 17 375 24 c 0,35,36
 343 38 343 38 328 98 c 0,37,38
 314 154 314 154 305 167 c 0,39,40
 299 176 299 176 291 181 c 1,41,-1
 274 188 l 1,42,-1
 267 189 l 2,43,44
 223 193 223 193 197 140 c 2,45,-1
 161 62 l 2,46,47
 138 22 138 22 105 12 c 0,48,49
 69 1 69 1 46 9 c 0,50,51
 31 15 31 15 24 30 c 0,52,53
 5 73 5 73 52 118 c 2,54,-1
 116 175 l 2,55,56
 153 213 153 213 150 252 c 0,57,58
 148 292 148 292 95 329 c 0,59,60
 44 364 44 364 37 371 c 0,61,62
 8 398 8 398 18 432 c 0,0,1
EndSplineSet
EndChar
StartChar: y
Encoding: 121 121 92
Width: 475
GlyphClass: 2
Flags: W
Fore
48 445 m 0,0,1
 -8 364 -8 364 42 248 c 0,2,3
 56 215 56 215 105 129 c 0,4,5
 122 99 122 99 179 75 c 0,6,7
 230 53 230 53 243 37 c 0,8,9
 255 22 255 22 255 0 c 0,10,11
 254 -55 254 -55 174 -82 c 2,12,-1
 138 -92 l 2,13,14
 116 -97 116 -97 76 -75 c 0,15,16
 39 -55 39 -55 22 -66 c 0,17,18
 18 -68 18 -68 15 -71 c 0,19,20
 -8 -93 -8 -93 6 -127 c 0,21,22
 12 -142 12 -142 24 -152 c 0,23,24
 117 -230 117 -230 256 -174 c 0,25,26
 294 -159 294 -159 336 -134 c 0,27,28
 386 -104 386 -104 410 -37 c 0,29,30
 415 -23 415 -23 426 15 c 0,31,32
 470 165 470 165 453 364 c 0,33,34
 447 427 447 427 438 457 c 0,35,36
 427 491 427 491 377 474 c 0,37,38
 347 463 347 463 327 442 c 0,39,40
 293 406 293 406 318 317 c 0,41,42
 341 237 341 237 342 232 c 0,43,44
 351 176 351 176 306 168 c 0,45,46
 243 156 243 156 219 227 c 0,47,48
 212 248 212 248 195 350 c 0,49,50
 183 428 183 428 162 466 c 0,51,52
 144 499 144 499 97 481 c 0,53,54
 65 470 65 470 48 445 c 0,0,1
EndSplineSet
EndChar
StartChar: z
Encoding: 122 122 93
Width: 531
GlyphClass: 2
Flags: W
Fore
68 473 m 0,0,1
 36 463 36 463 26 427 c 0,2,3
 19 402 19 402 32 382 c 0,4,5
 70 322 70 322 248 362 c 0,6,7
 356 385 356 385 355 385 c 1,8,9
 374 388 374 388 375 382 c 256,10,11
 376 376 376 376 360 360 c 0,12,13
 313 315 313 315 222 273 c 0,14,15
 110 220 110 220 49 178 c 0,16,17
 19 158 19 158 22 116 c 0,18,19
 24 79 24 79 52 67 c 0,20,21
 191 7 191 7 319 30 c 0,22,23
 379 40 379 40 452 68 c 0,24,25
 488 82 488 82 485 105 c 0,26,27
 483 124 483 124 457 157 c 0,28,29
 422 199 422 199 285 142 c 0,30,31
 211 111 211 111 204 111 c 0,32,33
 193 110 193 110 204 127 c 0,34,35
 205 129 205 129 207 131 c 0,36,37
 237 172 237 172 304 210 c 0,38,39
 375 250 375 250 403 270 c 2,40,-1
 474 321 l 2,41,42
 494 339 494 339 503 380 c 0,43,44
 505 389 505 389 508 405 c 0,45,46
 521 475 521 475 423 490 c 0,47,48
 391 495 391 495 338 495 c 2,49,-1
 198 496 l 2,50,51
 131 493 131 493 68 473 c 0,0,1
EndSplineSet
EndChar
StartChar: braceleft
Encoding: 123 123 94
Width: 340
GlyphClass: 2
Flags: W
Fore
303 776 m 0,0,1
 259 808 259 808 207 795 c 0,2,3
 191 791 191 791 177 782 c 0,4,5
 129 752 129 752 113 684 c 2,6,-1
 93 590 l 1,7,-1
 84 564 l 2,8,9
 79 551 79 551 47 492 c 0,10,11
 21 443 21 443 24 400 c 0,12,13
 26 371 26 371 55 333 c 0,14,15
 76 305 76 305 84 285 c 0,16,17
 99 246 99 246 97 160 c 0,18,19
 96 84 96 84 116 53 c 0,20,21
 128 34 128 34 150 20 c 0,22,23
 197 -9 197 -9 259 2 c 0,24,25
 294 8 294 8 315 26 c 0,26,27
 350 57 350 57 330 109 c 0,28,29
 321 133 321 133 303 150 c 0,30,31
 289 163 289 163 256 153 c 0,32,33
 221 142 221 142 207 154 c 0,34,35
 182 175 182 175 181 222 c 0,36,37
 181 272 181 272 174 291 c 0,38,39
 169 306 169 306 142 347 c 0,40,41
 124 374 124 374 122 400 c 0,42,43
 119 441 119 441 147 496 c 0,44,45
 167 538 167 538 174 563 c 0,46,47
 176 569 176 569 177 609 c 0,48,49
 178 633 178 633 192 646 c 0,50,51
 208 662 208 662 251 656 c 0,52,53
 291 651 291 651 306 665 c 0,54,55
 308 667 308 667 309 669 c 0,56,57
 337 705 337 705 326 743 c 0,58,59
 320 764 320 764 303 776 c 0,0,1
EndSplineSet
EndChar
StartChar: bar
Encoding: 124 124 95
Width: 200
GlyphClass: 2
Flags: W
Fore
60 781 m 0,0,1
 50 744 50 744 61 680 c 0,2,3
 67 642 67 642 68 618 c 0,4,5
 68 595 68 595 55 521 c 0,6,7
 46 462 46 462 63 424 c 0,8,9
 70 408 70 408 109 409 c 0,10,11
 142 409 142 409 144 422 c 0,12,13
 152 468 152 468 143 549 c 0,14,15
 140 585 140 585 140 612 c 2,16,-1
 145 741 l 2,17,18
 145 760 145 760 142 778 c 0,19,20
 139 794 139 794 99 794 c 0,21,22
 64 795 64 795 60 781 c 0,0,1
60 381 m 0,23,24
 50 344 50 344 61 280 c 0,25,26
 67 242 67 242 68 218 c 0,27,28
 68 195 68 195 55 121 c 0,29,30
 46 62 46 62 63 24 c 0,31,32
 70 8 70 8 109 9 c 0,33,34
 142 9 142 9 144 22 c 0,35,36
 152 68 152 68 143 149 c 0,37,38
 140 185 140 185 140 212 c 2,39,-1
 145 341 l 2,40,41
 145 360 145 360 142 378 c 0,42,43
 139 394 139 394 99 394 c 0,44,45
 64 395 64 395 60 381 c 0,23,24
EndSplineSet
EndChar
StartChar: asciitilde
Encoding: 126 126 97
Width: 373
GlyphClass: 2
Flags: W
Fore
30 396 m 0,0,1
 4 344 4 344 21 316 c 0,2,3
 26 308 26 308 36 303 c 0,4,5
 61 290 61 290 88 324 c 0,6,7
 118 362 118 362 121 365 c 0,8,9
 139 382 139 382 159 381 c 0,10,11
 183 380 183 380 206 346 c 0,12,13
 228 314 228 314 242 307 c 0,14,15
 249 304 249 304 258 303 c 0,16,17
 299 300 299 300 327 328 c 0,18,19
 339 340 339 340 348 357 c 0,20,21
 388 430 388 430 363 465 c 1,22,-1
 352 476 l 2,23,24
 349 478 349 478 345 480 c 0,25,26
 326 489 326 489 307 460 c 0,27,28
 285 427 285 427 277 421 c 0,29,30
 268 414 268 414 258 414 c 0,31,32
 235 413 235 413 211 444 c 0,33,34
 187 473 187 473 172 478 c 1,35,-1
 159 480 l 1,36,37
 99 480 99 480 60 440 c 2,38,-1
 41 416 l 2,39,40
 35 407 35 407 30 396 c 0,0,1
EndSplineSet
EndChar
StartChar: uni007F
Encoding: 127 127 98
Width: 1597
GlyphClass: 2
Flags: W
Fore
1372 532 m 0,0,1
 1376 523 1376 523 1394 509 c 0,2,3
 1401 504 1401 504 1406 498 c 0,4,5
 1418 484 1418 484 1439 504 c 0,6,7
 1447 512 1447 512 1450 522 c 0,8,9
 1455 539 1455 539 1432 561 c 0,10,11
 1407 584 1407 584 1407 599 c 0,12,13
 1407 601 1407 601 1408 604 c 0,14,15
 1409 610 1409 610 1423 617 c 0,16,17
 1432 621 1432 621 1434 628 c 0,18,19
 1437 638 1437 638 1436 645 c 0,20,21
 1434 652 1434 652 1428 655 c 0,22,23
 1417 662 1417 662 1394 649 c 0,24,25
 1386 644 1386 644 1381 642 c 1,26,-1
 1355 626 l 1,27,-1
 1354 626 l 1,28,29
 1334 620 1334 620 1284 624 c 2,30,-1
 1225 625 l 1,31,-1
 1206 632 l 2,32,33
 1200 635 1200 635 1195 640 c 0,34,35
 1187 647 1187 647 1186 670 c 0,36,37
 1186 678 1186 678 1184 684 c 1,38,-1
 1181 712 l 1,39,-1
 1176 716 l 2,40,41
 1175 717 1175 717 1174 717 c 0,42,43
 1163 718 1163 718 1158 702 c 2,44,-1
 1152 683 l 1,45,-1
 1143 646 l 1,46,47
 1141 642 l 0,48,49
 1126 621 1126 621 1088 600 c 2,50,-1
 1056 581 l 1,51,-1
 1045 571 l 1,52,-1
 996 525 l 2,53,54
 976 503 976 503 970 474 c 0,55,56
 960 427 960 427 957 359 c 2,57,-1
 956 336 l 1,58,-1
 953 233 l 2,59,60
 952 214 952 214 978 201 c 0,61,62
 1002 189 1002 189 1008 185 c 0,63,64
 1012 182 1012 182 1065 150 c 0,65,66
 1083 138 l 2,67,-1
 1118 114 l 2,68,69
 1136 100 1136 100 1145 89 c 0,70,71
 1152 80 1152 80 1166 99 c 0,72,73
 1175 112 1175 112 1180 116 c 2,74,-1
 1200 134 l 1,75,76
 1201 134 1201 134 1202 135 c 0,77,78
 1209 139 1209 139 1238 144 c 0,79,80
 1248 145 1248 145 1256 149 c 0,81,82
 1292 166 1292 166 1293 167 c 0,83,84
 1299 172 1299 172 1292 176 c 0,85,86
 1277 182 1277 182 1253 177 c 2,87,-1
 1238 176 l 1,88,-1
 1200 171 l 1,89,90
 1194 172 1194 172 1193 179 c 0,91,92
 1190 226 1190 226 1192 294 c 0,93,94
 1193 340 1193 340 1196 385 c 0,95,96
 1201 452 1201 452 1216 532 c 0,97,98
 1224 575 1224 575 1307 570 c 0,99,100
 1323 569 1323 569 1340 566 c 0,101,102
 1356 563 1356 563 1372 532 c 0,0,1
772 516 m 1,103,-1
 745 608 l 2,104,105
 741 620 741 620 736 630 c 2,106,-1
 701 710 l 2,107,108
 683 744 683 744 652 765 c 0,109,110
 615 791 615 791 553 792 c 2,111,-1
 516 793 l 2,112,113
 479 794 479 794 446 786 c 2,114,-1
 422 779 l 2,115,116
 353 758 353 758 282 714 c 0,117,118
 192 658 192 658 145 610 c 2,119,-1
 120 583 l 2,120,121
 82 541 82 541 54 478 c 0,122,123
 38 444 38 444 33 408 c 0,124,125
 20 320 20 320 28 261 c 0,126,127
 29 251 29 251 31 240 c 0,128,129
 45 161 45 161 55 139 c 0,130,131
 66 113 66 113 88 90 c 0,132,133
 124 52 124 52 190 35 c 2,134,-1
 238 24 l 2,135,136
 305 7 305 7 405 9 c 0,137,138
 433 10 433 10 436 10 c 2,139,-1
 497 11 l 2,140,141
 514 13 514 13 530 20 c 0,142,143
 578 40 578 40 613 82 c 0,144,145
 621 91 621 91 634 108 c 2,146,-1
 728 231 l 1,147,-1
 757 291 l 1,148,149
 759 293 759 293 760 292 c 0,150,151
 768 286 768 286 787 207 c 0,152,153
 803 137 803 137 818 123 c 0,154,155
 875 69 875 69 929 47 c 0,156,157
 939 43 939 43 950 39 c 0,158,159
 1035 10 1035 10 1139 13 c 0,160,161
 1157 14 1157 14 1196 16 c 0,162,163
 1283 21 1283 21 1321 33 c 0,164,165
 1338 39 1338 39 1356 48 c 0,166,167
 1390 64 1390 64 1423 104 c 0,168,169
 1425 106 1425 106 1430 112 c 0,170,171
 1491 184 1491 184 1504 205 c 0,172,173
 1529 245 1529 245 1540 294 c 2,174,-1
 1571 433 l 2,175,176
 1583 504 1583 504 1566 582 c 0,177,178
 1551 650 1551 650 1518 693 c 0,179,180
 1513 700 1513 700 1506 708 c 0,181,182
 1469 751 1469 751 1418 770 c 2,183,-1
 1410 773 l 2,184,185
 1339 798 1339 798 1251 793 c 2,186,-1
 1216 790 l 2,187,188
 1163 786 1163 786 1092 758 c 0,189,190
 1003 723 1003 723 949 684 c 0,191,192
 944 680 944 680 938 676 c 0,193,194
 874 627 874 627 792 488 c 0,195,196
 787 480 787 480 784 474 c 0,197,198
 782 471 782 471 780 482 c 2,199,-1
 772 516 l 1,103,-1
812 376 m 0,200,201
 820 450 820 450 873 520 c 0,202,203
 874 521 874 521 924 582 c 0,204,205
 965 632 965 632 1025 670 c 0,206,207
 1031 674 1031 674 1038 678 c 0,208,209
 1113 724 1113 724 1165 737 c 0,210,211
 1178 740 1178 740 1192 743 c 0,212,213
 1287 760 1287 760 1341 749 c 0,214,215
 1362 745 1362 745 1386 736 c 0,216,217
 1438 717 1438 717 1462 678 c 2,218,-1
 1466 672 l 2,219,220
 1509 598 1509 598 1507 503 c 0,221,222
 1507 480 1507 480 1504 434 c 0,223,224
 1496 311 1496 311 1454 224 c 0,225,226
 1442 198 1442 198 1424 168 c 0,227,228
 1396 121 1396 121 1358 97 c 2,229,-1
 1350 92 l 2,230,231
 1310 69 1310 69 1247 63 c 2,232,-1
 1234 62 l 2,233,234
 1199 59 1199 59 1142 70 c 0,235,236
 1052 87 1052 87 1040 91 c 0,237,238
 1009 100 1009 100 980 118 c 0,239,240
 910 160 910 160 870 219 c 0,241,242
 859 234 859 234 848 254 c 0,243,244
 814 312 814 312 811 348 c 0,245,246
 810 361 810 361 812 376 c 0,200,201
346 64 m 0,247,248
 289 66 289 66 222 93 c 0,249,250
 166 116 166 116 156 122 c 0,251,252
 139 133 139 133 126 150 c 0,253,254
 85 203 85 203 79 281 c 0,255,256
 78 296 78 296 76 330 c 0,257,258
 74 379 74 379 82 410 c 0,259,260
 87 431 87 431 98 454 c 0,261,262
 127 515 127 515 185 567 c 0,263,264
 195 577 195 577 218 596 c 0,265,266
 297 663 297 663 337 685 c 0,267,268
 372 703 372 703 414 714 c 0,269,270
 478 731 478 731 521 721 c 0,271,272
 534 718 534 718 548 712 c 0,273,274
 595 693 595 693 628 646 c 2,275,-1
 642 626 l 2,276,277
 671 582 671 582 688 507 c 0,278,279
 695 477 695 477 698 464 c 2,280,-1
 719 383 l 2,281,282
 724 356 724 356 720 328 c 0,283,284
 712 272 712 272 672 217 c 0,285,286
 667 210 667 210 660 201 c 0,287,288
 612 138 612 138 569 112 c 0,289,290
 553 102 553 102 534 93 c 0,291,292
 466 62 466 62 382 63 c 0,293,294
 367 63 367 63 346 64 c 0,247,248
340 606 m 0,295,296
 362 607 362 607 424 606 c 2,297,-1
 496 602 l 1,298,-1
 498 602 l 2,299,300
 533 604 533 604 549 609 c 0,301,302
 557 612 557 612 586 630 c 0,303,304
 589 632 589 632 592 633 c 1,305,306
 596 636 596 636 600 625 c 0,307,308
 602 620 602 620 604 618 c 2,309,-1
 614 604 l 1,310,-1
 614 598 l 1,311,312
 613 595 613 595 602 591 c 0,313,314
 598 590 598 590 596 587 c 0,315,316
 592 581 592 581 594 573 c 0,317,318
 597 565 597 565 616 557 c 0,319,320
 629 551 629 551 630 542 c 0,321,322
 631 534 631 534 616 520 c 0,323,324
 600 504 600 504 584 502 c 0,325,326
 571 500 571 500 541 511 c 0,327,328
 528 516 528 516 517 516 c 0,329,330
 466 519 466 519 421 511 c 0,331,332
 400 507 400 507 387 502 c 0,333,334
 376 497 376 497 384 476 c 0,335,336
 388 465 388 465 389 459 c 2,337,-1
 393 411 l 2,338,339
 395 390 395 390 429 397 c 0,340,341
 474 406 474 406 484 405 c 0,342,343
 489 404 489 404 539 407 c 0,344,345
 576 410 576 410 583 386 c 0,346,347
 585 377 585 377 570 370 c 2,348,-1
 554 360 l 1,349,-1
 535 331 l 1,350,-1
 526 325 l 1,351,352
 513 320 513 320 487 328 c 2,353,-1
 468 333 l 1,354,-1
 432 341 l 1,355,356
 425 341 425 341 419 337 c 0,357,358
 404 326 404 326 405 295 c 2,359,-1
 405 275 l 2,360,361
 400 219 400 219 401 207 c 0,362,363
 403 194 403 194 408 180 c 0,364,365
 411 171 411 171 394 161 c 0,366,367
 387 156 387 156 384 154 c 2,368,-1
 364 135 l 1,369,370
 358 132 358 132 351 132 c 0,371,372
 340 132 340 132 325 149 c 2,373,-1
 314 160 l 1,374,-1
 281 189 l 2,375,376
 274 194 274 194 265 196 c 0,377,378
 252 198 252 198 224 182 c 0,379,380
 206 172 206 172 194 159 c 1,381,-1
 186 138 l 1,382,-1
 182 136 l 1,383,384
 177 136 177 136 172 146 c 1,385,386
 169 150 169 150 167 152 c 1,387,-1
 151 158 l 1,388,389
 150 160 150 160 151 161 c 2,390,391
 161 200 161 200 194 221 c 2,392,393
 196 223 196 223 199 225 c 0,394,395
 222 240 222 240 273 243 c 0,396,397
 298 245 298 245 312 249 c 0,398,399
 327 253 327 253 324 282 c 0,400,401
 323 294 323 294 324 299 c 1,402,403
 325 334 325 334 317 349 c 0,404,405
 310 361 310 361 296 366 c 1,406,407
 290 367 290 367 265 364 c 1,408,-1
 230 354 l 1,409,-1
 222 357 l 1,410,411
 221 359 221 359 219 360 c 1,412,413
 215 367 215 367 226 380 c 0,414,415
 229 384 229 384 231 387 c 0,416,417
 248 415 248 415 256 421 c 0,418,419
 258 423 258 423 261 424 c 2,420,421
 268 429 268 429 286 431 c 1,422,-1
 303 429 l 1,423,-1
 305 430 l 1,424,425
 321 444 321 444 317 480 c 0,426,427
 313 507 313 507 316 520 c 1,428,-1
 319 587 l 1,429,430
 323 605 323 605 340 606 c 0,295,296
1126 202 m 0,431,432
 1123 186 1123 186 1090 207 c 0,433,434
 1076 216 1076 216 1072 218 c 2,435,-1
 1033 237 l 2,436,437
 1019 246 1019 246 1021 261 c 0,438,439
 1023 277 1023 277 1029 380 c 0,440,441
 1031 408 l 0,442,443
 1039 497 1039 497 1044 533 c 0,444,445
 1046 545 1046 545 1067 552 c 0,446,447
 1078 555 1078 555 1083 558 c 2,448,-1
 1107 572 l 1,449,450
 1112 573 1112 573 1118 572 c 0,451,452
 1138 568 1138 568 1140 550 c 0,453,454
 1142 535 1142 535 1141 498 c 0,455,456
 1140 462 1140 462 1135 355 c 2,457,-1
 1130 236 l 2,458,459
 1129 219 1129 219 1126 202 c 0,431,432
EndSplineSet
EndChar
StartChar: cent
Encoding: 162 162 101
Width: 365
GlyphClass: 2
Flags: W
Fore
174 753 m 0,0,1
 177 779 177 779 197 780 c 0,2,3
 216 781 216 781 223 758 c 0,4,5
 225 753 225 753 225 747 c 0,6,7
 228 690 228 690 225 493 c 0,8,9
 224 451 224 451 224 414 c 2,10,-1
 229 121 l 2,11,12
 229 79 229 79 227 36 c 0,13,14
 225 10 225 10 206 8 c 0,15,16
 197 8 197 8 189 14 c 0,17,18
 178 22 178 22 176 39 c 0,19,20
 165 120 165 120 174 277 c 0,21,22
 179 370 179 370 179 426 c 2,23,-1
 170 673 l 2,24,25
 171 713 171 713 174 753 c 0,0,1
320 534 m 0,26,27
 347 506 347 506 339 468 c 1,28,-1
 330 447 l 1,29,-1
 320 433 l 1,30,31
 300 413 300 413 255 428 c 0,32,33
 209 444 209 444 193 441 c 0,34,35
 182 439 182 439 173 431 c 0,36,37
 130 392 130 392 138 339 c 0,38,39
 141 315 141 315 156 296 c 0,40,41
 175 273 175 273 222 285 c 0,42,43
 271 297 271 297 286 294 c 0,44,45
 299 291 299 291 308 282 c 0,46,47
 346 244 346 244 336 198 c 0,48,49
 332 180 332 180 320 167 c 0,50,51
 263 102 263 102 173 117 c 0,52,53
 121 126 121 126 77 159 c 0,54,55
 25 200 25 200 25 284 c 0,56,57
 25 286 25 286 29 373 c 0,58,59
 33 453 33 453 40 476 c 0,60,61
 52 513 52 513 84 536 c 0,62,63
 168 596 168 596 250 574 c 0,64,65
 290 564 290 564 320 534 c 0,26,27
EndSplineSet
EndChar
StartChar: sterling
Encoding: 163 163 102
Width: 565
GlyphClass: 2
Flags: W
Fore
111 396 m 0,0,1
 114 369 114 369 111 350 c 0,2,3
 109 341 109 341 109 323 c 2,4,-1
 108 234 l 2,5,6
 106 213 106 213 100 186 c 0,7,8
 94 158 94 158 50 117 c 0,9,10
 14 82 14 82 11 64 c 0,11,12
 9 50 9 50 19 36 c 0,13,14
 53 -12 53 -12 121 13 c 2,15,-1
 240 67 l 2,16,17
 284 83 284 83 319 81 c 0,18,19
 353 79 353 79 411 41 c 0,20,21
 462 9 462 9 487 10 c 0,22,23
 504 12 504 12 520 24 c 0,24,25
 567 60 567 60 551 126 c 0,26,27
 542 162 542 162 517 189 c 0,28,29
 489 220 489 220 444 211 c 2,30,-1
 382 197 l 2,31,32
 333 191 333 191 286 216 c 2,33,-1
 230 244 l 1,34,35
 221 252 221 252 218 284 c 2,36,-1
 217 302 l 1,37,-1
 207 367 l 1,38,39
 207 381 207 381 215 398 c 0,40,41
 225 420 225 420 263 407 c 0,42,43
 307 393 307 393 320 395 c 0,44,45
 330 397 330 397 337 404 c 0,46,47
 367 434 367 434 357 472 c 0,48,49
 353 486 353 486 343 497 c 0,50,51
 325 516 325 516 271 498 c 0,52,53
 225 482 225 482 215 488 c 0,54,55
 208 492 208 492 206 503 c 0,56,57
 194 582 194 582 193 585 c 1,58,59
 191 630 191 630 217 664 c 0,60,61
 258 718 258 718 316 707 c 0,62,63
 323 706 323 706 331 703 c 0,64,65
 352 696 352 696 363 659 c 2,66,-1
 374 627 l 2,67,68
 381 612 381 612 395 606 c 0,69,70
 450 581 450 581 485 597 c 0,71,72
 501 605 501 605 509 621 c 0,73,74
 534 673 534 673 465 726 c 2,75,-1
 433 748 l 2,76,77
 316 818 316 818 209 792 c 0,78,79
 173 783 173 783 136 763 c 0,80,81
 108 748 108 748 96 704 c 1,82,83
 96 705 96 705 91 685 c 0,84,85
 82 653 82 653 92 594 c 2,86,-1
 97 550 l 2,87,88
 97 531 97 531 92 512 c 0,89,90
 88 498 88 498 61 501 c 0,91,92
 32 505 32 505 24 494 c 0,93,94
 5 468 5 468 15 439 c 0,95,96
 19 425 19 425 30 413 c 0,97,98
 40 401 40 401 78 408 c 0,99,100
 107 412 107 412 111 396 c 0,0,1
EndSplineSet
EndChar
StartChar: currency
Encoding: 164 164 103
Width: 800
GlyphClass: 2
Flags: W
Fore
299 504 m 0,0,1
 249 450 249 450 268 376 c 0,2,3
 278 335 278 335 309 305 c 0,4,5
 358 255 358 255 424 263 c 0,6,7
 463 268 463 268 491 295 c 0,8,9
 545 345 545 345 536 419 c 0,10,11
 530 470 530 470 494 506 c 0,12,13
 444 555 444 555 375 544 c 0,14,15
 330 537 330 537 299 504 c 0,0,1
268 680 m 0,16,17
 375 652 375 652 441 662 c 0,18,19
 470 666 470 666 502 677 c 0,20,21
 527 685 527 685 555 722 c 0,22,23
 581 757 581 757 600 763 c 0,24,25
 609 767 609 767 619 767 c 0,26,27
 678 769 678 769 716 737 c 0,28,29
 737 719 737 719 746 692 c 0,30,31
 747 687 747 687 748 683 c 0,32,33
 754 655 754 655 723 626 c 2,34,-1
 695 599 l 2,35,36
 683 584 683 584 679 569 c 0,37,38
 647 452 647 452 660 376 c 0,39,40
 666 340 666 340 682 301 c 0,41,42
 690 281 690 281 726 260 c 0,43,44
 758 242 758 242 764 225 c 0,45,46
 766 219 766 219 766 211 c 0,47,48
 765 136 765 136 697 96 c 0,49,50
 666 77 666 77 628 73 c 0,51,52
 601 70 601 70 572 101 c 0,53,54
 542 133 542 133 525 140 c 1,55,-1
 517 142 l 2,56,57
 445 160 445 160 375 144 c 2,58,-1
 326 131 l 2,59,60
 307 125 307 125 278 96 c 0,61,62
 252 69 252 69 227 71 c 0,63,64
 142 77 142 77 104 133 c 0,65,66
 89 156 89 156 86 185 c 0,67,68
 84 206 84 206 112 224 c 0,69,70
 142 243 142 243 149 260 c 0,71,72
 182 350 182 350 168 420 c 0,73,74
 163 447 163 447 151 477 c 0,75,76
 140 505 140 505 95 530 c 0,77,78
 53 553 53 553 43 568 c 0,79,80
 34 581 34 581 34 599 c 0,81,82
 34 673 34 673 98 713 c 0,83,84
 127 731 127 731 163 737 c 0,85,86
 189 741 189 741 218 714 c 0,87,88
 249 685 249 685 268 680 c 0,16,17
EndSplineSet
EndChar
StartChar: yen
Encoding: 165 165 104
Width: 757
GlyphClass: 2
Flags: W
Fore
18 738 m 0,0,1
 -6 680 -6 680 52 633 c 0,2,3
 60 626 60 626 133 579 c 0,4,5
 211 528 211 528 231 477 c 0,6,7
 244 443 244 443 247 426 c 0,8,9
 247 423 247 423 113 417 c 0,10,11
 51 414 51 414 51 411 c 1,12,-1
 44 379 l 1,13,-1
 46 364 l 1,14,15
 52 353 52 353 68 350 c 0,16,17
 96 345 96 345 209 349 c 0,18,19
 249 350 249 350 249 345 c 1,20,-1
 261 319 l 1,21,22
 264 305 264 305 252 300 c 0,23,24
 214 285 214 285 89 292 c 0,25,26
 50 295 50 295 50 291 c 1,27,-1
 41 261 l 1,28,-1
 41 245 l 1,29,30
 45 233 45 233 59 231 c 2,31,-1
 239 219 l 1,32,-1
 241 218 l 1,33,34
 230 141 230 141 230 136 c 0,35,36
 230 100 230 100 261 54 c 256,37,38
 292 8 292 8 358 5 c 0,39,40
 423 2 423 2 455 46 c 0,41,42
 459 51 459 51 462 57 c 0,43,44
 492 114 492 114 489 152 c 0,45,46
 488 157 488 157 481 207 c 0,47,48
 480 211 480 211 529 212 c 0,49,50
 638 213 638 213 663 219 c 0,51,52
 686 224 686 224 670 269 c 0,53,54
 668 277 668 277 666 279 c 0,55,56
 654 291 654 291 589 285 c 0,57,58
 513 278 513 278 486 291 c 0,59,60
 471 298 471 298 474 345 c 0,61,62
 474 349 474 349 562 349 c 0,63,64
 622 349 622 349 645 354 c 0,65,66
 679 361 679 361 664 399 c 0,67,68
 660 409 660 409 660 411 c 256,69,70
 660 413 660 413 524 421 c 2,71,-1
 476 426 l 1,72,73
 477 433 477 433 492 465 c 0,74,75
 515 516 515 516 600 560 c 0,76,77
 681 602 681 602 684 604 c 0,78,79
 748 643 748 643 737 700 c 0,80,81
 735 708 l 0,82,83
 717 772 717 772 631 772 c 0,84,85
 589 772 589 772 546 756 c 0,86,87
 498 738 498 738 475 659 c 2,88,-1
 450 569 l 2,89,90
 430 517 430 517 392 511 c 0,91,92
 384 510 384 510 375 510 c 0,93,94
 326 512 326 512 309 571 c 2,95,-1
 287 685 l 2,96,97
 271 740 271 740 234 759 c 0,98,99
 146 805 146 805 80 789 c 0,100,101
 35 779 35 779 18 738 c 0,0,1
EndSplineSet
EndChar
StartChar: section
Encoding: 167 167 106
Width: 522
GlyphClass: 2
Flags: W
Fore
302 447 m 0,0,1
 317 429 317 429 312 408 c 0,2,3
 310 397 310 397 302 390 c 0,4,5
 265 355 265 355 215 369 c 0,6,7
 187 377 187 377 170 399 c 0,8,9
 155 418 155 418 166 443 c 0,10,11
 171 454 171 454 182 462 c 0,12,13
 219 489 219 489 263 474 c 0,14,15
 285 465 285 465 302 447 c 0,0,1
155 139 m 2,16,17
 136 142 136 142 95 172 c 0,18,19
 61 198 61 198 45 187 c 0,20,21
 41 184 41 184 38 180 c 0,22,23
 6 141 6 141 61 90 c 0,24,25
 83 70 83 70 110 57 c 0,26,27
 226 1 226 1 333 38 c 0,28,29
 391 58 391 58 440 105 c 0,30,31
 493 156 493 156 492 247 c 0,32,33
 491 263 491 263 485 339 c 0,34,35
 477 423 477 423 460 456 c 0,36,37
 446 481 446 481 423 501 c 0,38,39
 393 526 393 526 335 524 c 2,40,-1
 283 524 l 2,41,42
 259 526 259 526 239 537 c 0,43,44
 194 561 194 561 184 573 c 0,45,46
 172 587 172 587 170 606 c 0,47,48
 165 652 165 652 199 683 c 0,49,50
 215 696 215 696 236 705 c 0,51,52
 268 718 268 718 315 697 c 0,53,54
 352 681 352 681 368 677 c 0,55,56
 383 673 383 673 426 645 c 0,57,58
 464 621 464 621 481 638 c 0,59,60
 485 642 l 0,61,62
 516 682 516 682 461 732 c 0,63,64
 440 752 440 752 413 765 c 0,65,66
 296 821 296 821 189 784 c 0,67,68
 131 764 131 764 83 717 c 0,69,70
 29 666 29 666 31 575 c 2,71,-1
 38 483 l 2,72,73
 45 399 45 399 63 366 c 0,74,75
 76 341 76 341 100 322 c 0,76,77
 137 291 137 291 203 289 c 0,78,79
 268 288 268 288 284 286 c 0,80,81
 295 285 295 285 338 293 c 0,82,83
 371 299 371 299 383 279 c 0,84,85
 411 229 411 229 351 174 c 0,86,87
 336 160 336 160 317 147 c 0,88,89
 275 120 275 120 210 130 c 2,90,-1
 155 139 l 2,16,17
EndSplineSet
EndChar
StartChar: dieresis
Encoding: 168 168 107
Width: 454
GlyphClass: 2
Flags: W
Fore
131 456 m 0,0,1
 101 439 101 439 75 447 c 0,2,3
 63 451 63 451 53 462 c 0,4,5
 30 489 30 489 39 522 c 0,6,7
 43 541 43 541 59 552 c 0,8,9
 94 576 94 576 134 553 c 0,10,11
 155 541 155 541 164 519 c 0,12,13
 175 494 175 494 150 470 c 0,14,15
 142 462 142 462 131 456 c 0,0,1
381 456 m 2,16,17
 351 439 351 439 325 447 c 0,18,19
 317 450 317 450 310 456 c 2,20,-1
 303 462 l 1,21,22
 280 489 280 489 289 522 c 0,23,24
 293 541 293 541 309 552 c 0,25,26
 344 576 344 576 384 553 c 0,27,28
 405 541 405 541 414 519 c 0,29,30
 425 494 425 494 400 470 c 2,31,-1
 381 456 l 2,16,17
EndSplineSet
EndChar
StartChar: copyright
Encoding: 169 169 108
Width: 707
GlyphClass: 2
Flags: W
Fore
210 627 m 0,0,1
 111 534 111 534 94 403 c 0,2,3
 75 263 75 263 161 164 c 0,4,5
 169 155 169 155 177 147 c 0,6,7
 253 72 253 72 366 91 c 0,8,9
 461 106 461 106 528 180 c 0,10,11
 620 282 620 282 618 414 c 0,12,13
 615 541 615 541 525 630 c 0,14,15
 451 703 451 703 347 691 c 0,16,17
 269 682 269 682 210 627 c 0,0,1
150 666 m 0,18,19
 242 758 242 758 366 764 c 0,20,21
 489 770 489 770 576 687 c 0,22,23
 684 583 684 583 685 430 c 0,24,25
 685 282 685 282 587 165 c 0,26,27
 580 158 580 158 573 150 c 0,28,29
 483 54 483 54 357 39 c 0,30,31
 221 23 221 23 127 111 c 0,32,33
 123 114 123 114 120 117 c 0,34,35
 12 223 12 223 20 381 c 0,36,37
 27 527 27 527 129 643 c 0,38,39
 139 655 139 655 150 666 c 0,18,19
491 584 m 0,40,41
 518 556 518 556 510 518 c 0,42,43
 505 498 505 498 491 483 c 0,44,45
 471 463 471 463 426 478 c 0,46,47
 380 494 380 494 364 491 c 0,48,49
 353 489 353 489 344 481 c 0,50,51
 301 442 301 442 309 389 c 0,52,53
 312 365 312 365 327 346 c 0,54,55
 346 323 346 323 393 335 c 0,56,57
 442 347 442 347 457 344 c 0,58,59
 470 341 470 341 479 332 c 0,60,61
 517 294 517 294 507 248 c 0,62,63
 503 230 503 230 491 217 c 0,64,65
 434 152 434 152 344 167 c 0,66,67
 292 176 292 176 248 209 c 0,68,69
 196 250 196 250 196 334 c 0,70,71
 196 336 196 336 200 423 c 0,72,73
 204 503 204 503 211 526 c 0,74,75
 223 563 223 563 255 586 c 0,76,77
 339 646 339 646 421 624 c 0,78,79
 461 614 461 614 491 584 c 0,40,41
EndSplineSet
EndChar
StartChar: ordfeminine
Encoding: 170 170 109
Width: 348
GlyphClass: 2
Flags: W
Fore
172 435 m 0,0,1
 164 435 164 435 113 445 c 0,2,3
 73 452 73 452 53 431 c 0,4,5
 33 411 33 411 39 383 c 0,6,7
 42 370 42 370 51 360 c 0,8,9
 71 337 71 337 116 344 c 0,10,11
 155 351 155 351 167 351 c 0,12,13
 174 351 174 351 231 342 c 0,14,15
 278 335 278 335 299 362 c 0,16,17
 315 383 315 383 301 411 c 0,18,19
 295 422 295 422 285 431 c 0,20,21
 263 450 263 450 219 441 c 0,22,23
 186 435 186 435 172 435 c 0,0,1
100 601 m 0,24,25
 123 627 123 627 152 618 c 0,26,27
 161 615 161 615 168 609 c 0,28,29
 185 593 185 593 179 569 c 0,30,31
 175 557 175 557 166 549 c 0,32,33
 148 532 148 532 123 539 c 0,34,35
 109 543 109 543 100 553 c 0,36,37
 87 566 87 566 91 585 c 0,38,39
 93 594 93 594 100 601 c 0,24,25
51 754 m 256,40,41
 40 740 40 740 43 724 c 1,42,-1
 50 711 l 1,43,-1
 51 709 l 1,44,45
 66 693 66 693 104 704 c 0,46,47
 143 715 143 715 158 705 c 0,48,49
 160 703 160 703 163 700 c 0,50,51
 171 692 171 692 169 680 c 0,52,53
 168 675 168 675 165 670 c 0,54,55
 153 653 153 653 117 652 c 0,56,57
 80 652 80 652 67 637 c 0,58,59
 19 582 19 582 35 531 c 0,60,61
 38 522 38 522 44 513 c 0,62,63
 73 470 73 470 124 486 c 2,64,-1
 181 506 l 2,65,66
 196 509 196 509 208 506 c 2,67,-1
 259 489 l 1,68,69
 272 487 272 487 285 492 c 0,70,71
 307 500 307 500 305 517 c 0,72,73
 302 531 302 531 277 535 c 2,74,-1
 254 541 l 1,75,-1
 245 549 l 1,76,77
 245 550 245 550 244 551 c 0,78,79
 224 584 224 584 244 645 c 0,80,81
 263 702 263 702 261 722 c 0,82,83
 259 743 259 743 244 760 c 0,84,85
 222 784 222 784 175 778 c 0,86,87
 138 773 138 773 132 772 c 1,88,-1
 80 771 l 1,89,90
 62 768 62 768 51 754 c 256,40,41
EndSplineSet
EndChar
StartChar: logicalnot
Encoding: 172 172 111
Width: 450
GlyphClass: 2
Flags: W
Fore
225 459 m 0,0,1
 207 459 207 459 137 473 c 0,2,3
 76 484 76 484 45 458 c 0,4,5
 41 455 41 455 38 452 c 0,6,7
 7 420 7 420 16 377 c 0,8,9
 21 357 21 357 35 341 c 0,10,11
 66 307 66 307 126 315 c 2,12,-1
 203 327 l 1,13,14
 210 327 210 327 216 327 c 0,15,16
 239 327 239 327 303 316 c 1,17,18
 305 315 305 315 303 253 c 0,19,20
 299 146 299 146 327 111 c 0,21,22
 345 87 345 87 371 100 c 0,23,24
 382 105 382 105 393 118 c 0,25,26
 429 159 429 159 422 298 c 0,27,28
 420 341 420 341 422 344 c 0,29,30
 448 378 448 378 426 420 c 0,31,32
 417 438 417 438 401 452 c 0,33,34
 368 481 368 481 308 471 c 0,35,36
 241 459 241 459 225 459 c 0,0,1
EndSplineSet
EndChar
StartChar: registered
Encoding: 174 174 113
Width: 707
GlyphClass: 2
Flags: W
Fore
210 627 m 0,0,1
 111 534 111 534 94 403 c 0,2,3
 75 263 75 263 161 164 c 0,4,5
 169 155 169 155 177 147 c 0,6,7
 253 72 253 72 366 91 c 0,8,9
 461 106 461 106 528 180 c 0,10,11
 620 282 620 282 618 414 c 0,12,13
 615 541 615 541 525 630 c 0,14,15
 451 703 451 703 347 691 c 0,16,17
 269 682 269 682 210 627 c 0,0,1
150 666 m 0,18,19
 242 758 242 758 366 764 c 0,20,21
 489 770 489 770 576 687 c 0,22,23
 684 583 684 583 685 430 c 0,24,25
 685 282 685 282 587 165 c 0,26,27
 580 158 580 158 573 150 c 0,28,29
 483 54 483 54 357 39 c 0,30,31
 221 23 221 23 127 111 c 0,32,33
 123 114 123 114 120 117 c 0,34,35
 12 223 12 223 20 381 c 0,36,37
 27 527 27 527 129 643 c 0,38,39
 139 655 139 655 150 666 c 0,18,19
326 182 m 0,40,41
 291 148 291 148 243 158 c 0,42,43
 218 164 218 164 199 182 c 0,44,45
 170 211 170 211 183 266 c 0,46,47
 198 331 198 331 199 338 c 1,48,49
 199 344 199 344 199 349 c 0,50,51
 200 376 200 376 184 456 c 0,52,53
 171 526 171 526 193 562 c 0,54,55
 200 572 200 572 210 582 c 0,56,57
 237 607 237 607 276 595 c 0,58,59
 291 591 291 591 305 582 c 0,60,61
 316 575 316 575 319 546 c 0,62,63
 321 523 321 523 334 518 c 0,64,65
 355 510 355 510 383 533 c 0,66,67
 412 556 412 556 429 558 c 0,68,69
 482 564 482 564 506 549 c 0,70,71
 511 546 511 546 516 542 c 0,72,73
 604 472 604 472 581 410 c 0,74,75
 577 400 l 0,76,77
 559 366 559 366 518 369 c 0,78,79
 499 371 499 371 484 381 c 0,80,81
 471 390 471 390 479 424 c 0,82,83
 486 456 486 456 471 463 c 0,84,85
 410 490 410 490 352 406 c 2,86,-1
 329 368 l 2,87,88
 322 356 322 356 327 327 c 0,89,90
 329 317 329 317 329 310 c 0,91,92
 329 298 329 298 339 246 c 0,93,94
 348 204 348 204 326 182 c 0,40,41
EndSplineSet
EndChar
StartChar: degree
Encoding: 176 176 115
Width: 300
GlyphClass: 2
Flags: W
Fore
150 734 m 0,0,1
 178 735 178 735 195 712 c 0,2,3
 204 700 204 700 205 684 c 0,4,5
 207 653 207 653 183 634 c 0,6,7
 169 623 169 623 152 622 c 0,8,9
 122 620 122 620 104 646 c 0,10,11
 95 660 95 660 95 676 c 0,12,13
 94 707 94 707 119 724 c 0,14,15
 133 733 133 733 150 734 c 0,0,1
150 788 m 0,16,17
 91 785 91 785 59 737 c 0,18,19
 41 708 41 708 42 675 c 0,20,21
 43 617 43 617 92 586 c 0,22,23
 120 567 120 567 154 568 c 0,24,25
 212 572 212 572 242 623 c 0,26,27
 260 654 260 654 258 690 c 0,28,29
 254 747 254 747 205 774 c 0,30,31
 179 789 179 789 150 788 c 0,16,17
EndSplineSet
EndChar
StartChar: plusminus
Encoding: 177 177 116
Width: 450
GlyphClass: 2
Flags: W
Fore
225 256 m 0,0,1
 209 257 209 257 134 267 c 0,2,3
 71 276 71 276 38 251 c 0,4,5
 7 227 7 227 16 195 c 0,6,7
 21 180 21 180 35 168 c 0,8,9
 67 142 67 142 134 150 c 0,10,11
 201 157 201 157 216 158 c 0,12,13
 231 158 231 158 314 148 c 0,14,15
 387 139 387 139 419 167 c 0,16,17
 421 169 421 169 422 170 c 0,18,19
 448 196 448 196 426 228 c 0,20,21
 417 241 417 241 401 251 c 0,22,23
 367 273 367 273 302 264 c 0,24,25
 245 256 245 256 225 256 c 0,0,1
191 628 m 0,26,27
 169 612 169 612 181 576 c 0,28,29
 193 539 193 539 189 527 c 0,30,31
 186 518 186 518 176 511 c 0,32,33
 157 497 157 497 108 508 c 0,34,35
 59 518 59 518 38 504 c 0,36,37
 6 479 6 479 17 447 c 0,38,39
 21 432 21 432 35 421 c 0,40,41
 55 405 55 405 106 417 c 0,42,43
 157 428 157 428 176 418 c 0,44,45
 179 417 179 417 182 414 c 0,46,47
 203 398 203 398 185 361 c 0,48,49
 167 325 167 325 170 313 c 1,50,-1
 175 302 l 1,51,52
 178 298 178 298 182 295 c 0,53,54
 217 269 217 269 265 277 c 0,55,56
 291 282 291 282 308 297 c 0,57,58
 327 314 327 314 303 347 c 0,59,60
 278 380 278 380 276 390 c 0,61,62
 273 404 273 404 284 414 c 0,63,64
 301 430 301 430 350 419 c 0,65,66
 400 408 400 408 416 418 c 0,67,68
 419 420 419 420 422 423 c 0,69,70
 448 449 448 449 426 480 c 0,71,72
 419 492 419 492 406 501 c 0,73,74
 404 502 404 502 401 504 c 0,75,76
 386 514 386 514 343 505 c 0,77,78
 307 496 307 496 293 509 c 0,79,80
 273 526 273 526 297 563 c 0,81,82
 320 597 320 597 321 607 c 0,83,84
 323 621 323 621 308 630 c 0,85,86
 257 662 257 662 214 642 c 0,87,88
 204 637 204 637 191 628 c 0,26,27
EndSplineSet
EndChar
StartChar: twosuperior
Encoding: 178 178 117
Width: 235
GlyphClass: 2
Flags: W
Fore
43 585 m 0,0,1
 92 583 92 583 70 581 c 0,2,3
 58 580 58 580 73 585 c 0,4,5
 95 591 95 591 85 629 c 0,6,7
 74 672 74 672 77 684 c 0,8,9
 79 694 79 694 86 700 c 0,10,11
 100 713 100 713 118 708 c 0,12,13
 127 706 127 706 133 698 c 0,14,15
 166 656 166 656 135 592 c 2,16,-1
 92 506 l 2,17,18
 88 498 88 498 86 491 c 0,19,20
 78 469 78 469 44 426 c 0,21,22
 12 384 12 384 16 347 c 0,23,24
 18 331 18 331 37 323 c 0,25,26
 129 281 129 281 178 310 c 0,27,28
 189 316 189 316 198 324 c 0,29,30
 221 348 221 348 219 359 c 256,31,32
 217 370 217 370 199 380 c 0,33,34
 184 388 184 388 126 378 c 0,35,36
 104 374 104 374 99 377 c 1,37,38
 95 381 95 381 100 389 c 2,39,-1
 140 459 l 2,40,41
 145 468 145 468 149 479 c 0,42,43
 152 487 152 487 190 562 c 0,44,45
 223 630 223 630 209 679 c 0,46,47
 205 693 l 0,48,49
 183 750 183 750 117 750 c 0,50,51
 84 751 84 751 64 734 c 0,52,53
 50 723 50 723 45 705 c 2,54,-1
 22 637 l 2,55,56
 11 586 11 586 43 585 c 0,0,1
EndSplineSet
EndChar
StartChar: threesuperior
Encoding: 179 179 118
Width: 235
GlyphClass: 2
Flags: W
Fore
79 511 m 0,0,1
 63 529 63 529 67 550 c 0,2,3
 69 557 69 557 71 563 c 1,4,5
 77 574 77 574 99 582 c 0,6,7
 113 587 113 587 120 594 c 2,8,-1
 149 620 l 1,9,10
 159 632 159 632 160 648 c 0,11,12
 161 673 161 673 148 689 c 0,13,14
 140 700 140 700 125 703 c 0,15,16
 112 707 112 707 95 688 c 0,17,18
 82 674 82 674 71 671 c 0,19,20
 46 665 46 665 40 668 c 0,21,22
 37 670 37 670 35 673 c 0,23,24
 17 702 17 702 48 735 c 0,25,26
 58 745 58 745 70 754 c 0,27,28
 116 785 116 785 156 772 c 0,29,30
 170 767 170 767 181 757 c 0,31,32
 216 728 216 728 207 664 c 1,33,34
 211 691 211 691 199 615 c 0,35,36
 197 603 197 603 180 577 c 0,37,38
 170 563 170 563 169 549 c 0,39,40
 168 531 168 531 184 500 c 0,41,42
 194 481 194 481 196 466 c 2,43,-1
 205 388 l 2,44,45
 205 347 205 347 178 324 c 0,46,47
 145 296 145 296 100 310 c 0,48,49
 83 316 83 316 66 327 c 0,50,51
 21 358 21 358 26 393 c 0,52,53
 27 401 27 401 32 408 c 0,54,55
 38 418 38 418 63 411 c 0,56,57
 66 410 66 410 68 410 c 0,58,59
 78 408 78 408 96 388 c 0,60,61
 109 374 109 374 122 378 c 0,62,63
 151 385 151 385 156 433 c 0,64,65
 159 458 159 458 149 476 c 0,66,67
 144 486 144 486 134 495 c 0,68,69
 127 502 127 502 102 502 c 0,70,71
 86 502 86 502 79 511 c 0,0,1
EndSplineSet
EndChar
StartChar: mu
Encoding: 181 181 120
Width: 454
GlyphClass: 2
Flags: W
Fore
46 462 m 0,0,1
 10 428 10 428 23 365 c 2,2,-1
 41 282 l 2,3,4
 43 267 43 267 43 253 c 0,5,6
 43 231 43 231 29 162 c 0,7,8
 20 118 20 118 28 90 c 1,9,-1
 10 -52 l 2,10,11
 3 -149 3 -149 26 -174 c 0,12,13
 61 -211 61 -211 94 -193 c 0,14,15
 100 -190 100 -190 101 -189 c 1,16,17
 125 -180 125 -180 121 -31 c 0,18,19
 120 17 120 17 122 17 c 1,20,21
 151 6 151 6 179 7 c 0,22,23
 182 7 182 7 187 7 c 0,24,25
 207 8 207 8 239 32 c 0,26,27
 267 53 267 53 289 49 c 0,28,29
 297 48 297 48 305 33 c 0,30,31
 310 25 310 25 316 22 c 0,32,33
 357 5 357 5 377 18 c 0,34,35
 380 20 380 20 382 22 c 0,36,37
 430 64 430 64 426 143 c 2,38,-1
 416 257 l 2,39,40
 416 276 416 276 417 292 c 0,41,42
 419 308 419 308 437 369 c 0,43,44
 454 424 454 424 431 453 c 0,45,46
 427 457 l 0,47,48
 396 492 396 492 350 481 c 0,49,50
 330 477 330 477 313 463 c 0,51,52
 284 438 284 438 291 384 c 2,53,-1
 298 323 l 2,54,55
 298 306 298 306 295 292 c 2,56,-1
 282 194 l 2,57,58
 273 158 273 158 244 139 c 0,59,60
 218 122 218 122 191 130 c 1,61,-1
 173 139 l 1,62,63
 168 143 168 143 163 148 c 0,64,65
 136 179 136 179 149 235 c 0,66,67
 165 299 165 299 166 310 c 0,68,69
 167 319 167 319 166 328 c 0,70,71
 166 336 166 336 172 391 c 0,72,73
 178 434 178 434 154 456 c 0,74,75
 118 491 118 491 75 478 c 0,76,77
 59 474 59 474 46 462 c 0,0,1
EndSplineSet
EndChar
StartChar: paragraph
Encoding: 182 182 121
Width: 684
GlyphClass: 2
Flags: W
Fore
410 786 m 0,0,1
 514 782 514 782 519 781 c 0,2,3
 603 771 603 771 636 711 c 0,4,5
 657 674 657 674 631 621 c 2,6,-1
 603 561 l 2,7,8
 597 546 597 546 594 531 c 0,9,10
 573 410 573 410 582 319 c 0,11,12
 583 305 583 305 585 291 c 0,13,14
 590 251 590 251 632 185 c 0,15,16
 669 127 669 127 669 95 c 0,17,18
 669 73 669 73 657 51 c 0,19,20
 645 30 645 30 621 26 c 1,21,-1
 608 28 l 1,22,23
 603 30 603 30 600 36 c 0,24,25
 541 171 541 171 524 260 c 0,26,27
 522 266 522 266 521 273 c 0,28,29
 499 393 499 393 506 471 c 0,30,31
 508 492 508 492 512 516 c 0,32,33
 531 638 531 638 547 675 c 1,34,35
 542 652 542 652 513 577 c 0,36,37
 499 540 499 540 493 507 c 0,38,39
 476 406 476 406 482 329 c 2,40,-1
 487 288 l 2,41,42
 492 248 492 248 525 178 c 0,43,44
 554 116 554 116 553 69 c 0,45,46
 553 27 553 27 500 15 c 0,47,48
 449 4 449 4 404 27 c 0,49,50
 353 53 353 53 347 128 c 2,51,-1
 342 230 l 2,52,53
 335 287 335 287 302 318 c 0,54,55
 268 351 268 351 193 351 c 0,56,57
 122 352 122 352 102 357 c 0,58,59
 69 367 69 367 50 396 c 0,60,61
 -8 486 -8 486 27 582 c 0,62,63
 45 631 45 631 86 669 c 0,64,65
 181 756 181 756 268 777 c 0,66,67
 324 790 324 790 410 786 c 0,0,1
380 621 m 0,68,69
 329 677 329 677 249 662 c 0,70,71
 203 653 203 653 167 621 c 0,72,73
 121 581 121 581 128 524 c 0,74,75
 131 496 131 496 149 474 c 0,76,77
 197 416 197 416 274 422 c 0,78,79
 325 425 325 425 365 459 c 0,80,81
 412 499 412 499 407 559 c 0,82,83
 404 595 404 595 380 621 c 0,68,69
EndSplineSet
EndChar
StartChar: cedilla
Encoding: 184 184 123
Width: 250
GlyphClass: 2
Flags: W
Fore
93 -12 m 0,0,1
 88 -19 88 -19 100 -32 c 0,2,3
 108 -41 108 -41 108 -48 c 0,4,5
 108 -72 108 -72 70 -112 c 0,6,7
 41 -143 41 -143 44 -157 c 0,8,9
 46 -165 46 -165 54 -171 c 0,10,11
 93 -201 93 -201 145 -123 c 0,12,13
 149 -117 149 -117 171 -81 c 0,14,15
 194 -44 194 -44 188 -27 c 0,16,17
 186 -22 186 -22 183 -18 c 0,18,19
 162 10 162 10 126 6 c 0,20,21
 105 4 105 4 93 -12 c 0,0,1
EndSplineSet
EndChar
StartChar: onesuperior
Encoding: 185 185 124
Width: 235
GlyphClass: 2
Flags: W
Fore
35 678 m 0,0,1
 42 663 42 663 81 676 c 0,2,3
 114 687 114 687 119 678 c 1,4,-1
 120 672 l 2,5,6
 122 640 122 640 118 544 c 0,7,8
 118 541 118 541 118 537 c 2,9,-1
 122 439 l 2,10,11
 121 415 121 415 111 391 c 0,12,13
 104 376 104 376 69 356 c 0,14,15
 40 341 40 341 41 326 c 0,16,17
 41 322 41 322 43 318 c 0,18,19
 50 299 50 299 84 305 c 0,20,21
 112 310 112 310 120 310 c 2,22,-1
 174 303 l 1,23,24
 189 304 189 304 197 316 c 0,25,26
 208 330 208 330 193 357 c 0,27,28
 181 378 181 378 179 390 c 0,29,30
 174 431 174 431 175 531 c 0,31,32
 176 543 176 543 176 553 c 2,33,-1
 183 734 l 2,34,35
 182 747 182 747 181 759 c 0,36,37
 177 798 177 798 94 748 c 0,38,39
 89 745 89 745 82 741 c 0,40,41
 41 715 41 715 34 699 c 0,42,43
 30 689 30 689 35 678 c 0,0,1
EndSplineSet
EndChar
StartChar: ordmasculine
Encoding: 186 186 125
Width: 348
GlyphClass: 2
Flags: W
Fore
174 435 m 0,0,1
 166 435 166 435 114 445 c 0,2,3
 75 452 75 452 54 431 c 0,4,5
 34 411 34 411 40 383 c 0,6,7
 43 370 43 370 53 360 c 0,8,9
 73 337 73 337 118 344 c 0,10,11
 157 351 157 351 168 351 c 0,12,13
 176 351 176 351 233 342 c 0,14,15
 280 335 280 335 300 362 c 0,16,17
 317 383 317 383 303 411 c 0,18,19
 297 422 297 422 287 431 c 0,20,21
 265 450 265 450 221 441 c 0,22,23
 188 435 188 435 174 435 c 0,0,1
174 678 m 0,24,25
 208 679 208 679 228 651 c 0,26,27
 239 636 239 636 240 618 c 0,28,29
 243 580 243 580 214 557 c 0,30,31
 198 544 198 544 177 543 c 0,32,33
 140 541 140 541 119 572 c 0,34,35
 108 589 108 589 108 608 c 0,36,37
 107 645 107 645 137 666 c 0,38,39
 154 677 154 677 174 678 c 0,24,25
174 742 m 0,40,41
 106 739 106 739 67 684 c 0,42,43
 43 649 43 649 44 607 c 0,44,45
 46 541 46 541 100 502 c 0,46,47
 136 477 136 477 179 479 c 0,48,49
 246 482 246 482 283 541 c 0,50,51
 306 580 306 580 303 625 c 0,52,53
 299 690 299 690 244 723 c 0,54,55
 212 743 212 743 174 742 c 0,40,41
EndSplineSet
EndChar
StartChar: onequarter
Encoding: 188 188 127
Width: 600
GlyphClass: 3
Flags: W
Fore
444 274 m 0,0,1
 420 302 420 302 443 342 c 0,2,3
 452 357 452 357 466 369 c 0,4,5
 477 379 477 379 487 375 c 0,6,7
 490 374 490 374 493 371 c 0,8,9
 518 344 518 344 499 304 c 2,10,-1
 486 284 l 1,11,12
 478 276 l 0,13,14
 464 264 464 264 451 269 c 0,15,16
 447 270 447 270 444 274 c 0,0,1
479 29 m 0,17,18
 493 17 493 17 512 23 c 0,19,20
 521 26 521 26 528 33 c 0,21,22
 548 54 548 54 534 101 c 256,23,24
 520 148 520 148 524 165 c 0,25,26
 526 175 526 175 533 184 c 0,27,28
 538 190 538 190 558 188 c 0,29,30
 570 187 570 187 575 193 c 0,31,32
 588 210 588 210 584 230 c 0,33,34
 581 241 581 241 573 249 c 0,35,36
 568 254 568 254 547 247 c 0,37,38
 535 243 535 243 533 251 c 0,39,40
 529 276 529 276 535 362 c 0,41,42
 540 429 540 429 528 467 c 0,43,44
 522 486 522 486 491 469 c 0,45,46
 484 466 484 466 478 461 c 0,47,48
 429 426 429 426 409 354 c 2,49,-1
 388 267 l 1,50,-1
 375 228 l 1,51,52
 373 216 373 216 380 206 c 0,53,54
 391 191 391 191 426 196 c 0,55,56
 462 202 462 202 474 188 c 0,57,58
 493 165 493 165 477 115 c 0,59,60
 462 67 462 67 466 50 c 0,61,62
 469 38 469 38 479 29 c 0,17,18
24 695 m 0,63,64
 31 680 31 680 70 693 c 0,65,66
 103 704 103 704 108 695 c 0,67,68
 109 692 109 692 109 689 c 0,69,70
 111 657 111 657 107 561 c 2,71,-1
 107 554 l 1,72,-1
 111 456 l 2,73,74
 110 432 110 432 100 408 c 0,75,76
 93 393 93 393 58 373 c 0,77,78
 29 358 29 358 30 343 c 0,79,80
 30 339 30 339 32 335 c 0,81,82
 39 316 39 316 73 322 c 0,83,84
 101 327 101 327 109 327 c 2,85,-1
 163 320 l 1,86,87
 178 321 178 321 186 333 c 0,88,89
 197 347 197 347 182 374 c 0,90,91
 170 395 170 395 168 407 c 0,92,93
 163 448 163 448 164 548 c 0,94,95
 165 560 165 560 165 570 c 2,96,-1
 172 751 l 2,97,98
 171 764 171 764 170 776 c 0,99,100
 166 815 166 815 83 765 c 0,101,102
 78 762 78 762 71 758 c 0,103,104
 30 732 30 732 23 716 c 0,105,106
 19 706 19 706 24 695 c 0,63,64
373 759 m 0,107,108
 387 784 387 784 430 787 c 0,109,110
 470 789 470 789 475 767 c 1,111,-1
 475 759 l 2,112,113
 452 581 452 581 379 368 c 0,114,115
 378 365 378 365 377 363 c 0,116,117
 323 205 323 205 318 194 c 0,118,119
 285 111 285 111 232 39 c 0,120,121
 213 13 213 13 168 19 c 0,122,123
 126 25 126 25 121 50 c 0,124,125
 120 55 120 55 121 60 c 0,126,127
 133 136 133 136 188 272 c 0,128,129
 218 344 218 344 232 384 c 2,130,-1
 320 641 l 2,131,132
 345 708 345 708 373 759 c 0,107,108
EndSplineSet
Ligature: 0 0 'frac' one slash four
EndChar
StartChar: threequarters
Encoding: 190 190 129
Width: 600
GlyphClass: 3
Flags: W
Fore
444 274 m 0,0,1
 420 302 420 302 443 342 c 0,2,3
 452 357 452 357 466 369 c 0,4,5
 477 379 477 379 487 375 c 0,6,7
 490 374 490 374 493 371 c 0,8,9
 518 344 518 344 499 304 c 2,10,-1
 486 284 l 1,11,12
 478 276 l 0,13,14
 464 264 464 264 451 269 c 0,15,16
 447 270 447 270 444 274 c 0,0,1
479 29 m 0,17,18
 493 17 493 17 512 23 c 0,19,20
 521 26 521 26 528 33 c 0,21,22
 548 54 548 54 534 101 c 256,23,24
 520 148 520 148 524 165 c 0,25,26
 526 175 526 175 533 184 c 0,27,28
 538 190 538 190 558 188 c 0,29,30
 570 187 570 187 575 193 c 0,31,32
 588 210 588 210 584 230 c 0,33,34
 581 241 581 241 573 249 c 0,35,36
 568 254 568 254 547 247 c 0,37,38
 535 243 535 243 533 251 c 0,39,40
 529 276 529 276 535 362 c 0,41,42
 540 429 540 429 528 467 c 0,43,44
 522 486 522 486 491 469 c 0,45,46
 484 466 484 466 478 461 c 0,47,48
 429 426 429 426 409 354 c 2,49,-1
 388 267 l 1,50,-1
 375 228 l 1,51,52
 373 216 373 216 380 206 c 0,53,54
 391 191 391 191 426 196 c 0,55,56
 462 202 462 202 474 188 c 0,57,58
 493 165 493 165 477 115 c 0,59,60
 462 67 462 67 466 50 c 0,61,62
 469 38 469 38 479 29 c 0,17,18
79 511 m 0,63,64
 63 529 63 529 67 550 c 0,65,66
 69 557 69 557 71 563 c 1,67,68
 77 574 77 574 99 582 c 0,69,70
 113 587 113 587 120 594 c 2,71,-1
 149 620 l 1,72,73
 159 632 159 632 160 648 c 0,74,75
 161 673 161 673 148 689 c 1,76,-1
 137 699 l 1,77,-1
 125 703 l 2,78,79
 112 707 112 707 95 688 c 0,80,81
 82 674 82 674 71 671 c 0,82,83
 46 665 46 665 40 668 c 0,84,85
 37 670 37 670 35 673 c 0,86,87
 17 702 17 702 48 735 c 0,88,89
 58 745 58 745 70 754 c 0,90,91
 116 785 116 785 156 772 c 0,92,93
 170 767 170 767 181 757 c 0,94,95
 216 728 216 728 207 664 c 1,96,97
 211 691 211 691 199 615 c 0,98,99
 197 603 197 603 180 577 c 0,100,101
 170 563 170 563 169 549 c 0,102,103
 168 531 168 531 184 500 c 0,104,105
 194 481 194 481 196 466 c 2,106,-1
 205 388 l 2,107,108
 205 347 205 347 178 324 c 0,109,110
 145 296 145 296 100 310 c 0,111,112
 83 316 83 316 66 327 c 0,113,114
 21 358 21 358 26 393 c 0,115,116
 27 401 27 401 32 408 c 0,117,118
 38 418 38 418 63 411 c 0,119,120
 66 410 66 410 68 410 c 0,121,122
 78 408 78 408 96 388 c 0,123,124
 109 374 109 374 122 378 c 0,125,126
 151 385 151 385 156 433 c 0,127,128
 159 458 159 458 149 476 c 0,129,130
 144 486 144 486 134 495 c 0,131,132
 127 502 127 502 102 502 c 0,133,134
 86 502 86 502 79 511 c 0,63,64
373 759 m 0,135,136
 387 784 387 784 430 787 c 0,137,138
 470 789 470 789 475 767 c 1,139,-1
 475 759 l 2,140,141
 452 581 452 581 379 368 c 0,142,143
 378 365 378 365 377 363 c 0,144,145
 323 205 323 205 318 194 c 0,146,147
 285 111 285 111 232 39 c 0,148,149
 213 13 213 13 168 19 c 0,150,151
 126 25 126 25 121 50 c 0,152,153
 120 55 120 55 121 60 c 0,154,155
 133 136 133 136 188 272 c 0,156,157
 218 344 218 344 232 384 c 2,158,-1
 320 641 l 2,159,160
 345 708 345 708 373 759 c 0,135,136
EndSplineSet
Ligature: 0 0 'frac' three slash four
EndChar
StartChar: AE
Encoding: 198 198 137
Width: 936
GlyphClass: 2
Flags: W
Fore
379 723 m 0,0,1
 350 725 350 725 275 753 c 0,2,3
 208 777 208 777 181 762 c 0,4,5
 167 755 167 755 158 738 c 0,6,7
 144 712 144 712 177 686 c 2,8,-1
 220 654 l 1,9,10
 238 636 238 636 242 618 c 0,11,12
 274 471 274 471 225 332 c 0,13,14
 209 287 209 287 181 229 c 0,15,16
 172 211 172 211 161 189 c 0,17,18
 145 158 145 158 84 125 c 0,19,20
 32 97 32 97 21 81 c 0,21,22
 6 62 6 62 17 36 c 0,23,24
 39 -14 39 -14 131 19 c 0,25,26
 143 23 143 23 176 36 c 0,27,28
 223 55 223 55 263 123 c 0,29,30
 301 189 301 189 306 196 c 0,31,32
 342 244 342 244 394 243 c 0,33,34
 447 241 447 241 480 177 c 2,35,-1
 525 80 l 2,36,37
 556 24 556 24 605 18 c 0,38,39
 617 17 617 17 634 34 c 0,40,41
 642 44 642 44 650 48 c 2,42,-1
 685 67 l 1,43,44
 695 70 695 70 707 70 c 0,45,46
 734 70 734 70 774 37 c 0,47,48
 809 7 809 7 831 7 c 0,49,50
 839 7 839 7 848 10 c 0,51,52
 893 25 893 25 903 70 c 0,53,54
 907 88 907 88 903 106 c 0,55,56
 886 181 886 181 837 196 c 0,57,58
 821 201 821 201 800 201 c 2,59,-1
 773 199 l 2,60,61
 761 197 761 197 700 180 c 0,62,63
 646 164 646 164 614 190 c 0,64,65
 570 227 570 227 573 283 c 0,66,67
 576 316 576 316 598 340 c 0,68,69
 621 365 621 365 672 346 c 0,70,71
 725 325 725 325 736 324 c 0,72,73
 761 320 761 320 780 334 c 0,74,75
 822 367 822 367 823 413 c 0,76,77
 823 438 823 438 807 457 c 0,78,79
 782 486 782 486 728 464 c 2,80,-1
 667 438 l 2,81,82
 628 426 628 426 604 445 c 0,83,84
 552 484 552 484 547 542 c 0,85,86
 543 582 543 582 568 611 c 0,87,88
 603 653 603 653 678 625 c 2,89,-1
 776 585 l 2,90,91
 841 564 841 564 878 598 c 0,92,93
 920 638 920 638 923 699 c 0,94,95
 927 761 927 761 881 782 c 0,96,97
 869 787 869 787 834 774 c 0,98,99
 765 746 765 746 685 743 c 0,100,101
 654 742 654 742 546 728 c 0,102,103
 470 718 470 718 379 723 c 0,0,1
379 579 m 0,104,105
 434 592 434 592 468 522 c 0,106,107
 483 490 483 490 487 453 c 0,108,109
 492 407 492 407 470 376 c 0,110,111
 455 355 455 355 430 347 c 0,112,113
 391 334 391 334 358 363 c 0,114,115
 343 376 343 376 334 394 c 0,116,117
 303 459 303 459 321 519 c 0,118,119
 335 568 335 568 379 579 c 0,104,105
EndSplineSet
EndChar
StartChar: Eth
Encoding: 208 208 147
Width: 922
GlyphClass: 2
Flags: W
Fore
398 192 m 0,0,1
 354 229 354 229 330 334 c 0,2,3
 329 338 329 338 344 339 c 2,4,-1
 462 340 l 2,5,6
 493 343 493 343 503 351 c 0,7,8
 525 369 525 369 524 403 c 0,9,10
 523 423 523 423 511 432 c 0,11,12
 493 446 493 446 388 443 c 0,13,14
 342 441 342 441 342 447 c 1,15,-1
 378 541 l 2,16,17
 394 577 394 577 411 594 c 0,18,19
 474 658 474 658 564 639 c 0,20,21
 607 631 607 631 644 603 c 0,22,23
 739 532 739 532 760 428 c 0,24,25
 779 338 779 338 731 261 c 0,26,27
 681 180 681 180 587 155 c 0,28,29
 484 127 484 127 407 185 c 0,30,31
 402 188 402 188 398 192 c 0,0,1
50 756 m 0,32,33
 29 721 29 721 69 683 c 2,34,-1
 126 631 l 2,35,36
 149 608 149 608 156 585 c 0,37,38
 161 569 161 569 186 450 c 0,39,40
 187 446 187 446 169 445 c 2,41,-1
 74 440 l 2,42,43
 54 437 54 437 45 432 c 0,44,45
 19 416 19 416 24 388 c 0,46,47
 28 369 28 369 48 357 c 1,48,49
 51 356 51 356 136 352 c 0,50,51
 189 350 189 350 189 343 c 1,52,-1
 177 264 l 2,53,54
 166 221 166 221 103 168 c 0,55,56
 50 124 50 124 39 109 c 0,57,58
 11 73 11 73 35 36 c 0,59,60
 68 -15 68 -15 138 9 c 0,61,62
 146 11 146 11 227 48 c 0,63,64
 293 78 293 78 336 78 c 0,65,66
 401 78 401 78 505 37 c 0,67,68
 598 0 598 0 641 -3 c 0,69,70
 695 -6 695 -6 743 24 c 0,71,72
 913 128 913 128 896 380 c 0,73,74
 894 408 894 408 890 438 c 0,75,76
 861 654 861 654 711 746 c 0,77,78
 685 761 685 761 656 774 c 0,79,80
 599 799 599 799 523 772 c 2,81,-1
 437 742 l 2,82,83
 404 733 404 733 375 732 c 0,84,85
 326 730 326 730 229 768 c 0,86,87
 146 801 146 801 112 798 c 0,88,89
 73 794 73 794 50 756 c 0,32,33
EndSplineSet
EndChar
StartChar: multiply
Encoding: 215 215 154
Width: 379
GlyphClass: 2
Flags: W
Fore
49 355 m 0,0,1
 59 389 59 389 102 390 c 0,2,3
 116 391 116 391 130 386 c 0,4,5
 151 379 151 379 159 338 c 0,6,7
 166 299 166 299 177 290 c 0,8,9
 183 286 183 286 191 285 c 0,10,11
 217 282 217 282 236 320 c 0,12,13
 257 361 257 361 263 368 c 0,14,15
 275 381 275 381 292 380 c 0,16,17
 321 379 321 379 330 348 c 0,18,19
 332 341 332 341 332 334 c 0,20,21
 332 312 332 312 301 293 c 0,22,23
 269 274 269 274 263 262 c 0,24,25
 260 256 260 256 260 249 c 0,26,27
 257 223 257 223 293 189 c 0,28,29
 325 160 325 160 329 146 c 0,30,31
 332 134 332 134 326 121 c 0,32,33
 315 99 315 99 284 104 c 0,34,35
 274 106 274 106 263 110 c 0,36,37
 243 119 243 119 233 161 c 0,38,39
 224 199 224 199 210 206 c 0,40,41
 205 209 205 209 198 209 c 0,42,43
 170 212 170 212 153 174 c 0,44,45
 133 130 133 130 129 124 c 0,46,47
 117 108 117 108 101 103 c 0,48,49
 80 96 80 96 66 101 c 0,50,51
 57 105 57 105 53 114 c 0,52,53
 41 141 41 141 74 172 c 0,54,55
 110 204 110 204 114 209 c 0,56,57
 129 227 129 227 128 247 c 0,58,59
 127 272 127 272 89 297 c 0,60,61
 55 320 55 320 50 333 c 0,62,63
 45 343 45 343 49 355 c 0,0,1
EndSplineSet
EndChar
StartChar: Oslash
Encoding: 216 216 155
Width: 814
GlyphClass: 2
Flags: W
Fore
686 774 m 2,0,1
 612 729 612 729 478 587 c 0,2,3
 349 450 349 450 326 427 c 0,4,5
 109 208 109 208 46 134 c 0,6,7
 36 122 36 122 27 111 c 0,8,9
 8 88 8 88 40 58 c 0,10,11
 72 29 72 29 104 35 c 0,12,13
 109 36 109 36 113 37 c 0,14,15
 199 75 199 75 301 185 c 2,16,-1
 440 335 l 1,17,-1
 441 336 l 2,18,19
 614 513 614 513 774 723 c 0,20,21
 790 744 790 744 757 765 c 0,22,23
 723 787 723 787 693 777 c 2,24,-1
 686 774 l 2,0,1
435 637 m 0,25,26
 552 631 552 631 623 542 c 0,27,28
 674 476 674 476 679 390 c 0,29,30
 686 279 686 279 618 200 c 0,31,32
 561 133 561 133 475 126 c 0,33,34
 358 116 358 116 265 194 c 0,35,36
 175 271 175 271 165 383 c 0,37,38
 164 398 164 398 165 413 c 0,39,40
 167 517 167 517 256 584 c 0,41,42
 334 642 334 642 435 637 c 0,25,26
429 789 m 0,43,44
 279 795 279 795 162 702 c 0,45,46
 47 611 47 611 29 471 c 0,47,48
 26 451 26 451 26 429 c 0,49,50
 24 272 24 272 133 152 c 0,51,52
 236 39 236 39 386 17 c 0,53,54
 428 11 428 11 471 14 c 0,55,56
 616 23 616 23 709 139 c 0,57,58
 799 250 799 250 795 401 c 0,59,60
 795 403 795 403 795 406 c 0,61,62
 789 565 789 565 684 675 c 2,63,-1
 650 706 l 2,64,65
 554 784 554 784 429 789 c 0,43,44
EndSplineSet
EndChar
StartChar: Thorn
Encoding: 222 222 161
Width: 522
GlyphClass: 2
Flags: W
Fore
245 405 m 0,0,1
 249 354 249 354 290 329 c 0,2,3
 313 315 313 315 339 318 c 0,4,5
 382 324 382 324 399 368 c 0,6,7
 407 392 407 392 403 417 c 0,8,9
 396 464 396 464 354 482 c 0,10,11
 334 491 334 491 312 489 c 0,12,13
 270 484 270 484 252 444 c 0,14,15
 244 425 244 425 245 405 c 0,0,1
192 45 m 0,16,17
 161 11 161 11 104 4 c 0,18,19
 45 -4 45 -4 35 32 c 0,20,21
 33 37 33 37 33 42 c 0,22,23
 32 89 32 89 36 135 c 0,24,25
 37 159 37 159 38 206 c 0,26,27
 39 223 39 223 26 407 c 0,28,29
 6 689 6 689 54 768 c 0,30,31
 61 778 61 778 68 786 c 0,32,33
 95 812 95 812 132 802 c 0,34,35
 150 798 150 798 164 786 c 0,36,37
 194 762 194 762 184 699 c 0,38,39
 175 639 175 639 177 625 c 0,40,41
 181 598 181 598 204 585 c 0,42,43
 229 571 229 571 266 600 c 256,44,45
 303 629 303 629 316 633 c 0,46,47
 330 637 330 637 344 633 c 0,48,49
 458 597 458 597 495 493 c 0,50,51
 509 453 509 453 509 408 c 0,52,53
 510 295 510 295 437 226 c 0,54,55
 397 189 397 189 341 171 c 0,56,57
 315 163 315 163 279 191 c 2,58,-1
 248 213 l 2,59,60
 227 225 227 225 207 219 c 0,61,62
 190 214 190 214 182 187 c 0,63,64
 175 163 175 163 194 115 c 0,65,66
 211 73 211 73 198 52 c 0,67,68
 196 49 196 49 192 45 c 0,16,17
EndSplineSet
EndChar
StartChar: germandbls
Encoding: 223 223 162
Width: 493
GlyphClass: 2
Flags: W
Fore
169 18 m 0,0,1
 142 -16 142 -16 92 7 c 0,2,3
 70 16 70 16 55 33 c 0,4,5
 9 84 9 84 20 167 c 2,6,-1
 41 292 l 2,7,8
 42 301 42 301 43 309 c 0,9,10
 45 338 45 338 43 474 c 0,11,12
 41 595 41 595 75 663 c 0,13,14
 92 696 92 696 118 726 c 0,15,16
 176 793 176 793 271 785 c 0,17,18
 280 784 280 784 290 783 c 0,19,20
 429 762 429 762 467 657 c 0,21,22
 489 596 489 596 451 523 c 1,23,24
 453 527 453 527 413 456 c 0,25,26
 403 438 403 438 366 417 c 0,27,28
 334 398 334 398 330 376 c 0,29,30
 329 373 329 373 329 369 c 0,31,32
 328 335 328 335 368 307 c 0,33,34
 410 278 410 278 417 271 c 2,35,-1
 431 253 l 1,36,37
 434 247 434 247 437 240 c 0,38,39
 468 153 468 153 454 105 c 0,40,41
 448 83 448 83 434 63 c 0,42,43
 378 -17 378 -17 288 -4 c 0,44,45
 279 -3 279 -3 269 0 c 0,46,47
 210 16 210 16 199 72 c 0,48,49
 197 79 197 79 197 87 c 0,50,51
 195 116 195 116 210 136 c 0,52,53
 221 152 221 152 239 150 c 0,54,55
 255 148 255 148 254 115 c 0,56,57
 253 80 253 80 264 74 c 0,58,59
 266 73 266 73 269 72 c 0,60,61
 312 63 312 63 340 109 c 0,62,63
 354 134 354 134 356 162 c 0,64,65
 357 189 357 189 326 214 c 0,66,67
 298 237 298 237 290 246 c 0,68,69
 276 263 276 263 228 293 c 0,70,71
 187 320 187 320 180 347 c 0,72,73
 178 356 178 356 179 366 c 0,74,75
 181 406 181 406 228 430 c 2,76,-1
 293 461 l 2,77,78
 319 477 319 477 332 498 c 0,79,80
 372 561 372 561 377 575 c 0,81,82
 396 620 396 620 374 657 c 0,83,84
 350 697 350 697 295 689 c 0,85,86
 279 687 279 687 263 681 c 0,87,88
 213 661 213 661 187 600 c 0,89,90
 181 586 181 586 169 549 c 0,91,92
 151 496 151 496 159 415 c 2,93,-1
 163 341 l 2,94,95
 163 332 163 332 163 324 c 0,96,97
 162 303 162 303 148 198 c 0,98,99
 140 131 140 131 148 75 c 0,100,101
 149 67 149 67 166 44 c 0,102,103
 177 28 177 28 169 18 c 0,0,1
EndSplineSet
EndChar
StartChar: ae
Encoding: 230 230 169
Width: 628
GlyphClass: 2
Flags: W
Fore
520 369 m 0,0,1
 492 401 492 401 446 390 c 0,2,3
 419 383 419 383 402 362 c 0,4,5
 395 352 395 352 402 338 c 0,6,7
 405 333 405 333 410 328 c 0,8,9
 446 295 446 295 487 307 c 0,10,11
 499 310 499 310 510 319 c 0,12,13
 532 335 532 335 526 358 c 0,14,15
 524 364 524 364 520 369 c 0,0,1
465 15 m 2,16,17
 447 14 447 14 413 30 c 0,18,19
 397 37 397 37 384 39 c 0,20,21
 376 40 376 40 333 39 c 0,22,23
 317 39 317 39 303 42 c 0,24,25
 271 50 271 50 204 24 c 0,26,27
 135 -3 135 -3 103 2 c 0,28,29
 61 7 61 7 30 54 c 0,30,31
 -12 117 -12 117 29 201 c 0,32,33
 44 232 44 232 69 261 c 0,34,35
 90 285 90 285 145 286 c 0,36,37
 197 287 197 287 215 299 c 0,38,39
 224 305 224 305 231 315 c 0,40,41
 242 331 242 331 238 348 c 0,42,43
 236 358 236 358 228 366 c 0,44,45
 203 391 203 391 148 377 c 0,46,47
 93 362 93 362 77 364 c 0,48,49
 56 366 56 366 42 381 c 0,50,51
 22 402 22 402 29 431 c 0,52,53
 33 445 33 445 42 456 c 0,54,55
 71 492 71 492 134 489 c 1,56,57
 133 489 133 489 177 486 c 0,58,59
 216 483 216 483 279 451 c 0,60,61
 296 442 296 442 306 438 c 0,62,63
 329 428 329 428 340 436 c 0,64,65
 422 494 422 494 501 478 c 0,66,67
 545 468 545 468 576 434 c 0,68,69
 629 373 629 373 598 290 c 0,70,71
 583 251 583 251 552 219 c 0,72,73
 551 218 551 218 506 231 c 0,74,75
 414 257 414 257 385 222 c 0,76,77
 366 199 366 199 386 167 c 0,78,79
 392 156 392 156 402 147 c 0,80,81
 433 116 433 116 534 116 c 0,82,83
 553 116 553 116 555 114 c 0,84,85
 585 85 585 85 576 60 c 0,86,87
 574 56 l 0,88,89
 557 20 557 20 499 16 c 2,90,-1
 465 15 l 2,16,17
123 201 m 0,91,92
 101 177 101 177 108 147 c 0,93,94
 112 132 112 132 123 120 c 0,95,96
 156 85 156 85 202 96 c 0,97,98
 220 101 220 101 234 114 c 0,99,100
 265 142 265 142 255 183 c 0,101,102
 250 201 250 201 237 213 c 0,103,104
 204 243 204 243 159 226 c 0,105,106
 138 218 138 218 123 201 c 0,91,92
EndSplineSet
EndChar
StartChar: ccedilla
Encoding: 231 231 170
Width: 365
GlyphClass: 2
Flags: W
Fore
153 6 m 0,0,1
 173 33 173 33 211 21 c 0,2,3
 231 15 231 15 243 0 c 0,4,5
 258 -19 258 -19 235 -57 c 0,6,7
 234 -58 234 -58 231 -63 c 0,8,9
 190 -130 190 -130 170 -147 c 0,10,11
 140 -174 140 -174 114 -153 c 0,12,13
 93 -136 93 -136 120 -105 c 2,14,-1
 154 -67 l 2,15,16
 168 -47 168 -47 168 -30 c 0,17,18
 168 -24 168 -24 156 -9 c 0,19,20
 148 0 148 0 153 6 c 0,0,1
320 434 m 0,21,22
 347 406 347 406 339 368 c 1,23,-1
 330 347 l 1,24,-1
 320 333 l 1,25,26
 300 313 300 313 255 328 c 0,27,28
 209 344 209 344 193 341 c 0,29,30
 182 339 182 339 173 331 c 0,31,32
 130 292 130 292 138 239 c 0,33,34
 141 215 141 215 156 196 c 0,35,36
 175 173 175 173 222 185 c 0,37,38
 271 197 271 197 286 194 c 0,39,40
 299 191 299 191 308 182 c 0,41,42
 346 144 346 144 336 98 c 0,43,44
 332 80 332 80 320 67 c 0,45,46
 263 2 263 2 173 17 c 0,47,48
 121 26 121 26 77 59 c 0,49,50
 25 100 25 100 25 184 c 0,51,52
 25 186 25 186 29 273 c 0,53,54
 33 353 33 353 40 376 c 0,55,56
 52 413 52 413 84 436 c 0,57,58
 168 496 168 496 250 474 c 0,59,60
 290 464 290 464 320 434 c 0,21,22
EndSplineSet
EndChar
StartChar: igrave
Encoding: 236 236 175
Width: 207
GlyphClass: 2
Flags: W
Fore
46 33 m 0,0,1
 74 6 74 6 111 15 c 0,2,3
 130 19 130 19 145 33 c 0,4,5
 174 59 174 59 166 113 c 0,6,7
 157 175 157 175 157 189 c 0,8,9
 158 201 158 201 171 260 c 0,10,11
 183 310 183 310 157 336 c 0,12,13
 123 372 123 372 76 361 c 0,14,15
 56 357 56 357 40 342 c 0,16,17
 13 316 13 316 25 265 c 0,18,19
 39 206 39 206 40 194 c 0,20,21
 40 192 40 192 40 189 c 0,22,23
 41 174 41 174 29 113 c 0,24,25
 19 60 19 60 46 33 c 0,0,1
-6 603 m 0,26,27
 -7 636 -7 636 41 634 c 0,28,29
 84 632 84 632 114 609 c 0,30,31
 156 577 156 577 188 470 c 0,32,33
 212 392 212 392 202 364 c 0,34,35
 194 342 194 342 162 381 c 0,36,37
 141 407 141 407 76 465 c 0,38,39
 16 518 16 518 1 561 c 0,40,41
 -5 581 -5 581 -6 603 c 0,26,27
EndSplineSet
EndChar
StartChar: iacute
Encoding: 237 237 176
Width: 207
GlyphClass: 2
Flags: W
Fore
46 33 m 0,0,1
 74 6 74 6 111 15 c 0,2,3
 130 19 130 19 145 33 c 0,4,5
 174 59 174 59 166 113 c 0,6,7
 157 175 157 175 157 189 c 0,8,9
 158 201 158 201 171 260 c 0,10,11
 183 310 183 310 157 336 c 0,12,13
 123 372 123 372 76 361 c 0,14,15
 56 357 56 357 40 342 c 0,16,17
 13 316 13 316 25 265 c 0,18,19
 39 206 39 206 40 194 c 0,20,21
 40 192 40 192 40 189 c 0,22,23
 41 174 41 174 29 113 c 0,24,25
 19 60 19 60 46 33 c 0,0,1
222 606 m 0,26,27
 223 639 223 639 175 637 c 0,28,29
 133 635 133 635 102 612 c 0,30,31
 60 580 60 580 28 473 c 0,32,33
 5 395 5 395 14 367 c 0,34,35
 23 345 23 345 54 384 c 0,36,37
 75 410 75 410 140 468 c 0,38,39
 201 521 201 521 215 564 c 0,40,41
 222 584 222 584 222 606 c 0,26,27
EndSplineSet
EndChar
StartChar: icircumflex
Encoding: 238 238 177
Width: 207
GlyphClass: 2
Flags: W
Fore
-20 377 m 0,0,1
 -21 352 -21 352 30 373 c 0,2,3
 38 376 38 376 46 380 c 0,4,5
 60 386 60 386 72 418 c 0,6,7
 82 445 82 445 97 447 c 0,8,9
 99 447 99 447 102 447 c 0,10,11
 120 446 120 446 128 418 c 2,12,-1
 137 387 l 1,13,14
 143 377 143 377 152 373 c 0,15,16
 186 354 186 354 203 366 c 0,17,18
 207 369 207 369 210 373 c 0,19,20
 227 396 227 396 198 441 c 2,21,-1
 185 460 l 2,22,23
 156 506 156 506 144 516 c 0,24,25
 127 530 127 530 104 530 c 0,26,27
 77 530 77 530 54 498 c 2,28,-1
 32 467 l 2,29,30
 -4 423 -4 423 -10 411 c 0,31,32
 -18 394 -18 394 -20 377 c 0,0,1
46 33 m 0,33,34
 74 6 74 6 111 15 c 0,35,36
 130 19 130 19 145 33 c 0,37,38
 174 59 174 59 166 113 c 0,39,40
 157 175 157 175 157 189 c 0,41,42
 158 201 158 201 171 260 c 0,43,44
 183 310 183 310 157 336 c 0,45,46
 123 372 123 372 76 361 c 0,47,48
 56 357 56 357 40 342 c 0,49,50
 13 316 13 316 25 265 c 0,51,52
 39 206 39 206 40 194 c 0,53,54
 40 192 40 192 40 189 c 0,55,56
 41 174 41 174 29 113 c 0,57,58
 19 60 19 60 46 33 c 0,33,34
EndSplineSet
EndChar
StartChar: idieresis
Encoding: 239 239 178
Width: 207
GlyphClass: 2
Flags: W
Fore
62 392 m 1,0,1
 42 381 42 381 25 386 c 0,2,3
 16 389 16 389 10 396 c 0,4,5
 -6 414 -6 414 0 437 c 0,6,7
 3 450 3 450 14 457 c 0,8,9
 37 473 37 473 64 458 c 0,10,11
 76 451 76 451 82 440 c 2,12,-1
 84 435 l 2,13,14
 92 418 92 418 75 402 c 2,15,-1
 62 392 l 1,0,1
186 396 m 0,16,17
 166 385 166 385 149 390 c 1,18,-1
 136 398 l 2,19,20
 134 400 l 0,21,22
 118 418 118 418 124 441 c 0,23,24
 127 454 127 454 138 461 c 0,25,26
 161 477 161 477 188 462 c 0,27,28
 200 455 200 455 206 444 c 0,29,30
 208 441 208 441 209 439 c 0,31,32
 216 422 216 422 199 406 c 0,33,34
 194 400 194 400 186 396 c 0,16,17
46 33 m 0,35,36
 74 6 74 6 111 15 c 0,37,38
 130 19 130 19 145 33 c 0,39,40
 174 59 174 59 166 113 c 0,41,42
 157 175 157 175 157 189 c 0,43,44
 158 201 158 201 171 260 c 0,45,46
 183 310 183 310 157 336 c 0,47,48
 123 372 123 372 76 361 c 0,49,50
 56 357 56 357 40 342 c 0,51,52
 13 316 13 316 25 265 c 0,53,54
 39 206 39 206 40 194 c 0,55,56
 40 192 40 192 40 189 c 0,57,58
 41 174 41 174 29 113 c 0,59,60
 19 60 19 60 46 33 c 0,35,36
EndSplineSet
EndChar
StartChar: eth
Encoding: 240 240 179
Width: 539
GlyphClass: 2
Flags: W
Fore
318 184 m 0,0,1
 272 138 272 138 214 147 c 0,2,3
 181 151 181 151 157 174 c 0,4,5
 110 221 110 221 120 289 c 0,6,7
 128 338 128 338 164 369 c 0,8,9
 212 409 212 409 273 386 c 0,10,11
 305 374 305 374 328 347 c 0,12,13
 368 298 368 298 350 238 c 0,14,15
 341 207 341 207 318 184 c 0,0,1
343 448 m 0,16,17
 341 425 341 425 310 443 c 2,18,-1
 263 472 l 2,19,20
 252 477 252 477 243 478 c 2,21,-1
 156 494 l 2,22,23
 118 498 118 498 93 474 c 0,24,25
 -16 372 -16 372 20 203 c 0,26,27
 31 150 31 150 57 92 c 0,28,29
 84 30 84 30 163 12 c 0,30,31
 198 4 198 4 250 30 c 0,32,33
 301 55 301 55 332 53 c 1,34,35
 335 52 335 52 339 52 c 0,36,37
 355 50 355 50 379 28 c 0,38,39
 399 10 399 10 417 10 c 256,40,41
 435 10 435 10 447 19 c 0,42,43
 454 24 454 24 459 32 c 0,44,45
 489 82 489 82 477 156 c 0,46,47
 462 242 462 242 462 248 c 0,48,49
 461 259 461 259 461 270 c 2,50,-1
 466 483 l 2,51,52
 464 605 464 605 429 654 c 0,53,54
 410 680 410 680 344 708 c 0,55,56
 340 710 340 710 336 711 c 1,57,58
 332 713 332 713 351 764 c 0,59,60
 354 772 354 772 354 774 c 0,61,62
 357 795 357 795 337 798 c 0,63,64
 320 801 320 801 300 784 c 0,65,66
 299 783 299 783 286 741 c 2,67,-1
 279 724 l 1,68,-1
 276 723 l 1,69,70
 210 747 210 747 186 765 c 0,71,72
 161 784 161 784 134 748 c 256,73,74
 107 712 107 712 114 675 c 0,75,76
 124 632 124 632 211 619 c 0,77,78
 214 619 214 619 219 618 c 0,79,80
 223 617 223 617 201 575 c 0,81,82
 188 550 188 550 192 547 c 0,83,84
 214 527 214 527 238 533 c 0,85,86
 244 534 244 534 249 537 c 0,87,88
 262 545 262 545 277 586 c 0,89,90
 281 597 281 597 285 597 c 1,91,-1
 331 573 l 2,92,93
 338 568 338 568 341 564 c 0,94,95
 358 536 358 536 349 488 c 0,96,97
 344 459 344 459 343 448 c 0,16,17
EndSplineSet
EndChar
StartChar: oslash
Encoding: 248 248 187
Width: 522
GlyphClass: 2
Flags: W
Fore
346 508 m 0,0,1
 301 460 301 460 223 342 c 2,2,-1
 171 264 l 1,3,-1
 67 122 l 2,4,5
 43 85 43 85 27 51 c 0,6,7
 18 30 18 30 48 15 c 0,8,9
 82 -2 82 -2 104 14 c 0,10,11
 168 66 168 66 225 150 c 2,12,-1
 272 221 l 2,13,14
 368 363 368 363 420 488 c 0,15,16
 427 507 427 507 397 516 c 0,17,18
 365 526 365 526 346 508 c 0,0,1
261 374 m 0,19,20
 324 376 324 376 360 326 c 0,21,22
 380 298 380 298 382 264 c 0,23,24
 387 199 387 199 338 156 c 0,25,26
 306 130 306 130 266 127 c 0,27,28
 203 124 203 124 164 176 c 0,29,30
 140 208 140 208 139 247 c 0,31,32
 138 312 138 312 191 351 c 0,33,34
 222 373 222 373 261 374 c 0,19,20
261 492 m 0,35,36
 153 488 153 488 83 408 c 0,37,38
 21 337 21 337 23 244 c 0,39,40
 26 140 26 140 104 70 c 0,41,42
 176 5 176 5 271 10 c 0,43,44
 377 16 377 16 444 101 c 0,45,46
 505 178 505 178 498 277 c 0,47,48
 492 380 492 380 411 443 c 0,49,50
 345 495 345 495 261 492 c 0,35,36
EndSplineSet
EndChar
StartChar: thorn
Encoding: 254 254 193
Width: 537
GlyphClass: 2
Flags: W
Fore
253 255 m 0,0,1
 256 204 256 204 297 179 c 0,2,3
 320 165 320 165 346 168 c 0,4,5
 389 174 389 174 406 218 c 0,6,7
 415 242 415 242 411 267 c 0,8,9
 403 314 403 314 361 332 c 0,10,11
 342 341 342 341 320 339 c 0,12,13
 277 334 277 334 259 294 c 0,14,15
 251 275 251 275 253 255 c 0,0,1
200 -155 m 0,16,17
 166 -194 166 -194 111 -195 c 0,18,19
 60 -196 60 -196 41 -158 c 0,20,21
 11 -101 11 -101 26 -2 c 2,22,-1
 43 116 l 2,23,24
 45 137 45 137 46 156 c 0,25,26
 46 175 46 175 33 343 c 0,27,28
 14 585 14 585 58 662 c 0,29,30
 66 676 66 676 76 686 c 0,31,32
 102 712 102 712 139 704 c 0,33,34
 157 700 157 700 172 686 c 0,35,36
 200 659 200 659 183 598 c 2,37,-1
 166 539 l 2,38,39
 159 497 159 497 184 475 c 256,40,41
 209 453 209 453 257 470 c 0,42,43
 307 489 307 489 323 489 c 256,44,45
 339 489 339 489 352 483 c 0,46,47
 516 405 516 405 517 258 c 0,48,49
 518 145 518 145 423 69 c 2,50,-1
 382 40 l 2,51,52
 366 30 366 30 349 21 c 0,53,54
 324 8 324 8 278 23 c 0,55,56
 232 37 232 37 214 29 c 2,57,-1
 199 20 l 1,58,59
 182 5 182 5 187 -33 c 0,60,61
 190 -54 190 -54 190 -63 c 0,62,63
 190 -75 190 -75 203 -111 c 0,64,65
 214 -139 214 -139 200 -155 c 0,16,17
EndSplineSet
EndChar
StartChar: figuredash
Encoding: 8210 8210 196
Width: 350
GlyphClass: 2
Flags: W
Fore
173 459 m 0,0,1
 159 459 159 459 106 472 c 0,2,3
 60 484 60 484 36 459 c 2,4,-1
 29 452 l 1,5,6
 5 420 5 420 13 377 c 0,7,8
 16 357 16 357 27 341 c 0,9,10
 51 307 51 307 98 315 c 2,11,-1
 157 327 l 1,12,13
 162 327 162 327 166 327 c 0,14,15
 181 327 181 327 239 314 c 0,16,17
 291 303 291 303 314 329 c 0,18,19
 320 336 320 336 325 344 c 0,20,21
 345 378 345 378 328 420 c 0,22,23
 321 438 321 438 309 452 c 0,24,25
 283 481 283 481 238 471 c 0,26,27
 186 459 186 459 173 459 c 0,0,1
EndSplineSet
EndChar
StartChar: endash
Encoding: 8211 8211 197
Width: 373
GlyphClass: 2
Flags: W
Fore
186 459 m 0,0,1
 171 459 171 459 115 472 c 0,2,3
 65 484 65 484 40 459 c 1,4,5
 36 456 36 456 33 452 c 0,6,7
 7 420 7 420 15 377 c 0,8,9
 19 357 19 357 31 341 c 0,10,11
 56 307 56 307 106 315 c 2,12,-1
 169 327 l 1,13,14
 179 327 l 0,15,16
 195 327 195 327 256 314 c 0,17,18
 312 303 312 303 337 329 c 0,19,20
 343 335 343 335 348 344 c 0,21,22
 369 378 369 378 352 420 c 0,23,24
 344 438 344 438 331 452 c 0,25,26
 304 481 304 481 256 471 c 0,27,28
 200 459 200 459 191 459 c 0,29,30
 189 459 189 459 186 459 c 0,0,1
EndSplineSet
EndChar
StartChar: emdash
Encoding: 8212 8212 198
Width: 562
GlyphClass: 2
Flags: W
Fore
279 459 m 0,0,1
 256 459 256 459 171 472 c 0,2,3
 94 484 94 484 55 458 c 0,4,5
 47 452 l 0,6,7
 8 420 8 420 20 377 c 0,8,9
 26 357 26 357 44 341 c 0,10,11
 82 307 82 307 157 315 c 2,12,-1
 252 327 l 2,13,14
 268 327 l 0,15,16
 291 327 291 327 385 314 c 0,17,18
 469 303 469 303 507 330 c 0,19,20
 516 336 516 336 524 344 c 0,21,22
 555 378 555 378 529 420 c 0,23,24
 517 438 517 438 498 452 c 0,25,26
 456 481 456 481 383 471 c 0,27,28
 298 459 298 459 279 459 c 0,0,1
EndSplineSet
EndChar
StartChar: quoteleft
Encoding: 8216 8216 200
Width: 240
GlyphClass: 2
Flags: W
Fore
21 750 m 0,0,1
 44 785 44 785 90 779 c 0,2,3
 114 775 114 775 132 759 c 0,4,5
 151 742 151 742 140 705 c 2,6,-1
 131 667 l 1,7,8
 130 655 130 655 132 645 c 0,9,10
 137 621 137 621 181 572 c 0,11,12
 215 534 215 534 209 521 c 0,13,14
 206 514 206 514 195 510 c 0,15,16
 172 501 172 501 113 560 c 0,17,18
 85 587 85 587 66 615 c 2,19,-1
 25 674 l 2,20,21
 -1 717 -1 717 21 750 c 0,0,1
EndSplineSet
EndChar
